<?xml version="1.0" standalone="no"?><!DOCTYPE svg PUBLIC "-//W3C//DTD SVG 1.1//EN" "http://www.w3.org/Graphics/SVG/1.1/DTD/svg11.dtd"><svg t="1667125770746" class="icon" viewBox="0 0 1024 1024" version="1.1" xmlns="http://www.w3.org/2000/svg" p-id="2326" xmlns:xlink="http://www.w3.org/1999/xlink" width="200" height="200"><path d="M131.84483 540.768604a452.018717 452.018717 0 0 1 36.216755-338.267774l-26.517736 7.602717a472.962415 472.962415 0 0 0 825.991245 457.863245l-7.602717-26.517735a452.752906 452.752906 0 0 1-828.087547-100.680453z" fill="#FF3333" opacity=".48" p-id="2327"></path><path d="M673.434566 783.88166a383.072604 383.072604 0 0 1-402.287094-610.941585l-17.002264 4.878491a393.331925 393.331925 0 1 0 681.085584 377.527547l-4.337509-15.09917a384.608604 384.608604 0 0 1-257.449057 243.634717z" fill="#FF3333" opacity=".48" p-id="2328"></path><path d="M455.312906 383.120906v-14.297359h-164.999246v14.297359h85.397736a224.120755 224.120755 0 0 1-90.227924 84.23849 98.816 98.816 0 0 1 9.660377 12.558491 247.750038 247.750038 0 0 0 69.941132-56.223396v107.423396h15.263396v-126.744151c4.830189-7.148679 9.46717-14.104151 13.717736-21.25283z m-71.100378 41.539622a431.132981 431.132981 0 0 1 65.110944 52.552453l11.399245-11.01283a440.976906 440.976906 0 0 0-65.883774-50.813585z m227.598491 42.505661v39.993962h-89.648302v-39.993962z m-104.138868 64.144905h14.490566v-10.819622h89.648302v10.046792h14.876981v-76.123773h-119.015849z m15.263396-113.41283a215.097962 215.097962 0 0 0 44.244528-38.061887 223.019472 223.019472 0 0 0 46.949434 38.061887z m46.176604-63.178868a200.307925 200.307925 0 0 1-91.38717 69.747925 57.237736 57.237736 0 0 1 10.433208 12.55849 271.244075 271.244075 0 0 0 29.560754-15.649811v9.853585h96.796982v-13.138113a302.833509 302.833509 0 0 0 31.299622 17.195471 43.471698 43.471698 0 0 1 9.853585-12.944905 227.31834 227.31834 0 0 1-80.181132-52.745661c2.125283-2.898113 4.250566-5.603019 6.182642-8.694339z m247.885283 119.015849v34.777359h-56.803019v-34.777359z m-70.520755 57.575849h13.717736v-9.853585h56.803019v9.46717h14.104151v-69.941132h-84.624906z m19.900378-143.746415h51.2a115.509132 115.509132 0 0 1-27.62868 31.49283 102.525585 102.525585 0 0 1-24.730566-29.560754z m61.826415-13.524528l-2.511698 0.579623h-52.359246c2.511698-5.409811 5.023396-11.01283 7.14868-16.615849l-12.751699-3.477736a141.418264 141.418264 0 0 1-34.390943 53.904905 74.056453 74.056453 0 0 1 8.887547 11.012831 136.539774 136.539774 0 0 0 15.649812-18.547925 118.52317 118.52317 0 0 0 21.832452 25.503396 182.832302 182.832302 0 0 1-49.461132 22.798491l6.569057-7.92151c-3.477736-5.023396-18.354717-25.696604-23.184906-31.299622v-4.250566h21.059623v-13.524529h-21.059623v-37.095849h-13.717736v37.095849h-27.049056v13.524529h24.923773a212.354415 212.354415 0 0 1-28.981132 72.259622 62.531623 62.531623 0 0 1 7.341887 13.717736 214.228528 214.228528 0 0 0 23.764528-55.836981v95.637736h13.717736v-104.138868c4.830189 7.921509 10.24 17.195472 13.331321 22.991698l-0.966038 0.193208a54.175396 54.175396 0 0 1 7.535095 12.55849 210.866717 210.866717 0 0 0 56.996226-27.821887 172.920755 172.920755 0 0 0 52.938868 25.696604 55.431245 55.431245 0 0 1 5.409811-13.138113 150.701887 150.701887 0 0 1-47.915471-20.673208 131.381132 131.381132 0 0 0 36.129811-47.529056z" fill="#FF3333" opacity=".48" p-id="2329"></path></svg>