<?xml version="1.0" standalone="no"?><!DOCTYPE svg PUBLIC "-//W3C//DTD SVG 1.1//EN" "http://www.w3.org/Graphics/SVG/1.1/DTD/svg11.dtd"><svg t="1667125765563" class="icon" viewBox="0 0 1024 1024" version="1.1" xmlns="http://www.w3.org/2000/svg" p-id="2169" xmlns:xlink="http://www.w3.org/1999/xlink" width="200" height="200"><path d="M129.990038 510.45434a430.07034 430.07034 0 0 1 34.448905-321.845132l-25.213585 7.235622a449.990038 449.990038 0 0 0 785.871699 435.625057l-7.225963-25.223245a430.765887 430.765887 0 0 1-787.881056-95.792302z" fill="#09AD9C" opacity=".48" p-id="2170"></path><path d="M645.158642 742.612528a364.901434 364.901434 0 0 1-383.198189-581.970113l-16.200453 4.646642a374.668075 374.668075 0 1 0 648.829585 359.655849l-4.134642-14.422944a366.360151 366.360151 0 0 1-245.296301 232.090566z" fill="#09AD9C" opacity=".48" p-id="2171"></path><path d="M464.13283 428.630943v39.993963h-89.648302v-39.993963z m-104.138868 64.144906h14.490566v-10.819623h89.648302v10.046793h14.876981v-76.123774h-119.015849z m15.263396-113.41283a215.097962 215.097962 0 0 0 44.244529-38.061887 223.019472 223.019472 0 0 0 46.949434 38.061887z m46.176604-63.178868a200.307925 200.307925 0 0 1-91.38717 69.747924 57.237736 57.237736 0 0 1 10.433208 12.558491 271.244075 271.244075 0 0 0 29.560755-15.649811v9.853585h96.796981v-13.138114a302.833509 302.833509 0 0 0 31.299622 17.195472 43.471698 43.471698 0 0 1 9.853585-12.944906 227.31834 227.31834 0 0 1-80.181132-52.74566c2.125283-2.898113 4.250566-5.603019 6.182642-8.69434z m247.885283 119.015849v34.777358h-56.803019v-34.777358z m-70.520754 57.575849h13.717735v-9.853585h56.803019v9.46717h14.104151v-69.941132h-84.624905z m19.900377-143.746415h51.2a115.509132 115.509132 0 0 1-27.628679 31.49283 102.525585 102.525585 0 0 1-24.730566-29.560755z m61.826415-13.524528l-2.511698 0.579622h-52.359245c2.511698-5.409811 5.023396-11.01283 7.148679-16.615849l-12.751698-3.477736a141.418264 141.418264 0 0 1-34.390944 53.904906 74.056453 74.056453 0 0 1 8.887548 11.01283 136.539774 136.539774 0 0 0 15.649811-18.547924 118.52317 118.52317 0 0 0 21.832453 25.503396 182.832302 182.832302 0 0 1-49.461132 22.798491l6.569056-7.92151c-3.477736-5.023396-18.354717-25.696604-23.184905-31.299623v-4.250566h21.059622v-13.524528h-21.059622v-37.095849h-13.717736v37.095849h-27.049057v13.524528h24.923774a212.354415 212.354415 0 0 1-28.981132 72.259623 62.521962 62.521962 0 0 1 7.341886 13.717736 214.228528 214.228528 0 0 0 23.764529-55.836981v95.637736h13.717736V388.830189c4.830189 7.921509 10.24 17.195472 13.33132 22.991698l-0.966037 0.193207a54.175396 54.175396 0 0 1 7.535094 12.558491 210.866717 210.866717 0 0 0 56.996226-27.821887 172.920755 172.920755 0 0 0 52.938868 25.696604 55.431245 55.431245 0 0 1 5.409812-13.138113 150.701887 150.701887 0 0 1-47.915472-20.673208 131.381132 131.381132 0 0 0 36.129811-47.529056z" fill="#09AD9C" opacity=".48" p-id="2172"></path></svg>