<?xml version="1.0" standalone="no"?><!DOCTYPE svg PUBLIC "-//W3C//DTD SVG 1.1//EN" "http://www.w3.org/Graphics/SVG/1.1/DTD/svg11.dtd"><svg t="1666940956323" class="icon" viewBox="0 0 1024 1024" version="1.1" xmlns="http://www.w3.org/2000/svg" p-id="1829" xmlns:xlink="http://www.w3.org/1999/xlink" width="200" height="200"><path d="M511.490046 511.488511m-511.488512 0a511.488511 511.488511 0 1 0 1022.977023 0 511.488511 511.488511 0 1 0-1022.977023 0Z" fill="#E07F28" p-id="1830"></path><path d="M0.001534 482.845155a511.488511 482.845155 0 1 0 1022.977023 0 511.488511 482.845155 0 1 0-1022.977023 0Z" fill="#F4C43D" p-id="1831"></path><path d="M705.344192 692.555445c-21.482517 0-42.965035-8.183816-59.332668-24.551449l-48.591408-48.591409 21.482517-21.482517 48.591409 48.591409c20.971029 20.971029 54.729271 20.971029 75.188811 0 20.971029-20.971029 20.971029-54.729271 0-75.188812l-48.591408-48.591408 21.482517-21.482518 48.591409 48.591409c32.735265 32.735265 32.735265 85.93007 0 118.665335-15.856144 15.856144-37.338661 24.03996-58.821179 24.03996z" fill="#DB4944" p-id="1832"></path><path d="M705.344192 695.112887c-23.016983 0-45.010989-9.206793-60.867133-25.062937l-50.125874-50.125874 25.062937-25.062937 50.125874 50.125874c9.718282 9.718282 22.505495 14.833167 35.804196 14.833167 13.81019 0 26.085914-5.114885 35.804196-14.833167 19.948052-19.948052 19.948052-52.171828 0-71.608392l-50.125875-50.125874 25.062938-25.062937 50.125874 50.125874c33.758242 33.758242 33.758242 88.487512 0 122.245755-16.367632 15.344655-37.85015 24.551449-60.867133 24.551448z m-104.343657-75.7003l46.545455 46.545455c15.344655 15.344655 35.804196 23.528472 57.286713 23.528471 21.994006 0 41.942058-8.695305 57.286714-23.528471 31.712288-31.712288 31.712288-83.372627 0-115.084915l-46.545455-46.545455-17.902098 17.902098 46.545455 46.545455c21.994006 21.994006 21.994006 57.286713 0 78.769231-10.741259 10.741259-24.551449 16.367632-39.384616 16.367632s-29.154845-5.626374-39.384615-16.367632l-46.545455-46.545455-17.902098 18.413586z" fill="#333333" p-id="1833"></path><path d="M511.490046 886.40959c-22.505495 0-43.476523-8.695305-59.332667-24.551448-32.735265-32.735265-32.735265-85.93007 0-118.665335l59.332667-59.332667 59.332667 59.332667c32.735265 32.735265 32.735265 85.93007 0 118.665335-15.856144 15.856144-36.827173 24.551449-59.332667 24.551448z m0-159.072927l-37.85015 37.85015c-20.971029 20.971029-20.971029 54.729271 0 75.188811 20.971029 20.971029 54.729271 20.971029 75.188811 0 20.971029-20.971029 20.971029-54.729271 0-75.188811l-37.338661-37.85015z" fill="#DB4944" p-id="1834"></path><path d="M511.490046 888.967033c-23.016983 0-45.010989-9.206793-60.867133-25.062937-16.367632-16.367632-25.062937-37.85015-25.062937-60.867133s9.206793-45.010989 25.062937-60.867133L511.490046 681.302697l60.867133 60.867133c16.367632 16.367632 25.062937 37.85015 25.062937 60.867133s-9.206793 45.010989-25.062937 60.867133c-16.367632 15.856144-37.85015 25.062937-60.867133 25.062937z m0-201.526474l-57.286713 57.286714c-15.344655 15.344655-23.528472 35.804196-23.528472 57.286713s8.695305 41.942058 23.528472 57.286713c15.344655 15.344655 35.804196 23.528472 57.286713 23.528472 21.994006 0 41.942058-8.183816 57.286713-23.528472 15.344655-15.344655 23.528472-35.804196 23.528472-57.286713s-8.695305-41.942058-23.528472-57.286713l-57.286713-57.286714z m0 170.837163c-14.833167 0-29.154845-5.626374-39.384615-16.367632-10.741259-10.741259-16.367632-24.551449-16.367633-39.384615 0-14.833167 5.626374-29.154845 16.367633-39.384616l39.384615-39.384615 39.384615 39.384615c21.994006 21.994006 21.994006 57.286713 0 78.769231-10.741259 10.741259-24.551449 16.367632-39.384615 16.367632z m0-127.360639l-35.804196 35.804196c-19.948052 19.948052-19.948052 52.171828 0 71.608391 9.718282 9.718282 22.505495 14.833167 35.804196 14.833167s26.085914-5.114885 35.804196-14.833167c19.948052-19.948052 19.948052-52.171828 0-71.608391l-35.804196-35.804196z" fill="#333333" p-id="1835"></path><path d="M716.085451 522.22977l-21.482518-21.482517 48.591409-48.591409c20.971029-20.971029 20.971029-54.729271 0-75.188811-20.971029-20.971029-54.729271-20.971029-75.188812 0l-48.591408 48.591409-21.482518-21.482518 48.591409-48.591409c32.735265-32.735265 85.93007-32.735265 118.665335 0 32.735265 32.735265 32.735265 85.93007 0 118.665335l-49.102897 48.07992z" fill="#DB4944" p-id="1836"></path><path d="M716.085451 526.321678l-25.062938-25.062937 50.125875-50.125874c19.948052-19.948052 19.948052-52.171828 0-71.608391-9.718282-9.718282-22.505495-14.833167-35.804196-14.833167-13.81019 0-26.085914 5.114885-35.804196 14.833167l-50.125874 50.125874-25.062937-25.062937 50.125874-50.125875c33.758242-33.758242 88.487512-33.758242 122.245754 0 16.367632 16.367632 25.062937 37.85015 25.062937 60.867133s-9.206793 45.010989-25.062937 60.867133l-50.637362 50.125874z m-17.902098-25.574425l17.902098 17.902098 46.545454-46.545455c15.344655-15.344655 23.528472-35.804196 23.528472-57.286713 0-21.994006-8.695305-41.942058-23.528472-57.286713-31.712288-31.712288-83.372627-31.712288-115.084915 0l-46.545455 46.545454 17.902098 17.902098 46.545455-46.545455c10.741259-10.741259 24.551449-16.367632 39.384615-16.367632s29.154845 5.626374 39.384616 16.367632c21.994006 21.994006 21.994006 57.286713 0 78.769231l-46.033966 46.545455z" fill="#333333" p-id="1837"></path><path d="M597.384312 597.705015l96.927073-96.927073 21.702457 21.702458-96.927073 96.927073z" fill="#DB4944" p-id="1838"></path><path d="M618.902633 622.993007l-25.062937-25.062937L694.602933 497.166833l25.062937 25.062937-100.763237 100.763237z m-17.902098-25.062937l17.902098 17.902098L712.505031 522.741259l-17.902098-17.902098-93.602398 93.090909z" fill="#333333" p-id="1839"></path><path d="M597.230865 425.358961l21.702458-21.697343 96.927073 96.927073-21.702458 21.697343z" fill="#DB4944" p-id="1840"></path><path d="M694.602933 526.321678L593.839696 425.558442l25.062937-25.062938 100.763237 100.763237-25.062937 25.062937zM601.000535 425.558442l93.602398 93.602397 17.902098-17.902098-93.602398-93.602397-17.902098 17.902098z" fill="#333333" p-id="1841"></path><path d="M500.41632 694.9799l96.927073-96.927073 21.702457 21.697343-96.927073 96.927073z" fill="#DB4944" p-id="1842"></path><path d="M522.231305 720.175824l-25.062937-25.062937 100.763236-100.763237 25.062937 25.062937-100.763236 100.763237z m-17.902098-25.574425l17.902098 17.902098 93.090909-93.602398-17.902098-17.902098-93.090909 93.602398z" fill="#333333" p-id="1843"></path><path d="M403.663153 619.54046l21.697343-21.697343 96.927072 96.927073-21.697342 21.702457z" fill="#DB4944" p-id="1844"></path><path d="M500.237299 720.175824l-100.763237-100.763237 25.062937-25.062937 100.763237 100.763237-25.062937 25.062937z m-93.090909-100.763237l93.090909 93.602398 17.902098-17.902098-93.602398-93.602397-17.390609 17.902097z" fill="#333333" p-id="1845"></path><path d="M500.267988 522.628731l21.697343-21.697342 96.927073 96.927073-21.697343 21.702457z" fill="#DB4944" p-id="1846"></path><path d="M597.420116 622.993007l-100.763237-100.763237 25.062937-25.062937 100.763237 100.763237-25.062937 25.062937z m-93.090909-100.763237l93.602397 93.090909 17.902098-17.902098-93.090909-93.090909-18.413586 17.902098z" fill="#333333" p-id="1847"></path><path d="M403.56597 403.779261l96.927073-96.927073 21.702457 21.697342-96.927072 96.927073z" fill="#DB4944" p-id="1848"></path><path d="M425.048488 429.138861l-25.062938-25.062937 100.763237-100.763237 25.062937 25.062937-100.763236 100.763237z m-17.902098-25.062937l17.902098 17.902098L518.650885 328.375624l-17.902098-17.902098-93.602397 93.602398z" fill="#333333" p-id="1849"></path><path d="M500.319137 328.759241l21.702457-21.702458 96.927073 96.927073-21.697342 21.702458z" fill="#DB4944" p-id="1850"></path><path d="M597.420116 429.138861L496.656879 328.375624l25.062937-25.062937 100.763237 100.763237-25.062937 25.062937zM504.329207 328.375624l93.602397 93.602398 17.902098-17.902098-93.090909-93.602398-18.413586 17.902098z" fill="#333333" p-id="1851"></path><path d="M500.472583 501.105295l96.927073-96.927073 21.702458 21.697342-96.927073 96.927073z" fill="#DB4944" p-id="1852"></path><path d="M522.231305 526.321678l-25.062937-25.062937 100.763236-100.763237 25.062937 25.062938-100.763236 100.763236z m-17.902098-25.574425l17.902098 17.902098L615.322214 425.558442l-17.902098-17.902098-93.090909 93.090909z" fill="#333333" p-id="1853"></path><path d="M403.509706 597.653866l96.927073-96.927073 21.702458 21.697343-96.927073 96.927073z" fill="#DB4944" p-id="1854"></path><path d="M425.048488 622.993007l-25.062938-25.062937L500.237299 497.166833l25.062937 25.062937-100.251748 100.763237z m-17.902098-25.062937l17.902098 17.902098 93.602397-93.090909-17.902098-17.902098-93.602397 93.090909z" fill="#333333" p-id="1855"></path><path d="M403.35626 425.302697l21.702457-21.697342 96.927073 96.927073-21.702457 21.702457z" fill="#DB4944" p-id="1856"></path><path d="M500.237299 526.321678L399.98555 425.558442l25.062938-25.062938 100.763236 100.763237-25.574425 25.062937zM407.14639 425.558442l93.090909 93.602397 17.902098-17.902098-93.090909-93.602397-17.902098 17.902098z" fill="#333333" p-id="1857"></path><path d="M317.124412 692.555445c-21.482517 0-42.965035-8.183816-59.332668-24.551449-15.856144-15.856144-24.551449-36.827173-24.551448-59.332667 0-22.505495 8.695305-43.476523 24.551448-59.332668l48.591409-48.591408 21.482517 21.482517-48.591408 48.591409c-10.22977 10.22977-15.344655 23.528472-15.344656 37.85015 0 14.321678 5.626374 27.62038 15.344656 37.85015 20.971029 20.971029 54.729271 20.971029 75.188811 0l48.591409-48.591409 21.482517 21.482517-48.591409 48.591409c-15.856144 16.367632-37.338661 24.551449-58.821178 24.551449z" fill="#DB4944" p-id="1858"></path><path d="M317.124412 695.112887c-23.016983 0-45.010989-9.206793-60.867133-25.062937-16.367632-16.367632-25.062937-37.85015-25.062937-60.867133s9.206793-45.010989 25.062937-60.867133l50.125874-50.125874 25.062937 25.062937-50.125874 50.125874c-9.718282 9.718282-14.833167 22.505495-14.833167 35.804196 0 13.81019 5.114885 26.085914 14.833167 35.804196 9.718282 9.718282 22.505495 14.833167 35.804196 14.833167s26.085914-5.114885 35.804195-14.833167l50.125875-50.125874 25.062937 25.062937-50.125875 50.125874c-15.856144 15.856144-37.338661 25.062937-60.867132 25.062937z m-10.741259-190.785215l-46.545455 46.545455c-15.344655 15.344655-23.528472 35.804196-23.528471 57.286713s8.183816 41.942058 23.528471 57.286713c15.344655 15.344655 35.804196 23.528472 57.286714 23.528472 21.994006 0 41.942058-8.695305 57.286713-23.528472l46.545454-46.545454-17.902097-17.902098-46.545455 46.545455c-10.741259 10.741259-24.551449 16.367632-39.384615 16.367632-14.833167 0-29.154845-5.626374-39.384616-16.367632-10.741259-10.22977-16.367632-24.551449-16.367632-39.384616s5.626374-29.154845 16.367632-39.384615l46.545455-46.545455-17.902098-17.902098z" fill="#333333" p-id="1859"></path><path d="M306.393383 522.577582l21.697342-21.702457 96.927073 96.927073-21.697342 21.702457z" fill="#DB4944" p-id="1860"></path><path d="M403.56597 622.993007l-100.763237-100.763237 25.062937-25.062937 100.763237 100.763237-25.062937 25.062937z m-93.602398-100.763237l93.602398 93.090909 17.902098-17.902098-93.090909-93.090909-18.413587 17.902098z" fill="#333333" p-id="1861"></path><path d="M511.490046 339.628372L452.157379 280.295704c-32.735265-32.735265-32.735265-85.93007 0-118.665334 15.856144-15.856144 36.827173-24.551449 59.332667-24.551449 22.505495 0 43.476523 8.695305 59.332667 24.551449 32.735265 32.735265 32.735265 85.93007 0 118.665334L511.490046 339.628372z m0-171.86014c-14.321678 0-27.62038 5.626374-37.85015 15.344655-20.971029 20.971029-20.971029 54.729271 0 75.188811l37.85015 37.85015 37.85015-37.85015c20.971029-20.971029 20.971029-54.729271 0-75.188811-10.22977-10.22977-23.528472-15.344655-37.85015-15.344655z" fill="#DB4944" p-id="1862"></path><path d="M511.490046 343.208791l-61.378621-61.378621c-33.758242-33.758242-33.758242-88.487512 0-122.245754 16.367632-16.367632 37.85015-25.062937 60.867132-25.062937s45.010989 9.206793 60.867133 25.062937c16.367632 16.367632 25.062937 37.85015 25.062937 60.867132s-9.206793 45.010989-25.062937 60.867133L511.490046 343.208791z m0-203.572427c-21.994006 0-41.942058 8.183816-57.286713 23.528471-31.712288 31.712288-31.712288 83.372627 0 115.084915l57.286713 57.286714 57.286713-57.286714c15.344655-15.344655 23.528472-35.804196 23.528472-57.286713 0-21.994006-8.695305-41.942058-23.528472-57.286713-15.344655-15.856144-35.804196-24.03996-57.286713-24.03996z m0 160.095904L472.105431 260.347652c-10.741259-10.741259-16.367632-24.551449-16.367633-39.384615s5.626374-29.154845 16.367633-39.384615c10.741259-10.741259 24.551449-16.367632 39.384615-16.367633s29.154845 5.626374 39.384615 16.367633c10.741259 10.741259 16.367632 24.551449 16.367633 39.384615s-5.626374 29.154845-16.367633 39.384615l-39.384615 39.384616z m0-129.406594c-13.81019 0-26.085914 5.114885-35.804196 14.833167-19.948052 19.948052-19.948052 52.171828 0 71.608392l35.804196 35.804196 35.804196-35.804196c19.948052-19.948052 19.948052-52.171828 0-71.608392-9.718282-9.718282-22.505495-14.833167-35.804196-14.833167z" fill="#333333" p-id="1863"></path><path d="M306.383153 522.22977l-48.591409-48.591408c-15.856144-15.856144-24.551449-36.827173-24.551448-59.332668s8.695305-43.476523 24.551448-59.332667c32.735265-32.735265 85.93007-32.735265 118.665335 0l48.591409 48.591409-21.482518 21.994006-48.591409-48.591409c-20.971029-20.971029-54.729271-20.971029-75.188811 0-10.22977 10.22977-15.344655 23.528472-15.344655 37.85015s5.626374 27.62038 15.344655 37.85015l48.591409 48.591408-21.994006 20.971029z" fill="#DB4944" p-id="1864"></path><path d="M306.383153 526.321678l-50.125874-50.125874c-16.367632-16.367632-25.062937-37.85015-25.062937-60.867133s9.206793-45.010989 25.062937-60.867133c33.758242-33.758242 88.487512-33.758242 122.245754 0l50.125874 50.125875-25.062937 25.062937-50.125874-50.125874c-9.718282-9.718282-22.505495-14.833167-35.804196-14.833167s-26.085914 5.114885-35.804196 14.833167c-9.718282 9.718282-14.833167 22.505495-14.833167 35.804195s5.114885 26.085914 14.833167 35.804196l50.125874 50.125874-25.574425 25.062937zM317.124412 333.490509c-20.971029 0-41.430569 7.672328-57.286714 23.528472-15.344655 15.344655-23.528472 35.804196-23.528471 57.286713S244.493043 456.247752 259.837698 471.592408l46.545455 46.545454 17.902098-17.902098-46.545455-46.033966c-10.741259-10.741259-16.367632-24.551449-16.367632-39.384615s5.626374-29.154845 16.367632-39.384616c10.741259-10.741259 24.551449-16.367632 39.384616-16.367632s29.154845 5.626374 39.384615 16.367632l46.545455 46.545455 17.902097-17.902098-46.033966-47.056943c-15.856144-15.856144-36.827173-23.528472-57.798201-23.528472z" fill="#333333" p-id="1865"></path><path d="M306.597978 501.049031l96.927073-96.927073 21.702457 21.697343-96.927072 96.927073z" fill="#DB4944" p-id="1866"></path><path d="M328.377159 526.321678L303.314222 501.258741l100.763237-100.763237 25.062937 25.062938-100.763237 100.763236z m-18.413587-25.574425l17.902098 17.902098L421.468068 425.558442l-17.902098-17.902098-93.602398 93.090909z" fill="#333333" p-id="1867"></path></svg>