<?xml version="1.0" standalone="no"?><!DOCTYPE svg PUBLIC "-//W3C//DTD SVG 1.1//EN" "http://www.w3.org/Graphics/SVG/1.1/DTD/svg11.dtd"><svg t="1662872993226" class="icon" viewBox="0 0 1024 1024" version="1.1" xmlns="http://www.w3.org/2000/svg" p-id="5870" xmlns:xlink="http://www.w3.org/1999/xlink" width="200" height="200"><path d="M512 512m-512 0a512 512 0 1 0 1024 0 512 512 0 1 0-1024 0Z" fill="#FC8D2C" opacity=".15" p-id="5871"></path><path d="M594.315636 690.036364l-149.352727-0.698182h-0.151273c-2.082909-0.884364-82.245818-35.130182-119.354181-35.130182h-16.29091a75.426909 75.426909 0 0 0-73.425454 52.119273 73.472 73.472 0 0 0 52.247273 92.241454c46.126545 11.706182 129.163636 32.395636 167.249454 39.563637 58.426182 10.926545 184.331636-14.801455 198.062546-18.978909 14.871273-4.514909 104.517818-34.234182 105.425454-34.525091a30.929455 30.929455 0 0 0 19.060364-14.545455 30.801455 30.801455 0 0 0-0.093091-30.696727 28.997818 28.997818 0 0 0-12.637091-12.113455 31.418182 31.418182 0 0 0-23.726545-1.582545l-141.568 42.577454h-0.16291l-151.470545-0.360727a8.226909 8.226909 0 1 1 0-16.430545h144.174545a31.709091 31.709091 0 0 0 31.813819-30.021819 30.72 30.72 0 0 0-29.765819-31.418181" fill="#FC8D2C" opacity=".5" p-id="5872"></path><path d="M644.898909 743.808a48.872727 48.872727 0 0 0 4.654546-18.350545 47.010909 47.010909 0 0 0-12.8-33.745455 47.918545 47.918545 0 0 0-34.33891-14.836364h-143.557818c-14.138182-5.981091-86.574545-35.805091-124.334545-35.805091h-19.409455a88.296727 88.296727 0 0 0-44.811636 12.334546 282.763636 282.763636 0 0 1-36.736-139.077818c0-2.455273 0-4.945455 0.093091-7.389091h-0.942546v-1.629091-1.477818a282.763636 282.763636 0 0 1 476.974546-205.509818 281.506909 281.506909 0 0 1 88.052363 188.38109c0.896 9.157818 1.349818 18.455273 1.349819 27.648a279.086545 279.086545 0 0 1-25.925819 118.109091 282.763636 282.763636 0 0 1-69.911272 93.649455l-58.333091 17.687273z m-67.083636-238.696727v52.270545a23.540364 23.540364 0 0 0 6.225454 16.023273 19.374545 19.374545 0 0 0 14.731637 6.539636h17.454545v-68.503272a6.365091 6.365091 0 0 0-1.675636-4.549819 5.597091 5.597091 0 0 0-4.247273-1.780363z m-56.773818 0a7.342545 7.342545 0 0 0-6.923637 5.527272l-18.001454 69.248c22.586182 0 39.016727-13.323636 48.872727-39.563636l9.099636-35.211636z m-39.761455-51.828364l-12.066909 102.469818a21.957818 21.957818 0 0 0 4.747636 16.709818 18.152727 18.152727 0 0 0 14.638546 6.981819l14.242909-119.68a6.481455 6.481455 0 0 0-1.291637-4.654546 4.887273 4.887273 0 0 0-4.049454-1.873454h-16.221091z m-62.312727-25.122909a6.853818 6.853818 0 0 0-4.747637 1.780364 7.470545 7.470545 0 0 0-2.327272 4.747636l-1.163637 9.099636h29.870546l-17.873455 135.703273h29.672727a8.145455 8.145455 0 0 0 5.643637-2.327273 9.902545 9.902545 0 0 0 3.060363-5.818181l16.616728-127.592728h23.144727a7.074909 7.074909 0 0 0 5.050182-1.978182 9.309091 9.309091 0 0 0 2.664727-5.143272l1.163636-8.506182h-29.847272l2.327272-18.792727h21.364364a7.249455 7.249455 0 0 0 5.189818-2.059637 9.518545 9.518545 0 0 0 2.769455-5.248l0.989091-8.506182h-79.127273a15.767273 15.767273 0 0 0-11.077818 4.445091 19.781818 19.781818 0 0 0-5.922909 11.368728h28.485818l-2.327273 18.792727z m2.327272 25.122909a10.344727 10.344727 0 0 0-7.121454 2.874182 11.554909 11.554909 0 0 0-3.758546 7.214545l-16.372363 116.119273a24.087273 24.087273 0 0 0 16.709818-6.632727 29.253818 29.253818 0 0 0 9.006545-17.117091l14.440728-102.469818z m101.236364-59.543273l-10.472727 79.522909a19.490909 19.490909 0 0 0 4.037818 15.464728 16.372364 16.372364 0 0 0 13.451636 6.528h75.368728a21.410909 21.410909 0 0 0 15.232-6.528 25.204364 25.204364 0 0 0 7.912727-15.441455l10.472727-79.522909h-69.818182l-2.176 15.825455h31.418182l-8.145454 62.510545a8.762182 8.762182 0 0 1-2.56 5.143273 7.447273 7.447273 0 0 1-5.154909 2.176h-25.646546a5.655273 5.655273 0 0 1-4.561454-2.176 6.981818 6.981818 0 0 1-1.163637-5.143273l6.923637-53.608727 1.163636-8.901818 2.164364-15.825455z" fill="#FC8D2C" p-id="5873"></path></svg>