<?xml version="1.0" encoding="UTF-8"?>
<!DOCTYPE svg PUBLIC "-//W3C//DTD SVG 1.1//EN" "http://www.w3.org/Graphics/SVG/1.1/DTD/svg11.dtd">
<svg xmlns="http://www.w3.org/2000/svg" version="1.1" width="200px" height="200px" style="shape-rendering:geometricPrecision; text-rendering:geometricPrecision; image-rendering:optimizeQuality; fill-rule:evenodd; clip-rule:evenodd" xmlns:xlink="http://www.w3.org/1999/xlink">
<g><path style="opacity:0.94" fill="#ea0028" d="M 88.5,31.5 C 124.082,28.5339 149.248,43.2005 164,75.5C 171.269,98.6536 168.102,120.154 154.5,140C 153.833,140.667 153.167,140.667 152.5,140C 128.167,115.667 103.833,91.3333 79.5,67C 94.1667,66.3333 108.833,66.3333 123.5,67C 119.667,70.8333 115.833,74.6667 112,78.5C 111.333,79.1667 111.333,79.8333 112,80.5C 124.681,93.3475 137.514,106.014 150.5,118.5C 158.054,96.6641 154.054,77.1641 138.5,60C 116.165,41.541 92.4987,39.7077 67.5,54.5C 63.6036,51.7943 60.7702,48.461 59,44.5C 67.8846,37.8032 77.7179,33.4698 88.5,31.5 Z"/></g>
<g><path style="opacity:0.931" fill="#ea0029" d="M 48.5,53.5 C 74.2491,77.7475 99.5824,102.581 124.5,128C 109.5,128.667 94.5,128.667 79.5,128C 83.8333,123.667 88.1667,119.333 92.5,115C 78.6667,101.167 64.8333,87.3333 51,73.5C 38.4775,102.579 44.6441,126.746 69.5,146C 93.1227,158.857 115.456,157.024 136.5,140.5C 139.833,143.167 142.833,146.167 145.5,149.5C 137.165,157.838 127.165,163.338 115.5,166C 78.9455,171.974 52.4455,158.474 36,125.5C 26.7298,99.0324 30.8964,75.0324 48.5,53.5 Z"/></g>
</svg>
