<?xml version="1.0" standalone="no"?><!DOCTYPE svg PUBLIC "-//W3C//DTD SVG 1.1//EN" "http://www.w3.org/Graphics/SVG/1.1/DTD/svg11.dtd"><svg t="1662873017394" class="icon" viewBox="0 0 1337 1024" version="1.1" xmlns="http://www.w3.org/2000/svg" p-id="8785" xmlns:xlink="http://www.w3.org/1999/xlink" width="261.1328125" height="200"><path d="M1106.739342 600.320088l-268.800879 409.6 16.640047-268.800052H709.939187c-7.680403 0-12.800672-5.120269-12.800672-12.800672l128.000103-320.000259c0-7.678748 5.120269-12.799017 12.800673-12.799017h166.399638c7.679576 0 12.800672 5.119441 12.800672 12.799845l-84.481128 192.000155h174.080869z m-332.800931-254.72014L581.939084 793.60031c0 14.079912 11.519778 25.59969 25.599689 25.59969h153.599794v204.8H159.538411c-56.319648 0-102.399586-46.080765-102.399586-102.400414V102.399586c0-56.319648 46.079938-102.399586 102.399586-102.399586h691.200724c56.319648 0 102.399586 46.079938 102.399587 102.399586v217.599845h-153.599793c-14.079912 0-25.600517 10.240538-25.600518 25.600517zM223.538463 459.519312c0 7.679576 5.120269 12.799845 12.800672 12.799845h166.399638c7.679576 0 12.799845-5.120269 12.799845-12.800672v-25.59969c0-7.679576-5.120269-12.799845-12.800672-12.799845H236.339135c-7.679576 0-12.799845 5.120269-12.799844 12.800672v25.59969z m0-113.920191c0 7.679576 5.120269 12.799845 12.800672 12.799845h268.799225c7.680403 0 12.800672-5.120269 12.800672-12.800673v-25.599689c0-7.679576-5.120269-12.799845-12.800672-12.799845H236.338308c-7.679576 0-12.799845 5.120269-12.799845 12.800672v25.59969zM607.539601 204.8c0-7.680403-5.120269-12.800672-12.800672-12.800672H236.339135c-7.679576 0-12.799845 5.120269-12.799844 12.800672v25.59969c0 7.680403 5.120269 12.800672 12.800672 12.800672H594.738929c7.679576 0 12.799845-5.120269 12.799844-12.800672v-25.59969z" fill="#FF943E" p-id="8786"></path></svg>