<?xml version="1.0" encoding="UTF-8"?>
<!DOCTYPE svg PUBLIC "-//W3C//DTD SVG 1.1//EN" "http://www.w3.org/Graphics/SVG/1.1/DTD/svg11.dtd">
<svg xmlns="http://www.w3.org/2000/svg" version="1.1" width="512px" height="512px" style="shape-rendering:geometricPrecision; text-rendering:geometricPrecision; image-rendering:optimizeQuality; fill-rule:evenodd; clip-rule:evenodd" xmlns:xlink="http://www.w3.org/1999/xlink">
<g><path style="opacity:0.975" fill="#5a8dae" d="M 266.5,87.5 C 261.973,90.5645 256.973,92.2312 251.5,92.5C 251.889,100.164 252.222,107.83 252.5,115.5C 254.415,141.229 256.081,166.895 257.5,192.5C 257.5,193.833 257.5,195.167 257.5,196.5C 258.943,211.126 259.609,225.792 259.5,240.5C 257.5,240.5 255.5,240.5 253.5,240.5C 250.833,240.5 248.167,240.5 245.5,240.5C 245.5,239.5 245.5,238.5 245.5,237.5C 245.5,234.833 245.5,232.167 245.5,229.5C 245.5,228.167 245.5,226.833 245.5,225.5C 245.5,223.833 245.5,222.167 245.5,220.5C 245.5,216.833 245.5,213.167 245.5,209.5C 245.5,208.167 245.5,206.833 245.5,205.5C 245.5,204.167 245.5,202.833 245.5,201.5C 246.495,189.345 246.829,177.011 246.5,164.5C 246.5,159.167 246.5,153.833 246.5,148.5C 246.5,139.167 246.5,129.833 246.5,120.5C 246.5,118.833 246.5,117.167 246.5,115.5C 246.5,114.167 246.5,112.833 246.5,111.5C 246.5,106.5 246.5,101.5 246.5,96.5C 246.785,94.712 246.452,93.0453 245.5,91.5C 242.284,90.0626 239.284,88.3959 236.5,86.5C 227.439,75.818 223.273,63.4846 224,49.5C 225.463,46.2033 227.963,44.2033 231.5,43.5C 235.969,44.3175 239.802,46.3175 243,49.5C 246.194,54.5545 248.861,59.8878 251,65.5C 254.448,60.0516 258.615,55.2183 263.5,51C 269.31,46.7711 275.144,46.6044 281,50.5C 284.127,56.4508 284.127,62.4508 281,68.5C 277.422,75.8961 272.589,82.2294 266.5,87.5 Z M 232.5,52.5 C 236.883,55.3991 240.049,59.3991 242,64.5C 243.646,68.8783 244.813,73.3783 245.5,78C 245.138,79.2247 244.638,80.3914 244,81.5C 235.713,73.4511 231.88,63.7844 232.5,52.5 Z M 271.5,55.5 C 272.5,55.5 273.5,55.5 274.5,55.5C 273.58,69.3382 266.747,79.0048 254,84.5C 253.5,84.3333 253,84.1667 252.5,84C 255.215,72.064 261.549,62.564 271.5,55.5 Z"/></g>
<g><path style="opacity:0.911" fill="#3d535e" d="M 331.5,79.5 C 327.629,100.856 323.629,122.189 319.5,143.5C 313.5,175.167 307.5,206.833 301.5,238.5C 299.283,239.369 296.95,239.702 294.5,239.5C 295.369,237.283 295.702,234.95 295.5,232.5C 306.323,181.388 316.656,130.054 326.5,78.5C 328.292,78.366 329.958,78.6993 331.5,79.5 Z"/></g>
<g><path style="opacity:0.981" fill="#558dae" d="M 331.5,79.5 C 352.513,86.9223 373.013,95.5889 393,105.5C 393.865,107.888 393.032,109.388 390.5,110C 376.847,112.22 363.18,114.22 349.5,116C 352.273,121.104 355.44,125.937 359,130.5C 364.367,135.532 369.367,140.865 374,146.5C 375.009,148.025 375.509,149.692 375.5,151.5C 356.745,149.485 338.078,146.819 319.5,143.5C 323.629,122.189 327.629,100.856 331.5,79.5 Z"/></g>
<g><path style="opacity:0.912" fill="#fbeef2" d="M 197.5,85.5 C 198.084,88.285 197.084,89.9517 194.5,90.5C 194.5,88.8333 194.5,87.1667 194.5,85.5C 195.5,85.5 196.5,85.5 197.5,85.5 Z"/></g>
<g><path style="opacity:0.969" fill="#fe1e3d" d="M 197.5,85.5 C 198.167,85.5 198.833,85.5 199.5,85.5C 201.374,89.1654 202.707,89.1654 203.5,85.5C 214.499,85.8725 225.499,86.2058 236.5,86.5C 239.284,88.3959 242.284,90.0626 245.5,91.5C 246.452,93.0453 246.785,94.712 246.5,96.5C 244.442,98.9266 242.609,101.593 241,104.5C 239.667,101.833 238.333,99.1667 237,96.5C 235.989,95.6634 234.822,95.33 233.5,95.5C 233.912,99.6536 234.912,103.654 236.5,107.5C 233.415,107.542 231.081,108.875 229.5,111.5C 230.966,113.657 232.8,113.99 235,112.5C 235.692,113.437 235.525,114.103 234.5,114.5C 226.833,114.5 219.167,114.5 211.5,114.5C 210.513,112.527 209.513,110.527 208.5,108.5C 210.872,107.653 212.872,106.319 214.5,104.5C 213.619,103.029 212.286,102.196 210.5,102C 212.795,99.2432 213.795,96.0765 213.5,92.5C 212.127,92.3433 210.793,92.51 209.5,93C 207.554,95.6748 205.887,98.5081 204.5,101.5C 202.684,100.185 201.017,98.6851 199.5,97C 198.552,96.5172 197.552,96.3505 196.5,96.5C 196.351,97.552 196.517,98.552 197,99.5C 198.685,101.017 200.185,102.684 201.5,104.5C 199.774,106.228 198.441,108.228 197.5,110.5C 199.843,111.725 201.677,111.059 203,108.5C 203.791,109.745 204.291,111.078 204.5,112.5C 204.672,113.492 204.338,114.158 203.5,114.5C 200.5,114.5 197.5,114.5 194.5,114.5C 194.5,106.5 194.5,98.5 194.5,90.5C 197.084,89.9517 198.084,88.285 197.5,85.5 Z"/></g>
<g><path style="opacity:0.924" fill="#fce2e7" d="M 199.5,85.5 C 200.833,85.5 202.167,85.5 203.5,85.5C 202.707,89.1654 201.374,89.1654 199.5,85.5 Z"/></g>
<g><path style="opacity:0.982" fill="#fe1b3b" d="M 266.5,87.5 C 267.492,87.3284 268.158,87.6618 268.5,88.5C 266.87,90.0261 266.037,92.0261 266,94.5C 265.204,98.7548 265.371,102.921 266.5,107C 268.409,107.448 269.576,106.615 270,104.5C 271.073,100.916 271.74,97.2498 272,93.5C 274.406,98.433 278.24,101.1 283.5,101.5C 283.44,97.38 281.773,94.0467 278.5,91.5C 280.184,90.8503 281.517,89.8503 282.5,88.5C 289.49,88.9991 296.49,89.3325 303.5,89.5C 304.107,98.4875 304.44,107.487 304.5,116.5C 300.833,116.5 297.167,116.5 293.5,116.5C 280.01,115.504 266.344,115.171 252.5,115.5C 252.222,107.83 251.889,100.164 251.5,92.5C 256.973,92.2312 261.973,90.5645 266.5,87.5 Z"/></g>
<g><path style="opacity:0.981" fill="#faf4f7" d="M 268.5,88.5 C 273.167,88.5 277.833,88.5 282.5,88.5C 281.517,89.8503 280.184,90.8503 278.5,91.5C 281.773,94.0467 283.44,97.38 283.5,101.5C 278.24,101.1 274.406,98.433 272,93.5C 271.74,97.2498 271.073,100.916 270,104.5C 269.576,106.615 268.409,107.448 266.5,107C 265.371,102.921 265.204,98.7548 266,94.5C 266.037,92.0261 266.87,90.0261 268.5,88.5 Z"/></g>
<g><path style="opacity:1" fill="#fbf1f5" d="M 211.5,114.5 C 211.778,116.346 211.111,117.68 209.5,118.5C 207.348,116.838 205.682,114.838 204.5,112.5C 204.291,111.078 203.791,109.745 203,108.5C 201.677,111.059 199.843,111.725 197.5,110.5C 198.441,108.228 199.774,106.228 201.5,104.5C 200.185,102.684 198.685,101.017 197,99.5C 196.517,98.552 196.351,97.552 196.5,96.5C 197.552,96.3505 198.552,96.5172 199.5,97C 201.017,98.6851 202.684,100.185 204.5,101.5C 205.887,98.5081 207.554,95.6748 209.5,93C 210.793,92.51 212.127,92.3433 213.5,92.5C 213.795,96.0765 212.795,99.2432 210.5,102C 212.286,102.196 213.619,103.029 214.5,104.5C 212.872,106.319 210.872,107.653 208.5,108.5C 209.513,110.527 210.513,112.527 211.5,114.5 Z"/></g>
<g><path style="opacity:1" fill="#fbf3f6" d="M 246.5,96.5 C 246.5,101.5 246.5,106.5 246.5,111.5C 245.624,111.369 244.957,111.702 244.5,112.5C 244.942,113.739 245.609,114.739 246.5,115.5C 246.5,117.167 246.5,118.833 246.5,120.5C 243.635,119.809 241.468,118.142 240,115.5C 239.64,117.608 238.973,119.608 238,121.5C 236.989,122.337 235.822,122.67 234.5,122.5C 234.5,119.833 234.5,117.167 234.5,114.5C 235.525,114.103 235.692,113.437 235,112.5C 232.8,113.99 230.966,113.657 229.5,111.5C 231.081,108.875 233.415,107.542 236.5,107.5C 234.912,103.654 233.912,99.6536 233.5,95.5C 234.822,95.33 235.989,95.6634 237,96.5C 238.333,99.1667 239.667,101.833 241,104.5C 242.609,101.593 244.442,98.9266 246.5,96.5 Z"/></g>
<g><path style="opacity:1" fill="#ff4558" d="M 246.5,111.5 C 246.5,112.833 246.5,114.167 246.5,115.5C 245.609,114.739 244.942,113.739 244.5,112.5C 244.957,111.702 245.624,111.369 246.5,111.5 Z"/></g>
<g><path style="opacity:0.993" fill="#fe5066" d="M 204.5,112.5 C 205.682,114.838 207.348,116.838 209.5,118.5C 211.111,117.68 211.778,116.346 211.5,114.5C 219.167,114.5 226.833,114.5 234.5,114.5C 234.5,117.167 234.5,119.833 234.5,122.5C 235.822,122.67 236.989,122.337 238,121.5C 238.973,119.608 239.64,117.608 240,115.5C 241.468,118.142 243.635,119.809 246.5,120.5C 246.5,129.833 246.5,139.167 246.5,148.5C 242.529,150.719 239.696,154.052 238,158.5C 237.202,155.107 236.202,151.774 235,148.5C 232.524,146.937 231.024,147.604 230.5,150.5C 231.203,153.441 232.203,156.275 233.5,159C 231.273,160.706 229.106,162.54 227,164.5C 226.517,165.448 226.351,166.448 226.5,167.5C 229.157,167.838 231.49,167.171 233.5,165.5C 234.819,169.108 235.986,172.775 237,176.5C 238.333,177.833 239.667,177.833 241,176.5C 241.498,173.183 241.665,169.85 241.5,166.5C 242.568,165.566 243.901,165.232 245.5,165.5C 245.5,177.5 245.5,189.5 245.5,201.5C 245.5,202.833 245.5,204.167 245.5,205.5C 243.856,205.286 242.356,205.62 241,206.5C 239.257,209.957 238.257,213.623 238,217.5C 236.927,215.453 235.761,213.453 234.5,211.5C 233.675,210.614 232.675,210.281 231.5,210.5C 232.194,214.39 233.86,217.89 236.5,221C 232.689,224.094 231.356,227.927 232.5,232.5C 234.761,231.318 236.595,229.651 238,227.5C 239.791,231.439 242.291,234.772 245.5,237.5C 245.5,238.5 245.5,239.5 245.5,240.5C 243.735,241.461 241.735,241.795 239.5,241.5C 229.327,240.425 218.994,240.425 208.5,241.5C 208.5,240.5 208.5,239.5 208.5,238.5C 208.5,237.833 208.5,237.167 208.5,236.5C 208.5,235.833 208.5,235.167 208.5,234.5C 211.59,235.17 213.257,234.003 213.5,231C 212.591,227.444 211.591,223.944 210.5,220.5C 215.542,221.495 217.875,219.495 217.5,214.5C 215.304,214.435 213.304,213.768 211.5,212.5C 213.969,209.622 214.636,206.455 213.5,203C 210.16,202.176 207.827,203.343 206.5,206.5C 206.5,199.5 206.5,192.5 206.5,185.5C 208.044,185.297 209.378,184.63 210.5,183.5C 211.489,186.438 212.156,189.438 212.5,192.5C 213.833,192.5 215.167,192.5 216.5,192.5C 216.5,189.5 216.5,186.5 216.5,183.5C 219.311,183.174 221.978,182.341 224.5,181C 225.337,179.989 225.67,178.822 225.5,177.5C 223.143,177.663 220.81,177.497 218.5,177C 221.045,173.683 221.045,170.516 218.5,167.5C 215.09,169.976 212.924,173.31 212,177.5C 211.484,174.966 210.317,172.8 208.5,171C 207.423,170.53 206.423,170.697 205.5,171.5C 204.887,161.512 204.553,151.512 204.5,141.5C 207.369,146.039 211.369,149.039 216.5,150.5C 216.662,148.473 216.495,146.473 216,144.5C 214.315,142.983 212.815,141.316 211.5,139.5C 218.939,137.58 222.772,132.913 223,125.5C 220.936,124.409 218.769,124.242 216.5,125C 213.02,127.646 209.686,130.479 206.5,133.5C 205.792,131.255 204.792,129.255 203.5,127.5C 203.5,123.167 203.5,118.833 203.5,114.5C 204.338,114.158 204.672,113.492 204.5,112.5 Z"/></g>
<g><path style="opacity:0.992" fill="#fe4f65" d="M 252.5,115.5 C 266.344,115.171 280.01,115.504 293.5,116.5C 294.382,143.156 294.716,169.822 294.5,196.5C 293.849,197.091 293.182,197.757 292.5,198.5C 291.352,196.851 290.019,195.351 288.5,194C 287.551,193.383 286.718,193.549 286,194.5C 285.323,198.165 286.156,201.499 288.5,204.5C 286.613,206.04 284.78,207.707 283,209.5C 282.517,210.448 282.351,211.448 282.5,212.5C 285.785,212.731 288.285,211.397 290,208.5C 290.822,210.788 291.489,213.122 292,215.5C 292.377,216.942 293.21,217.942 294.5,218.5C 295.127,223.141 295.46,227.807 295.5,232.5C 295.702,234.95 295.369,237.283 294.5,239.5C 287.167,239.5 279.833,239.5 272.5,239.5C 272.78,236.728 272.113,234.228 270.5,232C 273.823,231.517 276.49,230.017 278.5,227.5C 277.68,225.889 276.346,225.222 274.5,225.5C 275.677,222.636 276.677,219.636 277.5,216.5C 276.714,213.025 275.214,212.692 273,215.5C 271.725,217.717 270.725,220.051 270,222.5C 269.964,220.059 269.131,218.059 267.5,216.5C 266.682,219.107 266.182,221.774 266,224.5C 264.981,223.313 263.814,222.313 262.5,221.5C 261.598,224.56 262.598,227.06 265.5,229C 263.552,230.439 262.219,232.272 261.5,234.5C 261.833,235.167 262.167,235.833 262.5,236.5C 263.814,235.687 264.981,234.687 266,233.5C 266.938,235.488 267.772,237.488 268.5,239.5C 265.713,240.477 262.713,240.81 259.5,240.5C 259.609,225.792 258.943,211.126 257.5,196.5C 259.346,196.778 260.68,196.111 261.5,194.5C 260.68,192.889 259.346,192.222 257.5,192.5C 256.081,166.895 254.415,141.229 252.5,115.5 Z"/></g>
<g><path style="opacity:1" fill="#fbf2f5" d="M 283.5,119.5 C 284.822,119.33 285.989,119.663 287,120.5C 287.43,123.192 287.263,125.859 286.5,128.5C 288.199,128.34 289.866,128.506 291.5,129C 292.517,130.049 292.684,131.216 292,132.5C 289.413,134.196 286.579,135.196 283.5,135.5C 283.664,138.187 283.497,140.854 283,143.5C 281.286,144.925 279.953,144.592 279,142.5C 278.489,140.122 277.822,137.788 277,135.5C 274.975,137.693 272.475,138.693 269.5,138.5C 269.351,137.448 269.517,136.448 270,135.5C 272.158,134.174 273.992,132.507 275.5,130.5C 273.499,128.513 272.665,126.18 273,123.5C 273.718,122.549 274.551,122.383 275.5,123C 277.041,124.579 278.208,126.413 279,128.5C 280.033,125.216 281.533,122.216 283.5,119.5 Z"/></g>
<g><path style="opacity:0.987" fill="#faf7f9" d="M 204.5,141.5 C 204.002,136.848 203.669,132.181 203.5,127.5C 204.792,129.255 205.792,131.255 206.5,133.5C 209.686,130.479 213.02,127.646 216.5,125C 218.769,124.242 220.936,124.409 223,125.5C 222.772,132.913 218.939,137.58 211.5,139.5C 212.815,141.316 214.315,142.983 216,144.5C 216.495,146.473 216.662,148.473 216.5,150.5C 211.369,149.039 207.369,146.039 204.5,141.5 Z"/></g>
<g><path style="opacity:1" fill="#f8f2f6" d="M 246.5,148.5 C 246.5,153.833 246.5,159.167 246.5,164.5C 244.396,164.201 242.396,164.534 240.5,165.5C 240.624,166.107 240.957,166.44 241.5,166.5C 241.665,169.85 241.498,173.183 241,176.5C 239.667,177.833 238.333,177.833 237,176.5C 235.986,172.775 234.819,169.108 233.5,165.5C 231.49,167.171 229.157,167.838 226.5,167.5C 226.351,166.448 226.517,165.448 227,164.5C 229.106,162.54 231.273,160.706 233.5,159C 232.203,156.275 231.203,153.441 230.5,150.5C 231.024,147.604 232.524,146.937 235,148.5C 236.202,151.774 237.202,155.107 238,158.5C 239.696,154.052 242.529,150.719 246.5,148.5 Z"/></g>
<g><path style="opacity:1" fill="#fbf3f6" d="M 277.5,153.5 C 279.818,153.818 281.152,155.152 281.5,157.5C 280.82,160.36 279.487,162.86 277.5,165C 279.167,165.333 280.833,165.667 282.5,166C 284.658,167.312 284.991,168.978 283.5,171C 281.564,171.813 279.564,172.313 277.5,172.5C 278.454,175.418 279.121,178.418 279.5,181.5C 280.159,185.687 278.659,187.02 275,185.5C 273.401,182.199 271.901,178.865 270.5,175.5C 268.476,178.206 265.81,179.539 262.5,179.5C 262.351,178.448 262.517,177.448 263,176.5C 265.35,174.317 267.517,171.984 269.5,169.5C 266.244,166.913 264.244,163.58 263.5,159.5C 267.295,160.444 270.129,162.777 272,166.5C 272.023,161.225 273.857,156.892 277.5,153.5 Z"/></g>
<g><path style="opacity:0.983" fill="#faf7fa" d="M 206.5,185.5 C 205.766,184.292 205.433,182.959 205.5,181.5C 210.217,179.735 210.217,177.402 205.5,174.5C 205.5,173.5 205.5,172.5 205.5,171.5C 206.423,170.697 207.423,170.53 208.5,171C 210.317,172.8 211.484,174.966 212,177.5C 212.924,173.31 215.09,169.976 218.5,167.5C 221.045,170.516 221.045,173.683 218.5,177C 220.81,177.497 223.143,177.663 225.5,177.5C 225.67,178.822 225.337,179.989 224.5,181C 221.978,182.341 219.311,183.174 216.5,183.5C 216.5,186.5 216.5,189.5 216.5,192.5C 215.167,192.5 213.833,192.5 212.5,192.5C 212.156,189.438 211.489,186.438 210.5,183.5C 209.378,184.63 208.044,185.297 206.5,185.5 Z"/></g>
<g><path style="opacity:0.863" fill="#ff5f71" d="M 205.5,174.5 C 210.217,177.402 210.217,179.735 205.5,181.5C 205.5,179.167 205.5,176.833 205.5,174.5 Z"/></g>
<g><path style="opacity:0.964" fill="#fe1a3b" d="M 207.5,218.5 C 208.449,223.74 208.782,229.073 208.5,234.5C 208.5,235.167 208.5,235.833 208.5,236.5C 207.833,236.5 207.5,236.833 207.5,237.5C 198.239,244.462 187.906,249.295 176.5,252C 164.186,253.771 152.853,251.271 142.5,244.5C 141.958,252.918 142.624,261.252 144.5,269.5C 144.342,272.902 144.676,276.236 145.5,279.5C 146.021,283.481 146.354,287.481 146.5,291.5C 146.705,296.272 147.372,300.938 148.5,305.5C 148.323,309.234 148.656,312.901 149.5,316.5C 149.908,324.051 150.908,331.384 152.5,338.5C 152.395,342.548 152.728,346.548 153.5,350.5C 153.782,356.021 154.449,361.354 155.5,366.5C 155.244,370.269 155.577,373.936 156.5,377.5C 156.5,380.167 156.5,382.833 156.5,385.5C 149.352,386.492 142.019,386.825 134.5,386.5C 134.828,374.655 134.495,362.988 133.5,351.5C 133.5,347.833 133.5,344.167 133.5,340.5C 133.826,331.983 133.493,323.65 132.5,315.5C 132.5,311.833 132.5,308.167 132.5,304.5C 132.5,300.167 132.5,295.833 132.5,291.5C 132.5,287.5 132.5,283.5 132.5,279.5C 132.5,275.833 132.5,272.167 132.5,268.5C 132.831,259.808 132.498,251.141 131.5,242.5C 117.621,247.578 103.287,250.245 88.5,250.5C 79.2905,251.58 71.4572,248.913 65,242.5C 63.7606,234.387 67.2606,229.554 75.5,228C 87.4681,226.941 99.4681,226.108 111.5,225.5C 102.331,216.504 94.4978,206.504 88,195.5C 85.58,189.956 86.08,184.789 89.5,180C 96.5812,178.805 102.914,180.471 108.5,185C 121.105,195.588 129.605,208.755 134,224.5C 140.709,206.895 152.543,194.062 169.5,186C 175.167,184 180.833,184 186.5,186C 190.259,189.743 191.426,194.243 190,199.5C 186.106,208.408 180.272,215.908 172.5,222C 179.078,220.693 185.745,219.36 192.5,218C 197.537,217.337 202.537,217.504 207.5,218.5 Z M 97.5,190.5 C 103.628,193.113 108.795,197.113 113,202.5C 117.445,208.724 120.779,215.391 123,222.5C 116.024,215.856 109.357,208.856 103,201.5C 100.628,198.09 98.7951,194.423 97.5,190.5 Z M 142.5,230.5 C 147.72,213.779 158.386,201.946 174.5,195C 176.579,194.192 178.579,194.359 180.5,195.5C 172.248,212.09 159.581,223.757 142.5,230.5 Z M 191.5,237.5 C 181.842,236.971 172.175,236.638 162.5,236.5C 174.732,230.253 187.732,227.587 201.5,228.5C 198.743,232.263 195.41,235.263 191.5,237.5 Z M 88.5,235.5 C 88.5,237.5 88.5,239.5 88.5,241.5C 72.6446,239.781 72.6446,237.781 88.5,235.5 Z"/></g>
<g><path style="opacity:1" fill="#faf2f5" d="M 257.5,192.5 C 259.346,192.222 260.68,192.889 261.5,194.5C 260.68,196.111 259.346,196.778 257.5,196.5C 257.5,195.167 257.5,193.833 257.5,192.5 Z"/></g>
<g><path style="opacity:0.977" fill="#faf4f7" d="M 294.5,196.5 C 294.5,203.833 294.5,211.167 294.5,218.5C 293.21,217.942 292.377,216.942 292,215.5C 291.489,213.122 290.822,210.788 290,208.5C 288.285,211.397 285.785,212.731 282.5,212.5C 282.351,211.448 282.517,210.448 283,209.5C 284.78,207.707 286.613,206.04 288.5,204.5C 286.156,201.499 285.323,198.165 286,194.5C 286.718,193.549 287.551,193.383 288.5,194C 290.019,195.351 291.352,196.851 292.5,198.5C 293.182,197.757 293.849,197.091 294.5,196.5 Z"/></g>
<g><path style="opacity:1" fill="#977995" d="M 246.5,164.5 C 246.829,177.011 246.495,189.345 245.5,201.5C 245.5,189.5 245.5,177.5 245.5,165.5C 243.901,165.232 242.568,165.566 241.5,166.5C 240.957,166.44 240.624,166.107 240.5,165.5C 242.396,164.534 244.396,164.201 246.5,164.5 Z"/></g>
<g><path style="opacity:0.967" fill="#fbf4f6" d="M 208.5,234.5 C 208.782,229.073 208.449,223.74 207.5,218.5C 207.605,214.452 207.272,210.452 206.5,206.5C 207.827,203.343 210.16,202.176 213.5,203C 214.636,206.455 213.969,209.622 211.5,212.5C 213.304,213.768 215.304,214.435 217.5,214.5C 217.875,219.495 215.542,221.495 210.5,220.5C 211.591,223.944 212.591,227.444 213.5,231C 213.257,234.003 211.59,235.17 208.5,234.5 Z"/></g>
<g><path style="opacity:0.959" fill="#fe4e64" d="M 385.5,247.5 C 376.029,247.072 366.696,245.739 357.5,243.5C 357.5,248.833 357.5,254.167 357.5,259.5C 357.5,268.5 357.5,277.5 357.5,286.5C 356.504,301.991 356.17,317.658 356.5,333.5C 353.753,333.187 351.086,333.52 348.5,334.5C 346.313,339.706 345.98,345.039 347.5,350.5C 347.132,351.91 346.299,352.91 345,353.5C 344.832,345.994 341.665,340.16 335.5,336C 324.622,332.105 317.622,335.605 314.5,346.5C 316.369,356.364 322.369,361.697 332.5,362.5C 329.416,365.375 325.749,367.209 321.5,368C 316.511,368.499 311.511,368.666 306.5,368.5C 307.963,364.895 309.463,361.229 311,357.5C 312.497,346.192 307.997,338.526 297.5,334.5C 312.464,333.549 327.464,333.215 342.5,333.5C 345.093,308.826 347.76,284.159 350.5,259.5C 351.336,254.166 351.836,248.833 352,243.5C 344.799,248.084 336.966,249.584 328.5,248C 322.003,245.587 316.003,242.42 310.5,238.5C 306.641,230.226 309.308,226.226 318.5,226.5C 322.188,226.947 325.854,227.114 329.5,227C 322.805,221.927 320.805,215.593 323.5,208C 328.987,205.815 334.32,206.149 339.5,209C 346.7,214.204 352.534,220.704 357,228.5C 359.578,219.166 364.744,211.666 372.5,206C 376.636,203.06 380.803,202.56 385,204.5C 386.925,209.439 386.259,214.106 383,218.5C 379.5,222.667 376,226.833 372.5,231C 379.563,231.16 386.563,231.827 393.5,233C 400.666,236.33 401.333,240.663 395.5,246C 392.274,247.199 388.941,247.699 385.5,247.5 Z M 376.5,213.5 C 373.633,217.909 370.299,221.909 366.5,225.5C 368.04,219.964 371.373,215.964 376.5,213.5 Z M 330.5,214.5 C 333.928,214.547 336.928,215.713 339.5,218C 343.939,222.438 347.606,227.438 350.5,233C 341.225,229.829 334.559,223.662 330.5,214.5 Z M 336.5,238.5 C 331.833,238.5 327.167,238.5 322.5,238.5C 320.73,237.236 319.063,235.736 317.5,234C 324.219,234.097 330.552,235.597 336.5,238.5 Z"/></g>
<g><path style="opacity:1" fill="#f9f3f6" d="M 245.5,205.5 C 245.5,206.833 245.5,208.167 245.5,209.5C 243.792,212.95 242.459,216.617 241.5,220.5C 242.833,220.5 244.167,220.5 245.5,220.5C 245.5,222.167 245.5,223.833 245.5,225.5C 244.35,224.15 243.683,224.316 243.5,226C 243.808,227.459 244.475,228.626 245.5,229.5C 245.5,232.167 245.5,234.833 245.5,237.5C 242.291,234.772 239.791,231.439 238,227.5C 236.595,229.651 234.761,231.318 232.5,232.5C 231.356,227.927 232.689,224.094 236.5,221C 233.86,217.89 232.194,214.39 231.5,210.5C 232.675,210.281 233.675,210.614 234.5,211.5C 235.761,213.453 236.927,215.453 238,217.5C 238.257,213.623 239.257,209.957 241,206.5C 242.356,205.62 243.856,205.286 245.5,205.5 Z"/></g>
<g><path style="opacity:1" fill="#fe5369" d="M 245.5,209.5 C 245.5,213.167 245.5,216.833 245.5,220.5C 244.167,220.5 242.833,220.5 241.5,220.5C 242.459,216.617 243.792,212.95 245.5,209.5 Z"/></g>
<g><path style="opacity:1" fill="#faf3f6" d="M 272.5,239.5 C 271.167,239.5 269.833,239.5 268.5,239.5C 267.772,237.488 266.938,235.488 266,233.5C 264.981,234.687 263.814,235.687 262.5,236.5C 262.167,235.833 261.833,235.167 261.5,234.5C 262.219,232.272 263.552,230.439 265.5,229C 262.598,227.06 261.598,224.56 262.5,221.5C 263.814,222.313 264.981,223.313 266,224.5C 266.182,221.774 266.682,219.107 267.5,216.5C 269.131,218.059 269.964,220.059 270,222.5C 270.725,220.051 271.725,217.717 273,215.5C 275.214,212.692 276.714,213.025 277.5,216.5C 276.677,219.636 275.677,222.636 274.5,225.5C 276.346,225.222 277.68,225.889 278.5,227.5C 276.49,230.017 273.823,231.517 270.5,232C 272.113,234.228 272.78,236.728 272.5,239.5 Z"/></g>
<g><path style="opacity:1" fill="#f26075" d="M 245.5,225.5 C 245.5,226.833 245.5,228.167 245.5,229.5C 244.475,228.626 243.808,227.459 243.5,226C 243.683,224.316 244.35,224.15 245.5,225.5 Z"/></g>
<g><path style="opacity:0.988" fill="#81aac3" d="M 88.5,235.5 C 99.2158,235.156 109.882,235.656 120.5,237C 109.851,240.169 99.1843,241.669 88.5,241.5C 88.5,239.5 88.5,237.5 88.5,235.5 Z"/></g>
<g><path style="opacity:0.939" fill="#81aac3" d="M 162.5,236.5 C 172.175,236.638 181.842,236.971 191.5,237.5C 181.609,243.047 170.942,244.88 159.5,243C 156.279,242.389 153.279,241.222 150.5,239.5C 154.254,237.561 158.254,236.561 162.5,236.5 Z"/></g>
<g><path style="opacity:0.992" fill="#7baec7" d="M 207.5,237.5 C 207.5,238.167 207.833,238.5 208.5,238.5C 208.5,239.5 208.5,240.5 208.5,241.5C 218.994,240.425 229.327,240.425 239.5,241.5C 239.5,251.167 239.5,260.833 239.5,270.5C 238.5,270.5 237.5,270.5 236.5,270.5C 205.907,269.508 175.24,269.175 144.5,269.5C 142.624,261.252 141.958,252.918 142.5,244.5C 152.853,251.271 164.186,253.771 176.5,252C 187.906,249.295 198.239,244.462 207.5,237.5 Z"/></g>
<g><path style="opacity:0.992" fill="#3ccaad" d="M 301.5,238.5 C 304.5,238.5 307.5,238.5 310.5,238.5C 316.003,242.42 322.003,245.587 328.5,248C 336.966,249.584 344.799,248.084 352,243.5C 351.836,248.833 351.336,254.166 350.5,259.5C 318.833,259.5 287.167,259.5 255.5,259.5C 253.544,253.588 252.877,247.255 253.5,240.5C 255.5,240.5 257.5,240.5 259.5,240.5C 262.713,240.81 265.713,240.477 268.5,239.5C 269.833,239.5 271.167,239.5 272.5,239.5C 279.833,239.5 287.167,239.5 294.5,239.5C 296.95,239.702 299.283,239.369 301.5,238.5 Z"/></g>
<g><path style="opacity:0.943" fill="#57bfa7" d="M 322.5,238.5 C 327.167,238.5 331.833,238.5 336.5,238.5C 339.271,238.421 341.937,238.921 344.5,240C 336.858,243.576 329.525,243.076 322.5,238.5 Z"/></g>
<g><path style="opacity:0.987" fill="#4bc2aa" d="M 368.5,239.5 C 373.975,238.511 379.642,238.178 385.5,238.5C 385.5,239.5 385.5,240.5 385.5,241.5C 379.767,241.353 374.1,240.686 368.5,239.5 Z"/></g>
<g><path style="opacity:0.992" fill="#7baec7" d="M 132.5,268.5 C 123.167,268.5 113.833,268.5 104.5,268.5C 99.5,268.5 94.5,268.5 89.5,268.5C 89.299,262.491 88.9657,256.491 88.5,250.5C 103.287,250.245 117.621,247.578 131.5,242.5C 132.498,251.141 132.831,259.808 132.5,268.5 Z"/></g>
<g><path style="opacity:0.979" fill="#40c9ac" d="M 385.5,247.5 C 385.759,251.24 385.426,254.906 384.5,258.5C 381.572,259.484 378.572,259.817 375.5,259.5C 369.5,259.5 363.5,259.5 357.5,259.5C 357.5,254.167 357.5,248.833 357.5,243.5C 366.696,245.739 376.029,247.072 385.5,247.5 Z"/></g>
<g><path style="opacity:0.918" fill="#3d535d" d="M 89.5,356.5 C 88.6955,359.442 87.3622,362.109 85.5,364.5C 81.6771,349.542 78.0105,334.542 74.5,319.5C 69.9245,298.196 64.5911,277.196 58.5,256.5C 60.1016,254.926 62.1016,254.259 64.5,254.5C 73.1473,288.423 81.4806,322.423 89.5,356.5 Z"/></g>
<g><path style="opacity:0.971" fill="#fdb934" d="M 58.5,256.5 C 64.5911,277.196 69.9245,298.196 74.5,319.5C 56.5111,323.331 38.5111,326.831 20.5,330C 19.4464,328.612 19.2797,327.112 20,325.5C 26,318.167 32,310.833 38,303.5C 40.2307,300.205 42.0641,296.705 43.5,293C 28.7655,291.979 14.0988,290.479 -0.5,288.5C -0.5,287.167 -0.5,285.833 -0.5,284.5C 18.5254,273.821 38.1921,264.487 58.5,256.5 Z"/></g>
<g><path style="opacity:0.993" fill="#feb934" d="M 255.5,259.5 C 287.167,259.5 318.833,259.5 350.5,259.5C 347.76,284.159 345.093,308.826 342.5,333.5C 327.464,333.215 312.464,333.549 297.5,334.5C 295.167,334.5 292.833,334.5 290.5,334.5C 287.833,334.5 285.167,334.5 282.5,334.5C 272.19,335.339 261.857,335.672 251.5,335.5C 253.129,310.185 254.462,284.851 255.5,259.5 Z"/></g>
<g><path style="opacity:0.981" fill="#feba34" d="M 357.5,259.5 C 363.5,259.5 369.5,259.5 375.5,259.5C 375.098,268.532 374.431,277.532 373.5,286.5C 367.174,286.16 364.174,289.16 364.5,295.5C 365.628,303.216 367.961,310.55 371.5,317.5C 370.833,322.5 370.167,327.5 369.5,332.5C 365.5,332.5 361.5,332.5 357.5,332.5C 357.5,317.167 357.5,301.833 357.5,286.5C 357.5,277.5 357.5,268.5 357.5,259.5 Z"/></g>
<g><path style="opacity:0.993" fill="#568eaf" d="M 104.5,268.5 C 113.833,268.5 123.167,268.5 132.5,268.5C 132.5,272.167 132.5,275.833 132.5,279.5C 123.5,279.5 114.5,279.5 105.5,279.5C 104.577,275.936 104.244,272.269 104.5,268.5 Z"/></g>
<g><path style="opacity:1" fill="#fafbf9" d="M 322.5,268.5 C 328.176,268.334 333.843,268.501 339.5,269C 342.556,272.445 341.89,274.778 337.5,276C 331.833,276.667 326.167,276.667 320.5,276C 318.717,274.933 318.217,273.433 319,271.5C 320.145,270.364 321.312,269.364 322.5,268.5 Z"/></g>
<g><path style="opacity:0.999" fill="#568eaf" d="M 144.5,269.5 C 175.24,269.175 205.907,269.508 236.5,270.5C 236.5,273.5 236.5,276.5 236.5,279.5C 206.167,279.5 175.833,279.5 145.5,279.5C 144.676,276.236 144.342,272.902 144.5,269.5 Z"/></g>
<g><path style="opacity:0.969" fill="#0cae91" d="M 401.5,332.5 C 400.508,332.328 399.842,332.662 399.5,333.5C 398.504,333.414 397.671,333.748 397,334.5C 396.667,339.174 396.833,343.84 397.5,348.5C 397.894,355.496 398.227,362.496 398.5,369.5C 398.187,373.042 398.521,376.375 399.5,379.5C 399.5,381.5 399.5,383.5 399.5,385.5C 399.187,389.042 399.521,392.375 400.5,395.5C 400.5,397.5 400.5,399.5 400.5,401.5C 401.092,404.127 401.425,406.794 401.5,409.5C 402.574,426.829 403.574,444.162 404.5,461.5C 404.5,462.167 404.5,462.833 404.5,463.5C 400.5,463.5 396.5,463.5 392.5,463.5C 392.5,463.167 392.5,462.833 392.5,462.5C 392.5,457.833 392.5,453.167 392.5,448.5C 392.5,444.5 392.5,440.5 392.5,436.5C 392.5,434.833 392.5,433.167 392.5,431.5C 392.5,425.167 392.5,418.833 392.5,412.5C 392.829,399.989 392.495,387.655 391.5,375.5C 391.5,373.833 391.5,372.167 391.5,370.5C 391.832,358.482 391.499,346.482 390.5,334.5C 388.677,333.253 386.677,332.586 384.5,332.5C 379.764,327.77 375.431,322.77 371.5,317.5C 367.961,310.55 365.628,303.216 364.5,295.5C 364.174,289.16 367.174,286.16 373.5,286.5C 375.716,287.203 377.549,288.536 379,290.5C 382.186,294.873 384.853,299.54 387,304.5C 388.023,293.708 390.69,283.375 395,273.5C 398.448,269.209 402.448,268.542 407,271.5C 409.184,274.866 410.517,278.533 411,282.5C 412.442,296.126 411.109,309.459 407,322.5C 405.408,326.021 403.575,329.354 401.5,332.5 Z M 401.5,281.5 C 404.287,296.25 402.454,310.584 396,324.5C 394.098,309.624 395.931,295.291 401.5,281.5 Z M 373.5,298.5 C 377.105,303.281 379.771,308.614 381.5,314.5C 377.266,310.032 374.599,304.699 373.5,298.5 Z"/></g>
<g><path style="opacity:1" fill="#fafbfa" d="M 300.5,270.5 C 303.85,270.335 307.183,270.502 310.5,271C 312.013,273.454 311.346,275.121 308.5,276C 305.833,276.667 303.167,276.667 300.5,276C 297.982,274.19 297.982,272.357 300.5,270.5 Z"/></g>
<g><path style="opacity:0.985" fill="#f2f7fb" d="M 105.5,279.5 C 114.5,279.5 123.5,279.5 132.5,279.5C 132.5,283.5 132.5,287.5 132.5,291.5C 123.5,291.5 114.5,291.5 105.5,291.5C 105.5,287.5 105.5,283.5 105.5,279.5 Z"/></g>
<g><path style="opacity:0.996" fill="#f2f7fb" d="M 145.5,279.5 C 175.833,279.5 206.167,279.5 236.5,279.5C 236.505,283.534 236.838,287.534 237.5,291.5C 207.167,291.5 176.833,291.5 146.5,291.5C 146.354,287.481 146.021,283.481 145.5,279.5 Z"/></g>
<g><path style="opacity:1" fill="#faf9f3" d="M 317.5,279.5 C 321.493,279 323.16,280.5 322.5,284C 320.527,284.495 318.527,284.662 316.5,284.5C 316.366,282.708 316.699,281.042 317.5,279.5 Z"/></g>
<g><path style="opacity:0.991" fill="#598fb0" d="M 105.5,291.5 C 114.5,291.5 123.5,291.5 132.5,291.5C 132.5,295.833 132.5,300.167 132.5,304.5C 123.833,304.5 115.167,304.5 106.5,304.5C 106.706,300.102 106.373,295.768 105.5,291.5 Z"/></g>
<g><path style="opacity:0.998" fill="#5a90b0" d="M 146.5,291.5 C 176.833,291.5 207.167,291.5 237.5,291.5C 237.221,296.595 237.555,301.595 238.5,306.5C 208.503,305.924 178.503,305.591 148.5,305.5C 147.372,300.938 146.705,296.272 146.5,291.5 Z"/></g>
<g><path style="opacity:0.991" fill="#f9fcfe" d="M 106.5,304.5 C 115.167,304.5 123.833,304.5 132.5,304.5C 132.5,308.167 132.5,311.833 132.5,315.5C 124.167,315.5 115.833,315.5 107.5,315.5C 107.577,311.785 107.244,308.119 106.5,304.5 Z"/></g>
<g><path style="opacity:0.995" fill="#f8fbfd" d="M 148.5,305.5 C 178.503,305.591 208.503,305.924 238.5,306.5C 238.5,310.167 238.5,313.833 238.5,317.5C 208.838,316.839 179.171,316.506 149.5,316.5C 148.656,312.901 148.323,309.234 148.5,305.5 Z"/></g>
<g><path style="opacity:1" fill="#50caa3" d="M 288.5,309.5 C 291.91,309.384 293.244,311.05 292.5,314.5C 286.964,315.339 285.63,313.672 288.5,309.5 Z"/></g>
<g><path style="opacity:0.99" fill="#598eaf" d="M 107.5,315.5 C 115.833,315.5 124.167,315.5 132.5,315.5C 133.493,323.65 133.826,331.983 133.5,340.5C 125.813,340.46 118.146,340.793 110.5,341.5C 110.167,341.5 109.833,341.5 109.5,341.5C 108.986,332.818 108.319,324.152 107.5,315.5 Z"/></g>
<g><path style="opacity:0.998" fill="#588eaf" d="M 149.5,316.5 C 179.171,316.506 208.838,316.839 238.5,317.5C 239.22,323.138 239.553,328.804 239.5,334.5C 210.489,335.601 181.489,336.934 152.5,338.5C 150.908,331.384 149.908,324.051 149.5,316.5 Z"/></g>
<g><path style="opacity:1" fill="#44cba9" d="M 267.5,316.5 C 271.514,316.334 275.514,316.501 279.5,317C 282.807,321.679 281.474,324.345 275.5,325C 271.833,325.667 268.167,325.667 264.5,325C 262.675,323.534 262.175,321.701 263,319.5C 264.652,318.601 266.152,317.601 267.5,316.5 Z"/></g>
<g><path style="opacity:1" fill="#5bc9a0" d="M 295.5,318.5 C 298.908,317.828 301.575,318.828 303.5,321.5C 300.303,326.643 296.97,326.81 293.5,322C 293.978,320.697 294.645,319.531 295.5,318.5 Z"/></g>
<g><path style="opacity:1" fill="#ff824e" d="M 357.5,286.5 C 357.5,301.833 357.5,317.167 357.5,332.5C 361.5,332.5 365.5,332.5 369.5,332.5C 366.375,333.479 363.042,333.813 359.5,333.5C 358.5,333.5 357.5,333.5 356.5,333.5C 356.17,317.658 356.504,301.991 357.5,286.5 Z"/></g>
<g><path style="opacity:0.983" fill="#ff4e65" d="M 511.5,358.5 C 511.5,358.833 511.5,359.167 511.5,359.5C 508.482,359.665 505.482,359.498 502.5,359C 500.777,358.477 499.444,357.477 498.5,356C 501.048,351.858 502.715,347.358 503.5,342.5C 502.622,334.443 498.289,331.276 490.5,333C 483.962,340.9 483.962,348.9 490.5,357C 483.117,361.448 475.617,361.615 468,357.5C 469.347,352.325 469.68,346.991 469,341.5C 466.051,333.94 461.384,332.607 455,337.5C 451.679,346.018 453.513,353.185 460.5,359C 453.254,365.325 445.588,365.992 437.5,361C 431.792,357.276 431.292,353.11 436,348.5C 438.455,342.452 437.955,336.785 434.5,331.5C 459.169,331.068 483.835,330.902 508.5,331C 509.432,340.27 510.432,349.437 511.5,358.5 Z"/></g>
<g><path style="opacity:0.968" fill="#ff4f65" d="M 427.5,331.5 C 423.012,337.709 422.346,344.376 425.5,351.5C 425.167,352.167 424.833,352.833 424.5,353.5C 420.906,354.426 417.24,354.759 413.5,354.5C 414.249,346.576 411.582,340.076 405.5,335C 403.655,333.872 401.655,333.372 399.5,333.5C 399.842,332.662 400.508,332.328 401.5,332.5C 410.146,331.747 418.812,331.413 427.5,331.5 Z"/></g>
<g><path style="opacity:0.996" fill="#fea6a6" d="M 427.5,331.5 C 429.833,331.5 432.167,331.5 434.5,331.5C 437.955,336.785 438.455,342.452 436,348.5C 431.292,353.11 431.792,357.276 437.5,361C 445.588,365.992 453.254,365.325 460.5,359C 453.513,353.185 451.679,346.018 455,337.5C 461.384,332.607 466.051,333.94 469,341.5C 469.68,346.991 469.347,352.325 468,357.5C 475.617,361.615 483.117,361.448 490.5,357C 483.962,348.9 483.962,340.9 490.5,333C 498.289,331.276 502.622,334.443 503.5,342.5C 502.715,347.358 501.048,351.858 498.5,356C 499.444,357.477 500.777,358.477 502.5,359C 505.482,359.498 508.482,359.665 511.5,359.5C 511.5,361.167 511.5,362.833 511.5,364.5C 505.309,365.316 499.642,363.983 494.5,360.5C 484.693,366.634 474.693,366.967 464.5,361.5C 450.784,373.218 438.451,371.884 427.5,357.5C 422.607,358.917 417.607,359.917 412.5,360.5C 409.893,367.099 405.56,372.099 399.5,375.5C 399.5,376.833 399.5,378.167 399.5,379.5C 398.521,376.375 398.187,373.042 398.5,369.5C 403.308,367.354 406.308,363.688 407.5,358.5C 404.133,355.16 400.8,351.827 397.5,348.5C 396.833,343.84 396.667,339.174 397,334.5C 397.671,333.748 398.504,333.414 399.5,333.5C 401.655,333.372 403.655,333.872 405.5,335C 411.582,340.076 414.249,346.576 413.5,354.5C 417.24,354.759 420.906,354.426 424.5,353.5C 424.833,352.833 425.167,352.167 425.5,351.5C 422.346,344.376 423.012,337.709 427.5,331.5 Z"/></g>
<g><path style="opacity:0.992" fill="#fe4f65" d="M 369.5,332.5 C 374.5,332.5 379.5,332.5 384.5,332.5C 386.677,332.586 388.677,333.253 390.5,334.5C 391.499,346.482 391.832,358.482 391.5,370.5C 387.562,370.365 384.228,368.865 381.5,366C 387.256,359.749 389.089,352.583 387,344.5C 382.667,339.167 378.333,339.167 374,344.5C 371.842,351.126 372.009,357.626 374.5,364C 364.229,368.035 357.229,364.702 353.5,354C 358.863,348.084 360.863,341.251 359.5,333.5C 363.042,333.813 366.375,333.479 369.5,332.5 Z"/></g>
<g><path style="opacity:0.995" fill="#ffa5a6" d="M 356.5,333.5 C 357.5,333.5 358.5,333.5 359.5,333.5C 360.863,341.251 358.863,348.084 353.5,354C 357.229,364.702 364.229,368.035 374.5,364C 372.009,357.626 371.842,351.126 374,344.5C 378.333,339.167 382.667,339.167 387,344.5C 389.089,352.583 387.256,359.749 381.5,366C 384.228,368.865 387.562,370.365 391.5,370.5C 391.5,372.167 391.5,373.833 391.5,375.5C 389.833,375.5 388.167,375.5 386.5,375.5C 383.235,373.416 380.068,371.083 377,368.5C 370.416,372.6 363.916,372.433 357.5,368C 353.941,364.778 350.774,361.278 348,357.5C 342.626,359.873 338.126,363.373 334.5,368C 324.251,373.404 313.418,374.904 302,372.5C 298.135,373.513 294.302,374.68 290.5,376C 287.854,376.497 285.187,376.664 282.5,376.5C 282.5,374.833 282.5,373.167 282.5,371.5C 286.828,371.963 290.828,371.13 294.5,369C 289.971,365.636 285.971,361.803 282.5,357.5C 282.5,352.167 282.5,346.833 282.5,341.5C 284.549,338.45 287.216,336.117 290.5,334.5C 292.833,334.5 295.167,334.5 297.5,334.5C 307.997,338.526 312.497,346.192 311,357.5C 309.463,361.229 307.963,364.895 306.5,368.5C 311.511,368.666 316.511,368.499 321.5,368C 325.749,367.209 329.416,365.375 332.5,362.5C 322.369,361.697 316.369,356.364 314.5,346.5C 317.622,335.605 324.622,332.105 335.5,336C 341.665,340.16 344.832,345.994 345,353.5C 346.299,352.91 347.132,351.91 347.5,350.5C 345.98,345.039 346.313,339.706 348.5,334.5C 351.086,333.52 353.753,333.187 356.5,333.5 Z"/></g>
<g><path style="opacity:0.996" fill="#f4f9fc" d="M 239.5,334.5 C 239.724,338.179 240.058,341.846 240.5,345.5C 211.488,346.945 182.488,348.612 153.5,350.5C 152.728,346.548 152.395,342.548 152.5,338.5C 181.489,336.934 210.489,335.601 239.5,334.5 Z"/></g>
<g><path style="opacity:0.841" fill="#ff5267" d="M 282.5,334.5 C 285.167,334.5 287.833,334.5 290.5,334.5C 287.216,336.117 284.549,338.45 282.5,341.5C 282.5,339.167 282.5,336.833 282.5,334.5 Z"/></g>
<g><path style="opacity:1" fill="#ff5b6e" d="M 353.5,335.5 C 356.001,339.59 355.501,343.59 352,347.5C 351.081,343.269 351.581,339.269 353.5,335.5 Z"/></g>
<g><path style="opacity:1" fill="#ff576b" d="M 429.5,336.5 C 431.95,336.874 432.95,338.374 432.5,341C 432.385,343.732 431.552,346.232 430,348.5C 428.176,344.574 428.01,340.574 429.5,336.5 Z"/></g>
<g><path style="opacity:1" fill="#ff5468" d="M 492.5,337.5 C 496.338,337.007 498.338,338.674 498.5,342.5C 497.881,346.405 496.214,349.738 493.5,352.5C 490.047,347.678 489.714,342.678 492.5,337.5 Z"/></g>
<g><path style="opacity:1" fill="#ff5569" d="M 399.5,338.5 C 405.816,340.446 408.649,344.78 408,351.5C 403.147,348.453 400.313,344.12 399.5,338.5 Z"/></g>
<g><path style="opacity:1" fill="#ff4f65" d="M 291.5,339.5 C 302.623,339.79 307.456,345.457 306,356.5C 305.152,359.698 303.652,362.531 301.5,365C 295.47,364.346 290.97,361.179 288,355.5C 285.122,349.062 286.289,343.728 291.5,339.5 Z"/></g>
<g><path style="opacity:1" fill="#ff4f65" d="M 324.5,339.5 C 335.68,339.213 340.347,344.547 338.5,355.5C 332.317,357.538 326.817,356.538 322,352.5C 319.467,347.351 320.3,343.018 324.5,339.5 Z"/></g>
<g><path style="opacity:1" fill="#ff5166" d="M 459.5,339.5 C 461.39,339.297 462.89,339.963 464,341.5C 464.791,345.926 464.457,350.259 463,354.5C 458.549,350.3 457.382,345.3 459.5,339.5 Z"/></g>
<g><path style="opacity:1" fill="#f4f9fc" d="M 133.5,340.5 C 133.5,344.167 133.5,347.833 133.5,351.5C 127.516,352.074 121.516,352.407 115.5,352.5C 115.723,347.948 114.056,344.281 110.5,341.5C 118.146,340.793 125.813,340.46 133.5,340.5 Z"/></g>
<g><path style="opacity:0.97" fill="#1aad91" d="M 109.5,341.5 C 109.833,341.5 110.167,341.5 110.5,341.5C 114.056,344.281 115.723,347.948 115.5,352.5C 114.769,357.357 113.436,362.024 111.5,366.5C 111.5,366.833 111.5,367.167 111.5,367.5C 106.458,373.208 101.791,379.208 97.5,385.5C 97.4701,386.497 97.9701,387.164 99,387.5C 112.427,391.118 123.594,398.118 132.5,408.5C 136.023,415.777 133.69,419.443 125.5,419.5C 116.38,418.106 108.047,414.773 100.5,409.5C 99.0858,407.946 97.4192,406.612 95.5,405.5C 94.3744,406.808 94.3744,408.142 95.5,409.5C 99.0344,417.791 99.201,426.124 96,434.5C 94.2894,437.58 91.7894,438.746 88.5,438C 85.2688,435.433 82.7688,432.266 81,428.5C 80.9291,441.512 81.4291,454.512 82.5,467.5C 77.5,467.5 72.5,467.5 67.5,467.5C 68.7128,448.492 70.0462,429.492 71.5,410.5C 71.7989,408.396 71.4656,406.396 70.5,404.5C 67.7653,406.521 65.0986,408.521 62.5,410.5C 54.6258,414.563 46.6258,418.23 38.5,421.5C 33.1946,422.442 27.8613,422.609 22.5,422C 15.7878,419.197 14.2878,414.697 18,408.5C 22.1463,405.176 26.6463,402.51 31.5,400.5C 44.7703,395.266 58.4369,391.432 72.5,389C 70.3496,387.589 68.0163,386.755 65.5,386.5C 53.2463,378.079 44.0796,367.079 38,353.5C 36.0688,344.433 39.5688,341.266 48.5,344C 55.2918,348.458 61.1252,353.958 66,360.5C 70.5865,368.004 74.9199,375.671 79,383.5C 81.072,377.117 83.2387,370.784 85.5,364.5C 87.3622,362.109 88.6955,359.442 89.5,356.5C 92.5458,350.621 96.8791,345.788 102.5,342C 104.81,341.503 107.143,341.337 109.5,341.5 Z M 94.5,375.5 C 94.1417,372.733 93.475,370.067 92.5,367.5C 95.4073,359.68 100.241,353.347 107,348.5C 108.518,350.614 108.851,352.947 108,355.5C 105.222,363.409 100.722,370.076 94.5,375.5 Z M 44.5,350.5 C 49.0306,352.522 52.864,355.522 56,359.5C 59.9576,365.248 63.791,371.081 67.5,377C 66.8333,377.667 66.1667,377.667 65.5,377C 61,372.5 56.5,368 52,363.5C 48.4659,359.765 45.9659,355.432 44.5,350.5 Z M 88.5,377.5 C 89.404,378.209 89.7373,379.209 89.5,380.5C 88.6365,381.463 87.9698,381.463 87.5,380.5C 88.1272,379.583 88.4606,378.583 88.5,377.5 Z M 32.5,408.5 C 32.5,409.5 32.5,410.5 32.5,411.5C 34.5,411.5 36.5,411.5 38.5,411.5C 38.5,412.167 38.5,412.833 38.5,413.5C 33.5208,415.469 28.5208,415.635 23.5,414C 26.1393,411.517 29.1393,409.684 32.5,408.5 Z"/></g>
<g><path style="opacity:0.996" fill="#5a90b0" d="M 240.5,345.5 C 240.668,352.51 241.001,359.51 241.5,366.5C 212.833,366.5 184.167,366.5 155.5,366.5C 154.449,361.354 153.782,356.021 153.5,350.5C 182.488,348.612 211.488,346.945 240.5,345.5 Z"/></g>
<g><path style="opacity:1" fill="#ff5066" d="M 379.5,345.5 C 382.05,345.884 383.383,347.384 383.5,350C 382.953,353.925 381.453,357.425 379,360.5C 376.899,355.393 377.066,350.393 379.5,345.5 Z"/></g>
<g><path style="opacity:1" fill="#fc5065" d="M 397.5,348.5 C 400.8,351.827 404.133,355.16 407.5,358.5C 406.308,363.688 403.308,367.354 398.5,369.5C 398.227,362.496 397.894,355.496 397.5,348.5 Z"/></g>
<g><path style="opacity:1" fill="#5a91b1" d="M 133.5,351.5 C 133.5,356.5 133.5,361.5 133.5,366.5C 126.167,366.5 118.833,366.5 111.5,366.5C 113.436,362.024 114.769,357.357 115.5,352.5C 121.516,352.407 127.516,352.074 133.5,351.5 Z"/></g>
<g><path style="opacity:1" fill="#ffa2a4" d="M 359.5,352.5 C 364.501,351.671 366.668,353.671 366,358.5C 360.731,359.729 358.565,357.729 359.5,352.5 Z"/></g>
<g><path style="opacity:1" fill="#ffa4a5" d="M 442.5,352.5 C 444.167,352.5 445.833,352.5 447.5,352.5C 447.5,354.167 447.5,355.833 447.5,357.5C 443.247,357.92 441.58,356.254 442.5,352.5 Z"/></g>
<g><path style="opacity:0.949" fill="#ff4f65" d="M 282.5,357.5 C 285.971,361.803 289.971,365.636 294.5,369C 290.828,371.13 286.828,371.963 282.5,371.5C 282.5,366.833 282.5,362.167 282.5,357.5 Z"/></g>
<g><path style="opacity:0.991" fill="#ff5066" d="M 386.5,375.5 C 361.501,376.267 336.501,377.1 311.5,378C 308.964,378.186 306.631,378.686 304.5,379.5C 302.708,379.366 301.042,379.699 299.5,380.5C 294.025,379.511 288.358,379.178 282.5,379.5C 282.5,378.5 282.5,377.5 282.5,376.5C 285.187,376.664 287.854,376.497 290.5,376C 294.302,374.68 298.135,373.513 302,372.5C 313.418,374.904 324.251,373.404 334.5,368C 338.126,363.373 342.626,359.873 348,357.5C 350.774,361.278 353.941,364.778 357.5,368C 363.916,372.433 370.416,372.6 377,368.5C 380.068,371.083 383.235,373.416 386.5,375.5 Z"/></g>
<g><path style="opacity:0.992" fill="#ff4e64" d="M 511.5,364.5 C 511.5,367.167 511.5,369.833 511.5,372.5C 506.833,372.5 502.167,372.5 497.5,372.5C 488.5,372.5 479.5,372.5 470.5,372.5C 470.315,370.11 468.982,369.11 466.5,369.5C 463.623,369.381 461.956,370.714 461.5,373.5C 446.127,373.502 431.127,374.502 416.5,376.5C 414.5,375.167 412.5,375.167 410.5,376.5C 407.038,375.518 403.371,375.185 399.5,375.5C 405.56,372.099 409.893,367.099 412.5,360.5C 417.607,359.917 422.607,358.917 427.5,357.5C 438.451,371.884 450.784,373.218 464.5,361.5C 474.693,366.967 484.693,366.634 494.5,360.5C 499.642,363.983 505.309,365.316 511.5,364.5 Z"/></g>
<g><path style="opacity:0.977" fill="#fafdff" d="M 111.5,366.5 C 118.833,366.5 126.167,366.5 133.5,366.5C 133.5,370.167 133.5,373.833 133.5,377.5C 126.833,377.5 120.167,377.5 113.5,377.5C 112.763,374.275 112.097,370.941 111.5,367.5C 111.5,367.167 111.5,366.833 111.5,366.5 Z"/></g>
<g><path style="opacity:0.996" fill="#fafcfe" d="M 155.5,366.5 C 184.167,366.5 212.833,366.5 241.5,366.5C 241.323,370.234 241.656,373.901 242.5,377.5C 213.833,377.5 185.167,377.5 156.5,377.5C 155.577,373.936 155.244,370.269 155.5,366.5 Z"/></g>
<g><path style="opacity:0.898" fill="#3a5860" d="M 92.5,367.5 C 93.475,370.067 94.1417,372.733 94.5,375.5C 93.8333,378.167 92.1667,379.833 89.5,380.5C 89.7373,379.209 89.404,378.209 88.5,377.5C 88.8723,373.703 90.2057,370.37 92.5,367.5 Z"/></g>
<g><path style="opacity:1" fill="#ffa6a7" d="M 343.5,369.5 C 348.123,368.408 349.956,370.075 349,374.5C 343.799,376.331 341.966,374.665 343.5,369.5 Z"/></g>
<g><path style="opacity:1" fill="#ffa3a5" d="M 470.5,372.5 C 469.608,374.714 467.942,375.714 465.5,375.5C 463.645,375.66 462.312,374.993 461.5,373.5C 461.956,370.714 463.623,369.381 466.5,369.5C 468.982,369.11 470.315,370.11 470.5,372.5 Z"/></g>
<g><path style="opacity:0.994" fill="#fd193b" d="M 470.5,372.5 C 479.5,372.5 488.5,372.5 497.5,372.5C 497.499,383.513 497.166,394.513 496.5,405.5C 483.418,412.069 471.418,410.569 460.5,401C 465.088,395.995 466.588,390.162 465,383.5C 459.049,377.691 454.382,378.691 451,386.5C 450.461,391.625 450.795,396.625 452,401.5C 444.648,407.974 437.481,407.974 430.5,401.5C 436.524,394.179 436.857,386.679 431.5,379C 423.732,376.904 419.732,380.071 419.5,388.5C 419.678,392.7 420.678,396.7 422.5,400.5C 420.997,402.422 418.997,403.588 416.5,404C 413.118,404.824 409.784,404.657 406.5,403.5C 410.257,395.026 407.923,389.026 399.5,385.5C 399.5,383.5 399.5,381.5 399.5,379.5C 399.5,378.167 399.5,376.833 399.5,375.5C 403.371,375.185 407.038,375.518 410.5,376.5C 410.38,382.026 412.88,383.693 418,381.5C 418.877,379.326 418.377,377.659 416.5,376.5C 431.127,374.502 446.127,373.502 461.5,373.5C 462.312,374.993 463.645,375.66 465.5,375.5C 467.942,375.714 469.608,374.714 470.5,372.5 Z"/></g>
<g><path style="opacity:1" fill="#fc1b3c" d="M 386.5,375.5 C 388.167,375.5 389.833,375.5 391.5,375.5C 391.948,381.388 391.281,387.054 389.5,392.5C 391.152,397.342 391.818,402.342 391.5,407.5C 387.743,407.929 384.243,407.263 381,405.5C 381.997,400.126 381.664,394.792 380,389.5C 376.306,384.658 372.306,384.325 368,388.5C 367.233,392.594 367.566,396.594 369,400.5C 370.919,402.691 372.253,405.024 373,407.5C 365.303,416.101 356.637,417.435 347,411.5C 345.924,409.933 345.091,408.266 344.5,406.5C 345.728,403.762 347.562,401.429 350,399.5C 353.502,395.167 354.168,390.5 352,385.5C 347.077,382.777 343.411,384.11 341,389.5C 339.421,393.725 338.254,398.059 337.5,402.5C 334.388,404.184 331.054,404.85 327.5,404.5C 328.406,397.278 326.906,390.611 323,384.5C 318.626,380.1 313.793,379.433 308.5,382.5C 307.738,380.738 306.404,379.738 304.5,379.5C 306.631,378.686 308.964,378.186 311.5,378C 336.501,377.1 361.501,376.267 386.5,375.5 Z"/></g>
<g><path style="opacity:1" fill="#ffa1a3" d="M 416.5,376.5 C 418.377,377.659 418.877,379.326 418,381.5C 412.88,383.693 410.38,382.026 410.5,376.5C 412.5,375.167 414.5,375.167 416.5,376.5 Z"/></g>
<g><path style="opacity:0.982" fill="#578eaf" d="M 113.5,377.5 C 120.167,377.5 126.833,377.5 133.5,377.5C 133.5,380.167 133.5,382.833 133.5,385.5C 127.167,385.5 120.833,385.5 114.5,385.5C 113.612,382.946 113.279,380.279 113.5,377.5 Z"/></g>
<g><path style="opacity:0.998" fill="#588eaf" d="M 156.5,377.5 C 185.167,377.5 213.833,377.5 242.5,377.5C 242.5,379.5 242.5,381.5 242.5,383.5C 214.186,385.492 185.519,386.159 156.5,385.5C 156.5,382.833 156.5,380.167 156.5,377.5 Z"/></g>
<g><path style="opacity:0.998" fill="#507085" d="M 496.5,405.5 C 496.5,407.5 496.5,409.5 496.5,411.5C 487.422,416.127 478.088,416.627 468.5,413C 464.234,410.619 460.068,408.119 456,405.5C 445.97,413.439 435.97,413.439 426,405.5C 423.62,406.853 421.12,408.019 418.5,409C 412.716,409.273 407.049,409.44 401.5,409.5C 401.425,406.794 401.092,404.127 400.5,401.5C 402.026,400.508 402.693,399.008 402.5,397C 402.546,395.272 402.046,393.772 401,392.5C 400.517,393.448 400.351,394.448 400.5,395.5C 399.521,392.375 399.187,389.042 399.5,385.5C 407.923,389.026 410.257,395.026 406.5,403.5C 409.784,404.657 413.118,404.824 416.5,404C 418.997,403.588 420.997,402.422 422.5,400.5C 420.678,396.7 419.678,392.7 419.5,388.5C 419.732,380.071 423.732,376.904 431.5,379C 436.857,386.679 436.524,394.179 430.5,401.5C 437.481,407.974 444.648,407.974 452,401.5C 450.795,396.625 450.461,391.625 451,386.5C 454.382,378.691 459.049,377.691 465,383.5C 466.588,390.162 465.088,395.995 460.5,401C 471.418,410.569 483.418,412.069 496.5,405.5 Z"/></g>
<g><path style="opacity:0.997" fill="#fea3a5" d="M 304.5,379.5 C 306.404,379.738 307.738,380.738 308.5,382.5C 308.262,384.404 307.262,385.738 305.5,386.5C 302.642,386.972 300.642,385.972 299.5,383.5C 299.5,382.5 299.5,381.5 299.5,380.5C 301.042,379.699 302.708,379.366 304.5,379.5 Z"/></g>
<g><path style="opacity:1" fill="#ffa4a5" d="M 371.5,379.5 C 372.833,379.5 374.167,379.5 375.5,379.5C 375.5,380.833 375.5,382.167 375.5,383.5C 373.833,383.5 372.167,383.5 370.5,383.5C 370.433,382.041 370.766,380.708 371.5,379.5 Z"/></g>
<g><path style="opacity:0.999" fill="#4f7185" d="M 391.5,375.5 C 392.495,387.655 392.829,399.989 392.5,412.5C 387.482,412.939 382.648,412.273 378,410.5C 374.844,412.986 371.678,415.486 368.5,418C 355.945,423.736 346.278,420.736 339.5,409C 334.5,408.888 329.5,409.221 324.5,410C 317.81,418.061 309.81,419.561 300.5,414.5C 300.5,412.167 300.5,409.833 300.5,407.5C 305.196,411.211 310.53,412.378 316.5,411C 317.687,409.981 318.687,408.814 319.5,407.5C 312.71,404.544 308.21,399.544 306,392.5C 305.505,390.527 305.338,388.527 305.5,386.5C 307.262,385.738 308.262,384.404 308.5,382.5C 313.793,379.433 318.626,380.1 323,384.5C 326.906,390.611 328.406,397.278 327.5,404.5C 331.054,404.85 334.388,404.184 337.5,402.5C 338.254,398.059 339.421,393.725 341,389.5C 343.411,384.11 347.077,382.777 352,385.5C 354.168,390.5 353.502,395.167 350,399.5C 347.562,401.429 345.728,403.762 344.5,406.5C 345.091,408.266 345.924,409.933 347,411.5C 356.637,417.435 365.303,416.101 373,407.5C 372.253,405.024 370.919,402.691 369,400.5C 367.566,396.594 367.233,392.594 368,388.5C 372.306,384.325 376.306,384.658 380,389.5C 381.664,394.792 381.997,400.126 381,405.5C 384.243,407.263 387.743,407.929 391.5,407.5C 391.818,402.342 391.152,397.342 389.5,392.5C 391.281,387.054 391.948,381.388 391.5,375.5 Z"/></g>
<g><path style="opacity:0.992" fill="#fd4e65" d="M 133.5,351.5 C 134.495,362.988 134.828,374.655 134.5,386.5C 142.019,386.825 149.352,386.492 156.5,385.5C 185.519,386.159 214.186,385.492 242.5,383.5C 256.167,383.5 269.833,383.5 283.5,383.5C 282.76,390.826 282.093,398.159 281.5,405.5C 280.167,405.5 278.833,405.5 277.5,405.5C 229.165,406.423 180.832,407.423 132.5,408.5C 123.594,398.118 112.427,391.118 99,387.5C 97.9701,387.164 97.4701,386.497 97.5,385.5C 103.167,385.5 108.833,385.5 114.5,385.5C 120.833,385.5 127.167,385.5 133.5,385.5C 133.5,382.833 133.5,380.167 133.5,377.5C 133.5,373.833 133.5,370.167 133.5,366.5C 133.5,361.5 133.5,356.5 133.5,351.5 Z"/></g>
<g><path style="opacity:1" fill="#f02340" d="M 425.5,383.5 C 429.004,383.792 430.671,385.792 430.5,389.5C 427.73,398.807 425.73,398.473 424.5,388.5C 424.728,386.793 425.062,385.126 425.5,383.5 Z"/></g>
<g><path style="opacity:0.963" fill="#fc1a3b" d="M 299.5,383.5 C 300.642,385.972 302.642,386.972 305.5,386.5C 305.338,388.527 305.505,390.527 306,392.5C 308.21,399.544 312.71,404.544 319.5,407.5C 318.687,408.814 317.687,409.981 316.5,411C 310.53,412.378 305.196,411.211 300.5,407.5C 299.563,399.555 299.23,391.555 299.5,383.5 Z"/></g>
<g><path style="opacity:1" fill="#ef2441" d="M 457.5,385.5 C 459.722,385.559 460.722,386.725 460.5,389C 460.007,391.819 458.84,394.319 457,396.5C 454.888,392.617 455.055,388.95 457.5,385.5 Z"/></g>
<g><path style="opacity:0.928" fill="#fd4d64" d="M 65.5,386.5 C 68.0163,386.755 70.3496,387.589 72.5,389C 58.4369,391.432 44.7703,395.266 31.5,400.5C 31.5,395.833 31.5,391.167 31.5,386.5C 42.8333,386.5 54.1667,386.5 65.5,386.5 Z"/></g>
<g><path style="opacity:1" fill="#f81d3d" d="M 312.5,385.5 C 318.688,386.368 321.688,390.035 321.5,396.5C 321.167,398.167 320.833,399.833 320.5,401.5C 312.768,398.493 310.102,393.16 312.5,385.5 Z"/></g>
<g><path style="opacity:1" fill="#ed2441" d="M 372.5,390.5 C 374.411,390.574 375.578,391.574 376,393.5C 376.814,395.902 376.647,398.235 375.5,400.5C 373.02,397.639 372.02,394.306 372.5,390.5 Z"/></g>
<g><path style="opacity:1" fill="#e12c46" d="M 346.5,390.5 C 347.124,390.917 347.457,391.584 347.5,392.5C 346.909,394.266 346.076,395.933 345,397.5C 344.761,395.041 345.261,392.707 346.5,390.5 Z"/></g>
<g><path style="opacity:1" fill="#fa1a3c" d="M 400.5,401.5 C 400.5,399.5 400.5,397.5 400.5,395.5C 400.351,394.448 400.517,393.448 401,392.5C 402.046,393.772 402.546,395.272 402.5,397C 402.693,399.008 402.026,400.508 400.5,401.5 Z"/></g>
<g><path style="opacity:1" fill="#f95367" d="M 123.5,408.5 C 120.713,409.477 117.713,409.81 114.5,409.5C 105.914,405.756 98.247,400.589 91.5,394C 104.029,394.765 114.695,399.598 123.5,408.5 Z"/></g>
<g><path style="opacity:1" fill="#546f84" d="M 471.5,393.5 C 475.473,394.075 476.473,396.242 474.5,400C 469.148,400.175 468.148,398.009 471.5,393.5 Z"/></g>
<g><path style="opacity:0.989" fill="#f75165" d="M 45.5,410.5 C 42.9407,410.198 40.6074,410.532 38.5,411.5C 36.5,411.5 34.5,411.5 32.5,411.5C 32.5,410.5 32.5,409.5 32.5,408.5C 42.6838,402.859 53.6838,399.192 65.5,397.5C 66.5,397.667 67.5,397.833 68.5,398C 61.6955,403.736 54.0288,407.903 45.5,410.5 Z"/></g>
<g><path style="opacity:1" fill="#f75165" d="M 88.5,409.5 C 86.8333,409.5 85.1667,409.5 83.5,409.5C 83.3347,405.818 83.5014,402.152 84,398.5C 85.7994,402.07 87.2994,405.737 88.5,409.5 Z"/></g>
<g><path style="opacity:1" fill="#4c7186" d="M 355.5,401.5 C 357.927,401.523 360.26,402.023 362.5,403C 363.554,404.388 363.72,405.888 363,407.5C 356.602,409.921 354.102,407.921 355.5,401.5 Z"/></g>
<g><path style="opacity:1" fill="#f85669" d="M 71.5,410.5 C 68.5,410.5 65.5,410.5 62.5,410.5C 65.0986,408.521 67.7653,406.521 70.5,404.5C 71.4656,406.396 71.7989,408.396 71.5,410.5 Z"/></g>
<g><path style="opacity:1" fill="#ed5667" d="M 100.5,409.5 C 98.8333,409.5 97.1667,409.5 95.5,409.5C 94.3744,408.142 94.3744,406.808 95.5,405.5C 97.4192,406.612 99.0858,407.946 100.5,409.5 Z"/></g>
<g><path style="opacity:0.996" fill="#fea9a9" d="M 277.5,405.5 C 276.58,425.95 274.58,446.284 271.5,466.5C 208.496,466.297 145.496,466.631 82.5,467.5C 81.4291,454.512 80.9291,441.512 81,428.5C 82.7688,432.266 85.2688,435.433 88.5,438C 91.7894,438.746 94.2894,437.58 96,434.5C 99.201,426.124 99.0344,417.791 95.5,409.5C 97.1667,409.5 98.8333,409.5 100.5,409.5C 108.047,414.773 116.38,418.106 125.5,419.5C 133.69,419.443 136.023,415.777 132.5,408.5C 180.832,407.423 229.165,406.423 277.5,405.5 Z"/></g>
<g><path style="opacity:0.994" fill="#fb1a3b" d="M 496.5,411.5 C 496.318,424.505 495.985,437.505 495.5,450.5C 489.701,452.208 484.201,451.541 479,448.5C 480.347,443.325 480.68,437.991 480,432.5C 477.252,425.329 472.585,423.662 466,427.5C 462.911,435.832 464.411,443.165 470.5,449.5C 465.31,455.547 458.977,457.047 451.5,454C 448.333,452.167 445.833,449.667 444,446.5C 446.276,441.549 447.776,436.216 448.5,430.5C 448.504,424.335 445.504,421.501 439.5,422C 436.404,424.029 434.738,426.862 434.5,430.5C 431.722,430.022 429.722,431.022 428.5,433.5C 429.966,435.657 431.8,435.99 434,434.5C 435.164,437.481 435.831,440.481 436,443.5C 432.38,445.183 428.546,445.85 424.5,445.5C 424.88,437.128 421.88,430.295 415.5,425C 407,422.833 403.833,426 406,434.5C 407.08,436.996 408.414,439.33 410,441.5C 413.339,443.673 416.172,446.34 418.5,449.5C 416.592,456.742 411.926,460.742 404.5,461.5C 403.574,444.162 402.574,426.829 401.5,409.5C 407.049,409.44 412.716,409.273 418.5,409C 421.12,408.019 423.62,406.853 426,405.5C 435.97,413.439 445.97,413.439 456,405.5C 460.068,408.119 464.234,410.619 468.5,413C 478.088,416.627 487.422,416.127 496.5,411.5 Z"/></g>
<g><path style="opacity:1" fill="#eea9a7" d="M 123.5,408.5 C 126.735,410.717 126.735,412.051 123.5,412.5C 120.203,412.068 117.203,411.068 114.5,409.5C 117.713,409.81 120.713,409.477 123.5,408.5 Z"/></g>
<g><path style="opacity:0.989" fill="#fea9a9" d="M 62.5,410.5 C 65.5,410.5 68.5,410.5 71.5,410.5C 70.0462,429.492 68.7128,448.492 67.5,467.5C 57.8333,467.5 48.1667,467.5 38.5,467.5C 38.5,452.167 38.5,436.833 38.5,421.5C 46.6258,418.23 54.6258,414.563 62.5,410.5 Z"/></g>
<g><path style="opacity:1" fill="#f7a9a8" d="M 83.5,409.5 C 85.1667,409.5 86.8333,409.5 88.5,409.5C 91.6212,416.33 92.1212,423.33 90,430.5C 85.5362,424.272 83.3695,417.272 83.5,409.5 Z"/></g>
<g><path style="opacity:1" fill="#fa1b3c" d="M 392.5,412.5 C 392.5,418.833 392.5,425.167 392.5,431.5C 387.098,431.395 383.931,434.062 383,439.5C 382.148,444.477 382.648,449.31 384.5,454C 384.355,454.772 384.022,455.439 383.5,456C 375.264,457.781 369.097,454.948 365,447.5C 364.333,446.167 364.333,444.833 365,443.5C 368.658,439.349 370.825,434.515 371.5,429C 370.465,421.372 366.632,419.539 360,423.5C 357.324,429.112 356.824,434.945 358.5,441C 358.387,442.28 357.72,443.113 356.5,443.5C 355.065,435.763 351.065,429.929 344.5,426C 336.198,423.463 330.032,425.963 326,433.5C 325.495,445.506 331.329,452.173 343.5,453.5C 335.23,459.505 326.23,461.005 316.5,458C 325.649,446.189 324.316,435.856 312.5,427C 308.605,425.734 304.605,425.234 300.5,425.5C 300.5,421.833 300.5,418.167 300.5,414.5C 309.81,419.561 317.81,418.061 324.5,410C 329.5,409.221 334.5,408.888 339.5,409C 346.278,420.736 355.945,423.736 368.5,418C 371.678,415.486 374.844,412.986 378,410.5C 382.648,412.273 387.482,412.939 392.5,412.5 Z"/></g>
<g><path style="opacity:0.975" fill="#f8a0a1" d="M 45.5,410.5 C 43.5739,412.293 41.2406,413.293 38.5,413.5C 38.5,412.833 38.5,412.167 38.5,411.5C 40.6074,410.532 42.9407,410.198 45.5,410.5 Z"/></g>
<g><path style="opacity:1" fill="#4d7186" d="M 453.5,411.5 C 458.5,410.5 460.5,412.5 459.5,417.5C 453.591,418.926 451.591,416.926 453.5,411.5 Z"/></g>
<g><path style="opacity:1" fill="#4e7086" d="M 420.5,412.5 C 425.159,412.015 426.492,413.848 424.5,418C 418.546,419.227 417.212,417.394 420.5,412.5 Z"/></g>
<g><path style="opacity:1" fill="#507085" d="M 330.5,415.5 C 334.976,415.8 336.31,417.967 334.5,422C 332.231,422.758 330.064,422.591 328,421.5C 327.034,418.66 327.867,416.66 330.5,415.5 Z"/></g>
<g><path style="opacity:1" fill="#586d82" d="M 381.5,416.5 C 386.493,416.997 387.493,419.164 384.5,423C 381.433,424.164 379.767,423.164 379.5,420C 379.862,418.566 380.528,417.399 381.5,416.5 Z"/></g>
<g><path style="opacity:0.995" fill="#4e7186" d="M 392.5,431.5 C 392.5,433.167 392.5,434.833 392.5,436.5C 388.873,437.722 387.206,440.388 387.5,444.5C 387.442,447.057 388.109,449.39 389.5,451.5C 390.288,450.23 391.288,449.23 392.5,448.5C 392.5,453.167 392.5,457.833 392.5,462.5C 390.606,461.952 388.94,460.952 387.5,459.5C 381.062,462.322 374.729,462.156 368.5,459C 364.941,455.778 361.774,452.278 359,448.5C 356.889,449.472 354.722,450.305 352.5,451C 347.55,458.129 340.883,462.629 332.5,464.5C 328.143,464.586 323.81,464.92 319.5,465.5C 317.084,464.589 314.584,463.589 312,462.5C 310.334,463.348 308.834,464.348 307.5,465.5C 305.5,465.5 303.5,465.5 301.5,465.5C 301.5,464.167 301.5,462.833 301.5,461.5C 306.598,460.55 306.598,459.217 301.5,457.5C 301.5,455.167 301.5,452.833 301.5,450.5C 303.671,452.5 306.004,454.334 308.5,456C 309.5,456.667 310.5,456.667 311.5,456C 320.329,446.297 319.329,437.964 308.5,431C 305.854,430.503 303.187,430.336 300.5,430.5C 300.5,428.833 300.5,427.167 300.5,425.5C 304.605,425.234 308.605,425.734 312.5,427C 324.316,435.856 325.649,446.189 316.5,458C 326.23,461.005 335.23,459.505 343.5,453.5C 331.329,452.173 325.495,445.506 326,433.5C 330.032,425.963 336.198,423.463 344.5,426C 351.065,429.929 355.065,435.763 356.5,443.5C 357.72,443.113 358.387,442.28 358.5,441C 356.824,434.945 357.324,429.112 360,423.5C 366.632,419.539 370.465,421.372 371.5,429C 370.825,434.515 368.658,439.349 365,443.5C 364.333,444.833 364.333,446.167 365,447.5C 369.097,454.948 375.264,457.781 383.5,456C 384.022,455.439 384.355,454.772 384.5,454C 382.648,449.31 382.148,444.477 383,439.5C 383.931,434.062 387.098,431.395 392.5,431.5 Z"/></g>
<g><path style="opacity:0.997" fill="#4e7186" d="M 495.5,450.5 C 495.5,452.5 495.5,454.5 495.5,456.5C 488.404,457.25 481.737,455.917 475.5,452.5C 461.789,464.162 449.456,462.829 438.5,448.5C 433.65,450.079 428.65,450.912 423.5,451C 421.459,455.586 418.792,459.753 415.5,463.5C 411.833,463.5 408.167,463.5 404.5,463.5C 404.5,462.833 404.5,462.167 404.5,461.5C 411.926,460.742 416.592,456.742 418.5,449.5C 416.172,446.34 413.339,443.673 410,441.5C 408.414,439.33 407.08,436.996 406,434.5C 403.833,426 407,422.833 415.5,425C 421.88,430.295 424.88,437.128 424.5,445.5C 428.546,445.85 432.38,445.183 436,443.5C 435.831,440.481 435.164,437.481 434,434.5C 431.8,435.99 429.966,435.657 428.5,433.5C 429.722,431.022 431.722,430.022 434.5,430.5C 434.738,426.862 436.404,424.029 439.5,422C 445.504,421.501 448.504,424.335 448.5,430.5C 447.776,436.216 446.276,441.549 444,446.5C 445.833,449.667 448.333,452.167 451.5,454C 458.977,457.047 465.31,455.547 470.5,449.5C 464.411,443.165 462.911,435.832 466,427.5C 472.585,423.662 477.252,425.329 480,432.5C 480.68,437.991 480.347,443.325 479,448.5C 484.201,451.541 489.701,452.208 495.5,450.5 Z"/></g>
<g><path style="opacity:1" fill="#eb2542" d="M 364.5,426.5 C 367.121,430.305 366.621,433.972 363,437.5C 362.013,433.525 362.513,429.859 364.5,426.5 Z"/></g>
<g><path style="opacity:1" fill="#f51e3e" d="M 440.5,427.5 C 442.722,427.559 443.722,428.725 443.5,431C 443.066,433.634 442.233,436.134 441,438.5C 439.253,434.875 439.086,431.208 440.5,427.5 Z"/></g>
<g><path style="opacity:1" fill="#f12240" d="M 410.5,429.5 C 415.106,430.637 417.94,433.637 419,438.5C 419.667,439.833 419.667,441.167 419,442.5C 414.147,439.453 411.313,435.12 410.5,429.5 Z"/></g>
<g><path style="opacity:0.983" fill="#fb1b3b" d="M 300.5,430.5 C 303.187,430.336 305.854,430.503 308.5,431C 319.329,437.964 320.329,446.297 311.5,456C 310.5,456.667 309.5,456.667 308.5,456C 306.004,454.334 303.671,452.5 301.5,450.5C 301.287,443.826 300.954,437.159 300.5,430.5 Z"/></g>
<g><path style="opacity:1" fill="#fa1b3b" d="M 334.5,430.5 C 346.223,430.054 350.889,435.554 348.5,447C 342.074,448.65 336.574,447.15 332,442.5C 329.696,437.855 330.529,433.855 334.5,430.5 Z"/></g>
<g><path style="opacity:1" fill="#ef2541" d="M 469.5,430.5 C 472.238,429.965 474.072,430.965 475,433.5C 475.667,436.5 475.667,439.5 475,442.5C 474.692,443.308 474.192,443.975 473.5,444.5C 468.775,440.827 467.441,436.16 469.5,430.5 Z"/></g>
<g><path style="opacity:1" fill="#f4213e" d="M 392.5,436.5 C 392.5,440.5 392.5,444.5 392.5,448.5C 391.288,449.23 390.288,450.23 389.5,451.5C 388.109,449.39 387.442,447.057 387.5,444.5C 387.206,440.388 388.873,437.722 392.5,436.5 Z"/></g>
<g><path style="opacity:1" fill="#ff2842" d="M 246.5,438.5 C 250.241,437.599 252.241,438.932 252.5,442.5C 250.5,442.5 248.5,442.5 246.5,442.5C 246.5,441.167 246.5,439.833 246.5,438.5 Z"/></g>
<g><path style="opacity:1" fill="#5b6c81" d="M 454.5,440.5 C 460.982,442.021 460.815,444.021 454,446.5C 452.5,446.333 451.667,445.5 451.5,444C 452.071,442.401 453.071,441.234 454.5,440.5 Z"/></g>
<g><path style="opacity:1" fill="#ff2440" d="M 230.5,444.5 C 235.158,443.514 238.824,444.848 241.5,448.5C 240.307,450.527 238.64,452.027 236.5,453C 232.167,453.667 227.833,453.667 223.5,453C 221.789,451.867 221.289,450.367 222,448.5C 224.564,446.376 227.397,445.042 230.5,444.5 Z"/></g>
<g><path style="opacity:1" fill="#ff223f" d="M 254.5,447.5 C 256.857,447.337 259.19,447.503 261.5,448C 262.911,451.282 261.745,453.116 258,453.5C 253.968,453.098 252.801,451.098 254.5,447.5 Z"/></g>
<g><path style="opacity:0.94" fill="#fa1b3c" d="M 392.5,462.5 C 392.5,462.833 392.5,463.167 392.5,463.5C 372.514,464.366 352.514,464.7 332.5,464.5C 340.883,462.629 347.55,458.129 352.5,451C 354.722,450.305 356.889,449.472 359,448.5C 361.774,452.278 364.941,455.778 368.5,459C 374.729,462.156 381.062,462.322 387.5,459.5C 388.94,460.952 390.606,461.952 392.5,462.5 Z"/></g>
<g><path style="opacity:0.941" fill="#fd183a" d="M 495.5,456.5 C 495.5,458.5 495.5,460.5 495.5,462.5C 468.828,462.47 442.161,462.803 415.5,463.5C 418.792,459.753 421.459,455.586 423.5,451C 428.65,450.912 433.65,450.079 438.5,448.5C 449.456,462.829 461.789,464.162 475.5,452.5C 481.737,455.917 488.404,457.25 495.5,456.5 Z"/></g>
<g><path style="opacity:0.727" fill="#f2203f" d="M 301.5,457.5 C 306.598,459.217 306.598,460.55 301.5,461.5C 301.5,460.167 301.5,458.833 301.5,457.5 Z"/></g>
<g><path style="opacity:0.148" fill="#f71e3d" d="M 319.5,465.5 C 315.5,465.5 311.5,465.5 307.5,465.5C 308.834,464.348 310.334,463.348 312,462.5C 314.584,463.589 317.084,464.589 319.5,465.5 Z"/></g>
</svg>
