<?xml version="1.0" encoding="UTF-8"?>
<!DOCTYPE svg PUBLIC "-//W3C//DTD SVG 1.1//EN" "http://www.w3.org/Graphics/SVG/1.1/DTD/svg11.dtd">
<svg xmlns="http://www.w3.org/2000/svg" version="1.1" width="201px" height="200px" style="shape-rendering:geometricPrecision; text-rendering:geometricPrecision; image-rendering:optimizeQuality; fill-rule:evenodd; clip-rule:evenodd" xmlns:xlink="http://www.w3.org/1999/xlink">
<g><path style="opacity:1" fill="#fbfcfb" d="M -0.5,-0.5 C 36.8333,-0.5 74.1667,-0.5 111.5,-0.5C 112.694,0.777251 114.36,1.44392 116.5,1.5C 120.163,1.9442 123.829,2.27753 127.5,2.5C 127.5,3.83333 127.5,5.16667 127.5,6.5C 111.819,5.04641 96.1522,5.21308 80.5,7C 79.6634,8.01127 79.33,9.17793 79.5,10.5C 82.1667,10.5 84.8333,10.5 87.5,10.5C 84.5234,10.9016 81.8567,11.9016 79.5,13.5C 78.4479,15.256 76.7812,15.9227 74.5,15.5C 70.9693,17.0378 67.3027,18.0378 63.5,18.5C 63.5,19.5 63.5,20.5 63.5,21.5C 55.6883,21.3809 50.355,24.7142 47.5,31.5C 45.8008,31.3398 44.1341,31.5065 42.5,32C 39.3604,35.1396 36.1937,38.3063 33,41.5C 31.872,43.3453 31.372,45.3453 31.5,47.5C 30.0222,47.238 28.6888,47.5713 27.5,48.5C 21.365,56.2638 17.365,64.9304 15.5,74.5C 15.9227,76.7812 15.256,78.4479 13.5,79.5C 12.4371,83.6391 11.7704,87.9725 11.5,92.5C 10.5151,96.6344 10.1818,100.968 10.5,105.5C 14.1537,106.141 15.1537,108.141 13.5,111.5C 8.25299,113.124 3.58632,115.791 -0.5,119.5C -0.5,79.5 -0.5,39.5 -0.5,-0.5 Z"/></g>
<g><path style="opacity:1" fill="#fcfcfc" d="M 111.5,-0.5 C 141.167,-0.5 170.833,-0.5 200.5,-0.5C 200.5,21.8333 200.5,44.1667 200.5,66.5C 197.378,65.915 196.711,64.2483 198.5,61.5C 198,57.0318 195.5,54.6985 191,54.5C 191.557,52.1594 191.39,49.8261 190.5,47.5C 189.784,48.311 188.95,48.9777 188,49.5C 186.923,48.5705 185.756,47.9038 184.5,47.5C 181.503,42.8415 178.503,38.1748 175.5,33.5C 175.66,31.8008 175.494,30.1341 175,28.5C 172.397,26.5638 170.564,24.0638 169.5,21C 166.644,20.1202 163.811,19.2869 161,18.5C 159.615,18.5143 158.449,18.8476 157.5,19.5C 152.793,22.184 148.127,24.8506 143.5,27.5C 142.5,27.5 141.5,27.5 140.5,27.5C 140.244,25.0876 141.244,23.4209 143.5,22.5C 141.163,19.0651 137.83,17.7318 133.5,18.5C 131.703,17.2702 129.703,16.6036 127.5,16.5C 125.5,15.8333 123.5,15.1667 121.5,14.5C 120.942,13.2101 119.942,12.3768 118.5,12C 116.19,11.5034 113.857,11.3367 111.5,11.5C 103.684,10.5076 95.6841,10.1743 87.5,10.5C 84.8333,10.5 82.1667,10.5 79.5,10.5C 79.33,9.17793 79.6634,8.01127 80.5,7C 96.1522,5.21308 111.819,5.04641 127.5,6.5C 127.5,5.16667 127.5,3.83333 127.5,2.5C 123.829,2.27753 120.163,1.9442 116.5,1.5C 114.36,1.44392 112.694,0.777251 111.5,-0.5 Z"/></g>
<g><path style="opacity:1" fill="#d9ffd9" d="M 87.5,10.5 C 95.6841,10.1743 103.684,10.5076 111.5,11.5C 103.648,11.1746 95.9818,11.508 88.5,12.5C 85.4552,12.5079 82.4552,12.8413 79.5,13.5C 81.8567,11.9016 84.5234,10.9016 87.5,10.5 Z"/></g>
<g><path style="opacity:1" fill="#b6feb6" d="M 88.5,12.5 C 95.9818,11.508 103.648,11.1746 111.5,11.5C 113.857,11.3367 116.19,11.5034 118.5,12C 119.942,12.3768 120.942,13.2101 121.5,14.5C 110.592,12.7934 99.5921,12.1267 88.5,12.5 Z"/></g>
<g><path style="opacity:1" fill="#2af32f" d="M 88.5,12.5 C 99.5921,12.1267 110.592,12.7934 121.5,14.5C 123.5,15.1667 125.5,15.8333 127.5,16.5C 127.5,17.8333 127.5,19.1667 127.5,20.5C 122.28,19.0309 116.946,18.3642 111.5,18.5C 100.314,17.1991 88.9802,17.1991 77.5,18.5C 75.8247,18.1316 74.8247,17.1316 74.5,15.5C 76.7812,15.9227 78.4479,15.256 79.5,13.5C 82.4552,12.8413 85.4552,12.5079 88.5,12.5 Z"/></g>
<g><path style="opacity:1" fill="#43f14c" d="M 127.5,16.5 C 129.703,16.6036 131.703,17.2702 133.5,18.5C 135.448,19.1312 137.281,20.1312 139,21.5C 139.86,24.4782 138.693,25.8116 135.5,25.5C 133.307,25.2814 131.307,24.6148 129.5,23.5C 128.167,23.5 126.833,23.5 125.5,23.5C 121.176,20.8353 116.51,19.1686 111.5,18.5C 116.946,18.3642 122.28,19.0309 127.5,20.5C 127.5,19.1667 127.5,17.8333 127.5,16.5 Z"/></g>
<g><path style="opacity:1" fill="#41f34a" d="M 74.5,15.5 C 74.8247,17.1316 75.8247,18.1316 77.5,18.5C 88.9802,17.1991 100.314,17.1991 111.5,18.5C 100.61,18.0616 89.943,18.7283 79.5,20.5C 72.1917,22.6508 65.1917,25.6508 58.5,29.5C 54.0209,31.23 50.3542,33.8966 47.5,37.5C 46.0689,38.0819 44.7356,38.9152 43.5,40C 41.1787,42.3048 39.1787,44.8048 37.5,47.5C 37.1667,47.5 36.8333,47.5 36.5,47.5C 27.2175,59.3443 21.2175,72.6776 18.5,87.5C 18.5,83.1667 18.5,78.8333 18.5,74.5C 17.5,74.5 16.5,74.5 15.5,74.5C 17.365,64.9304 21.365,56.2638 27.5,48.5C 28.6888,47.5713 30.0222,47.238 31.5,47.5C 31.372,45.3453 31.872,43.3453 33,41.5C 36.1937,38.3063 39.3604,35.1396 42.5,32C 44.1341,31.5065 45.8008,31.3398 47.5,31.5C 50.355,24.7142 55.6883,21.3809 63.5,21.5C 63.5,20.5 63.5,19.5 63.5,18.5C 67.3027,18.0378 70.9693,17.0378 74.5,15.5 Z"/></g>
<g><path style="opacity:1" fill="#ccfed4" d="M 111.5,18.5 C 116.51,19.1686 121.176,20.8353 125.5,23.5C 119.539,21.2892 113.205,20.1226 106.5,20C 97.4892,19.5005 88.4892,19.6672 79.5,20.5C 89.943,18.7283 100.61,18.0616 111.5,18.5 Z"/></g>
<g><path style="opacity:1" fill="#d7fcd6" d="M 133.5,18.5 C 137.83,17.7318 141.163,19.0651 143.5,22.5C 141.244,23.4209 140.244,25.0876 140.5,27.5C 141.5,27.5 142.5,27.5 143.5,27.5C 141.919,29.3026 139.919,30.6359 137.5,31.5C 137.5,30.5 137.5,29.5 137.5,28.5C 133.275,29.2686 130.609,27.6019 129.5,23.5C 131.307,24.6148 133.307,25.2814 135.5,25.5C 138.693,25.8116 139.86,24.4782 139,21.5C 137.281,20.1312 135.448,19.1312 133.5,18.5 Z"/></g>
<g><path style="opacity:1" fill="#c5fdd0" d="M 157.5,19.5 C 158.449,18.8476 159.615,18.5143 161,18.5C 163.811,19.2869 166.644,20.1202 169.5,21C 170.564,24.0638 172.397,26.5638 175,28.5C 175.494,30.1341 175.66,31.8008 175.5,33.5C 172.765,27.9282 168.765,23.4282 163.5,20C 161.527,19.5045 159.527,19.3379 157.5,19.5 Z"/></g>
<g><path style="opacity:1" fill="#f6faf6" d="M 125.5,23.5 C 126.833,23.5 128.167,23.5 129.5,23.5C 130.609,27.6019 133.275,29.2686 137.5,28.5C 137.5,29.5 137.5,30.5 137.5,31.5C 132.167,34.8333 126.833,38.1667 121.5,41.5C 118.081,41.6042 115.081,42.7708 112.5,45C 109.518,45.498 106.518,45.6646 103.5,45.5C 103.167,45.5 102.833,45.5 102.5,45.5C 100.393,44.5318 98.0593,44.1984 95.5,44.5C 95.5,43.1667 95.5,41.8333 95.5,40.5C 98.1667,40.5 100.833,40.5 103.5,40.5C 103.5,38.5 103.5,36.5 103.5,34.5C 102.366,30.8494 100.199,27.8494 97,25.5C 95.9701,25.8361 95.4701,26.5028 95.5,27.5C 95.5,28.8333 95.5,30.1667 95.5,31.5C 94.5,31.5 93.5,31.5 92.5,31.5C 90.8212,31.2852 89.8212,31.9519 89.5,33.5C 91.4166,37.2381 91.9166,41.2381 91,45.5C 89.6976,46.0848 88.531,46.7515 87.5,47.5C 74.3545,50.0791 63.6878,56.7457 55.5,67.5C 52.0886,68.067 50.0886,66.7337 49.5,63.5C 48.1667,63.5 46.8333,63.5 45.5,63.5C 44.596,62.791 44.2627,61.791 44.5,60.5C 42.0411,60.31 40.3745,61.31 39.5,63.5C 37.5,63.5 35.5,63.5 33.5,63.5C 32.1667,63.5 30.8333,63.5 29.5,63.5C 29.3505,62.448 29.5172,61.448 30,60.5C 33.9772,57.0664 36.1439,52.733 36.5,47.5C 36.8333,47.5 37.1667,47.5 37.5,47.5C 38.675,47.719 39.675,47.3857 40.5,46.5C 42.0615,44.0268 44.0615,42.0268 46.5,40.5C 47.3857,39.675 47.719,38.675 47.5,37.5C 52.6162,36.7032 56.2829,34.0365 58.5,29.5C 65.1917,25.6508 72.1917,22.6508 79.5,20.5C 88.4892,19.6672 97.4892,19.5005 106.5,20C 113.205,20.1226 119.539,21.2892 125.5,23.5 Z"/></g>
<g><path style="opacity:1" fill="#1ef723" d="M 95.5,27.5 C 100.288,29.529 102.288,33.1957 101.5,38.5C 99.5,38.5 97.5,38.5 95.5,38.5C 94.5233,36.1791 93.5233,33.8458 92.5,31.5C 93.5,31.5 94.5,31.5 95.5,31.5C 95.5,30.1667 95.5,28.8333 95.5,27.5 Z"/></g>
<g><path style="opacity:1" fill="#cdfdcd" d="M 58.5,29.5 C 56.2829,34.0365 52.6162,36.7032 47.5,37.5C 50.3542,33.8966 54.0209,31.23 58.5,29.5 Z"/></g>
<g><path style="opacity:1" fill="#cbf9cc" d="M 63.5,37.5 C 62.1667,37.5 60.8333,37.5 59.5,37.5C 59.5,39.1667 59.5,40.8333 59.5,42.5C 57.2729,43.4006 56.2729,45.0672 56.5,47.5C 55.5028,47.5299 54.8361,47.0299 54.5,46C 56.0075,42.8291 57.5075,39.6625 59,36.5C 61.0449,34.9568 62.5449,35.2901 63.5,37.5 Z"/></g>
<g><path style="opacity:1" fill="#49e653" d="M 103.5,34.5 C 102.549,35.9187 102.216,37.5853 102.5,39.5C 99.4816,39.6646 96.4816,39.498 93.5,39C 92.9678,36.5368 91.6345,34.7035 89.5,33.5C 89.8212,31.9519 90.8212,31.2852 92.5,31.5C 93.5233,33.8458 94.5233,36.1791 95.5,38.5C 97.5,38.5 99.5,38.5 101.5,38.5C 102.288,33.1957 100.288,29.529 95.5,27.5C 95.4701,26.5028 95.9701,25.8361 97,25.5C 100.199,27.8494 102.366,30.8494 103.5,34.5 Z"/></g>
<g><path style="opacity:1" fill="#69e671" d="M 63.5,37.5 C 64.5,38.8333 65.5,38.8333 66.5,37.5C 67.8333,37.5 69.1667,37.5 70.5,37.5C 70.5,39.5 70.5,41.5 70.5,43.5C 69.5655,42.4324 69.2322,41.099 69.5,39.5C 65.8242,39.5826 62.4908,40.5826 59.5,42.5C 59.5,40.8333 59.5,39.1667 59.5,37.5C 60.8333,37.5 62.1667,37.5 63.5,37.5 Z"/></g>
<g><path style="opacity:1" fill="#d5ffbf" d="M 47.5,37.5 C 47.719,38.675 47.3857,39.675 46.5,40.5C 44.0615,42.0268 42.0615,44.0268 40.5,46.5C 39.675,47.3857 38.675,47.719 37.5,47.5C 39.1787,44.8048 41.1787,42.3048 43.5,40C 44.7356,38.9152 46.0689,38.0819 47.5,37.5 Z"/></g>
<g><path style="opacity:1" fill="#abf1b8" d="M 89.5,33.5 C 91.6345,34.7035 92.9678,36.5368 93.5,39C 96.4816,39.498 99.4816,39.6646 102.5,39.5C 102.216,37.5853 102.549,35.9187 103.5,34.5C 103.5,36.5 103.5,38.5 103.5,40.5C 100.833,40.5 98.1667,40.5 95.5,40.5C 95.5,41.8333 95.5,43.1667 95.5,44.5C 98.0593,44.1984 100.393,44.5318 102.5,45.5C 97.5261,46.3263 92.5261,46.9929 87.5,47.5C 88.531,46.7515 89.6976,46.0848 91,45.5C 91.9166,41.2381 91.4166,37.2381 89.5,33.5 Z"/></g>
<g><path style="opacity:1" fill="#32f338" d="M 70.5,43.5 C 69.8318,46.5002 68.4984,49.1669 66.5,51.5C 65.8501,51.8039 65.1835,52.1373 64.5,52.5C 62.8217,49.1389 60.155,47.4722 56.5,47.5C 56.2729,45.0672 57.2729,43.4006 59.5,42.5C 62.4908,40.5826 65.8242,39.5826 69.5,39.5C 69.2322,41.099 69.5655,42.4324 70.5,43.5 Z"/></g>
<g><path style="opacity:1" fill="#d9fce3" d="M 121.5,41.5 C 113.254,47.3774 104.587,52.7107 95.5,57.5C 94.6661,56.2521 93.3328,55.5854 91.5,55.5C 86.7742,56.0098 82.1075,56.8432 77.5,58C 76.245,60.4603 74.245,61.627 71.5,61.5C 73.2701,60.236 74.9368,58.736 76.5,57C 84.2239,54.7714 91.8905,52.4381 99.5,50C 101.407,48.9308 102.741,47.4308 103.5,45.5C 106.518,45.6646 109.518,45.498 112.5,45C 115.081,42.7708 118.081,41.6042 121.5,41.5 Z"/></g>
<g><path style="opacity:1" fill="#a6f7ac" d="M 66.5,37.5 C 67.9187,36.5489 69.5853,36.2155 71.5,36.5C 74.1372,43.2397 72.4706,48.2397 66.5,51.5C 68.4984,49.1669 69.8318,46.5002 70.5,43.5C 70.5,41.5 70.5,39.5 70.5,37.5C 69.1667,37.5 67.8333,37.5 66.5,37.5 Z"/></g>
<g><path style="opacity:1" fill="#e7fde8" d="M 184.5,47.5 C 185.756,47.9038 186.923,48.5705 188,49.5C 188.95,48.9777 189.784,48.311 190.5,47.5C 191.39,49.8261 191.557,52.1594 191,54.5C 195.5,54.6985 198,57.0318 198.5,61.5C 196.711,64.2483 197.378,65.915 200.5,66.5C 200.5,68.8333 200.5,71.1667 200.5,73.5C 198.692,70.5638 196.859,67.5638 195,64.5C 193.989,63.6634 192.822,63.33 191.5,63.5C 191.662,61.4727 191.495,59.4727 191,57.5C 188.19,54.5355 186.024,51.2022 184.5,47.5 Z"/></g>
<g><path style="opacity:1" fill="#42f044" d="M 102.5,45.5 C 102.833,45.5 103.167,45.5 103.5,45.5C 102.741,47.4308 101.407,48.9308 99.5,50C 91.8905,52.4381 84.2239,54.7714 76.5,57C 74.9368,58.736 73.2701,60.236 71.5,61.5C 69.9826,61.5106 68.8159,62.1772 68,63.5C 66.2377,65.7252 64.7377,68.0586 63.5,70.5C 60.3957,73.1009 57.3957,75.9343 54.5,79C 53.2068,79.49 51.8734,79.6567 50.5,79.5C 50.2011,77.396 50.5344,75.396 51.5,73.5C 53.2516,71.7541 54.5849,69.7541 55.5,67.5C 63.6878,56.7457 74.3545,50.0791 87.5,47.5C 92.5261,46.9929 97.5261,46.3263 102.5,45.5 Z"/></g>
<g><path style="opacity:1" fill="#f8f7f8" d="M 95.5,57.5 C 92.6184,59.0258 89.9517,61.0258 87.5,63.5C 85.4458,63.3653 83.7791,64.032 82.5,65.5C 81.5,65.5 80.5,65.5 79.5,65.5C 79.5,64.1667 79.5,62.8333 79.5,61.5C 78.5,61.5 77.5,61.5 76.5,61.5C 76.3184,63.5914 76.6518,65.5914 77.5,67.5C 73.1521,70.1891 68.8188,72.8558 64.5,75.5C 63.5481,73.9547 63.2148,72.288 63.5,70.5C 64.7377,68.0586 66.2377,65.7252 68,63.5C 68.8159,62.1772 69.9826,61.5106 71.5,61.5C 74.245,61.627 76.245,60.4603 77.5,58C 82.1075,56.8432 86.7742,56.0098 91.5,55.5C 93.3328,55.5854 94.6661,56.2521 95.5,57.5 Z"/></g>
<g><path style="opacity:1" fill="#adf193" d="M 45.5,63.5 C 46.8333,63.5 48.1667,63.5 49.5,63.5C 49.9227,65.7812 49.256,67.4479 47.5,68.5C 47.1692,66.6776 46.5025,65.0109 45.5,63.5 Z"/></g>
<g><path style="opacity:1" fill="#82f686" d="M 87.5,63.5 C 85.6011,66.3996 82.9344,68.0663 79.5,68.5C 80.6935,67.7281 81.6935,66.7281 82.5,65.5C 83.7791,64.032 85.4458,63.3653 87.5,63.5 Z"/></g>
<g><path style="opacity:1" fill="#39f241" d="M 45.5,63.5 C 46.5025,65.0109 47.1692,66.6776 47.5,68.5C 47.5,69.8333 47.5,71.1667 47.5,72.5C 46.8333,72.5 46.5,72.8333 46.5,73.5C 37.717,74.4047 35.3837,71.0714 39.5,63.5C 40.3745,61.31 42.0411,60.31 44.5,60.5C 44.2627,61.791 44.596,62.791 45.5,63.5 Z"/></g>
<g><path style="opacity:1" fill="#62e671" d="M 33.5,63.5 C 35.5,63.5 37.5,63.5 39.5,63.5C 35.3837,71.0714 37.717,74.4047 46.5,73.5C 46.38,74.5862 45.7133,75.2528 44.5,75.5C 42.1807,74.9361 39.8474,74.4361 37.5,74C 36.8088,70.1814 35.4755,66.6814 33.5,63.5 Z"/></g>
<g><path style="opacity:1" fill="#fcfafb" d="M 44.5,77.5 C 44.6107,78.1174 44.944,78.6174 45.5,79C 40.8452,79.4992 36.1785,79.6658 31.5,79.5C 31.1774,83.226 31.5108,86.8927 32.5,90.5C 35.0237,88.8099 37.0237,86.6432 38.5,84C 42.1516,83.5014 45.8183,83.3347 49.5,83.5C 49.719,84.675 49.3857,85.675 48.5,86.5C 42.6488,87.0318 38.9822,90.0318 37.5,95.5C 36.8333,95.5 36.1667,95.5 35.5,95.5C 31.0968,95.0761 27.7635,96.7428 25.5,100.5C 24.2638,101.246 22.9305,101.579 21.5,101.5C 21.0584,99.0281 20.725,96.5281 20.5,94C 21.8714,87.9227 22.7047,81.756 23,75.5C 24.2342,71.9821 26.2342,68.9821 29,66.5C 29.6054,68.4812 30.6054,68.8146 32,67.5C 33.5437,70.1705 34.7103,73.0039 35.5,76C 38.5131,76.5022 41.5131,77.0022 44.5,77.5 Z"/></g>
<g><path style="opacity:1" fill="#ebfbec" d="M 82.5,65.5 C 81.6935,66.7281 80.6935,67.7281 79.5,68.5C 73.638,71.3559 68.3047,75.0226 63.5,79.5C 60.0078,80.4097 57.0078,82.0764 54.5,84.5C 48.6266,87.9311 42.9599,91.5978 37.5,95.5C 38.9822,90.0318 42.6488,87.0318 48.5,86.5C 49.3857,85.675 49.719,84.675 49.5,83.5C 45.8183,83.3347 42.1516,83.5014 38.5,84C 37.0237,86.6432 35.0237,88.8099 32.5,90.5C 31.5108,86.8927 31.1774,83.226 31.5,79.5C 36.1785,79.6658 40.8452,79.4992 45.5,79C 44.944,78.6174 44.6107,78.1174 44.5,77.5C 47.0838,76.9517 48.0838,75.285 47.5,72.5C 47.5,71.1667 47.5,69.8333 47.5,68.5C 49.256,67.4479 49.9227,65.7812 49.5,63.5C 50.0886,66.7337 52.0886,68.067 55.5,67.5C 54.5849,69.7541 53.2516,71.7541 51.5,73.5C 50.5344,75.396 50.2011,77.396 50.5,79.5C 51.8734,79.6567 53.2068,79.49 54.5,79C 57.3957,75.9343 60.3957,73.1009 63.5,70.5C 63.2148,72.288 63.5481,73.9547 64.5,75.5C 68.8188,72.8558 73.1521,70.1891 77.5,67.5C 76.6518,65.5914 76.3184,63.5914 76.5,61.5C 77.5,61.5 78.5,61.5 79.5,61.5C 79.5,62.8333 79.5,64.1667 79.5,65.5C 80.5,65.5 81.5,65.5 82.5,65.5 Z"/></g>
<g><path style="opacity:1" fill="#64eb6a" d="M 63.5,79.5 C 61.3494,82.4152 58.3494,84.0819 54.5,84.5C 57.0078,82.0764 60.0078,80.4097 63.5,79.5 Z"/></g>
<g><path style="opacity:1" fill="#27f52b" d="M 15.5,74.5 C 16.5,74.5 17.5,74.5 18.5,74.5C 18.5,78.8333 18.5,83.1667 18.5,87.5C 16.6054,91.3834 15.4387,95.7168 15,100.5C 13.5845,97.0418 13.0845,93.3751 13.5,89.5C 13.5,86.1667 13.5,82.8333 13.5,79.5C 15.256,78.4479 15.9227,76.7812 15.5,74.5 Z"/></g>
<g><path style="opacity:1" fill="#7bf17e" d="M 13.5,79.5 C 13.5,82.8333 13.5,86.1667 13.5,89.5C 12.3547,93.3112 12.1881,97.3112 13,101.5C 13.4169,102.756 14.2502,103.423 15.5,103.5C 15.5,103.833 15.5,104.167 15.5,104.5C 14.1779,104.67 13.0113,104.337 12,103.5C 11.5014,99.8484 11.3347,96.1817 11.5,92.5C 11.7704,87.9725 12.4371,83.6391 13.5,79.5 Z"/></g>
<g><path style="opacity:1" fill="#fcfcfc" d="M 200.5,79.5 C 200.5,119.5 200.5,159.5 200.5,199.5C 133.5,199.5 66.5,199.5 -0.5,199.5C -0.5,176.833 -0.5,154.167 -0.5,131.5C 2.51008,135.533 5.51008,139.533 8.5,143.5C 9.16667,143.5 9.83333,143.5 10.5,143.5C 11.6805,145.693 12.6805,148.026 13.5,150.5C 13.9569,151.298 14.6236,151.631 15.5,151.5C 16.5,154.167 17.5,156.833 18.5,159.5C 19.5,159.5 20.5,159.5 21.5,159.5C 23.9012,166.056 27.2346,172.056 31.5,177.5C 31.5,177.833 31.5,178.167 31.5,178.5C 31.281,179.675 31.6143,180.675 32.5,181.5C 39.4265,183.475 45.7599,182.308 51.5,178C 53.4727,177.505 55.4727,177.338 57.5,177.5C 57.8417,178.338 58.5084,178.672 59.5,178.5C 59.4142,179.496 59.7476,180.329 60.5,181C 62.766,181.932 64.766,183.266 66.5,185C 70.8206,185.499 75.1539,185.666 79.5,185.5C 82.6267,186.581 85.9601,187.247 89.5,187.5C 99.0072,188.539 108.674,189.039 118.5,189C 123.815,186.641 129.315,184.808 135,183.5C 137.492,180.485 140.325,178.152 143.5,176.5C 144.899,175.11 146.566,174.11 148.5,173.5C 150.372,172.489 152.372,171.655 154.5,171C 155.337,169.989 155.67,168.822 155.5,167.5C 155.833,167.5 156.167,167.5 156.5,167.5C 161.751,167.244 164.751,164.577 165.5,159.5C 168.413,156.083 171.58,152.749 175,149.5C 175.49,148.207 175.657,146.873 175.5,145.5C 179.815,137.224 183.148,128.557 185.5,119.5C 186.75,119.423 187.583,118.756 188,117.5C 188.822,109.988 188.655,102.655 187.5,95.5C 185.5,95.5 183.5,95.5 181.5,95.5C 181.5,94.8333 181.5,94.1667 181.5,93.5C 184.858,90.2099 188.858,87.7099 193.5,86C 195.923,84.4293 197.256,82.2626 197.5,79.5C 198.5,79.5 199.5,79.5 200.5,79.5 Z"/></g>
<g><path style="opacity:1" fill="#45ec4d" d="M 18.5,87.5 C 18.6658,92.1785 18.4992,96.8452 18,101.5C 17.0053,102.066 16.172,102.733 15.5,103.5C 14.2502,103.423 13.4169,102.756 13,101.5C 12.1881,97.3112 12.3547,93.3112 13.5,89.5C 13.0845,93.3751 13.5845,97.0418 15,100.5C 15.4387,95.7168 16.6054,91.3834 18.5,87.5 Z"/></g>
<g><path style="opacity:1" fill="#e1fcdf" d="M 36.5,47.5 C 36.1439,52.733 33.9772,57.0664 30,60.5C 29.5172,61.448 29.3505,62.448 29.5,63.5C 30.8333,63.5 32.1667,63.5 33.5,63.5C 35.4755,66.6814 36.8088,70.1814 37.5,74C 39.8474,74.4361 42.1807,74.9361 44.5,75.5C 45.7133,75.2528 46.38,74.5862 46.5,73.5C 46.5,72.8333 46.8333,72.5 47.5,72.5C 48.0838,75.285 47.0838,76.9517 44.5,77.5C 41.5131,77.0022 38.5131,76.5022 35.5,76C 34.7103,73.0039 33.5437,70.1705 32,67.5C 30.6054,68.8146 29.6054,68.4812 29,66.5C 26.2342,68.9821 24.2342,71.9821 23,75.5C 22.7047,81.756 21.8714,87.9227 20.5,94C 20.725,96.5281 21.0584,99.0281 21.5,101.5C 22.9305,101.579 24.2638,101.246 25.5,100.5C 27.7635,96.7428 31.0968,95.0761 35.5,95.5C 31.2284,98.1447 27.2284,101.145 23.5,104.5C 21.0722,106.043 18.4056,107.043 15.5,107.5C 15.5,106.5 15.5,105.5 15.5,104.5C 15.5,104.167 15.5,103.833 15.5,103.5C 16.172,102.733 17.0053,102.066 18,101.5C 18.4992,96.8452 18.6658,92.1785 18.5,87.5C 21.2175,72.6776 27.2175,59.3443 36.5,47.5 Z"/></g>
<g><path style="opacity:1" fill="#aff2b6" d="M 11.5,92.5 C 11.3347,96.1817 11.5014,99.8484 12,103.5C 13.0113,104.337 14.1779,104.67 15.5,104.5C 15.5,105.5 15.5,106.5 15.5,107.5C 18.4056,107.043 21.0722,106.043 23.5,104.5C 21.6855,107.407 19.0188,108.741 15.5,108.5C 15.7148,110.179 15.0481,111.179 13.5,111.5C 15.1537,108.141 14.1537,106.141 10.5,105.5C 10.1818,100.968 10.5151,96.6344 11.5,92.5 Z"/></g>
<g><path style="opacity:1" fill="#adefa0" d="M 181.5,93.5 C 181.5,94.1667 181.5,94.8333 181.5,95.5C 181.821,101.026 181.488,106.36 180.5,111.5C 181.113,105.729 180.446,100.396 178.5,95.5C 179.29,94.5987 180.29,93.9321 181.5,93.5 Z"/></g>
<g><path style="opacity:1" fill="#52e75e" d="M 150.5,111.5 C 150.586,112.496 150.252,113.329 149.5,114C 147.564,114.813 145.564,115.313 143.5,115.5C 145.292,113.431 147.626,112.097 150.5,111.5 Z"/></g>
<g><path style="opacity:1" fill="#f6fbf6" d="M 178.5,95.5 C 180.446,100.396 181.113,105.729 180.5,111.5C 178.961,116.689 177.628,122.022 176.5,127.5C 176.167,127.5 175.833,127.5 175.5,127.5C 173.937,129.73 171.937,131.73 169.5,133.5C 168.833,132.833 168.167,132.167 167.5,131.5C 166.786,128.973 166.12,126.473 165.5,124C 161.639,122.607 157.639,122.441 153.5,123.5C 153.5,124.833 153.5,126.167 153.5,127.5C 151.989,128.502 150.322,129.169 148.5,129.5C 148.5,127.833 148.5,126.167 148.5,124.5C 149.15,124.196 149.817,123.863 150.5,123.5C 151.491,119.555 151.824,115.555 151.5,111.5C 152.833,111.5 154.167,111.5 155.5,111.5C 155.5,110.5 155.5,109.5 155.5,108.5C 156.833,108.5 158.167,108.5 159.5,108.5C 159.5,107.5 159.5,106.5 159.5,105.5C 166.32,102.925 172.653,99.592 178.5,95.5 Z"/></g>
<g><path style="opacity:1" fill="#d1ffd2" d="M 187.5,95.5 C 188.655,102.655 188.822,109.988 188,117.5C 187.583,118.756 186.75,119.423 185.5,119.5C 187.161,111.603 187.827,103.603 187.5,95.5 Z"/></g>
<g><path style="opacity:1" fill="#3ef242" d="M 157.5,19.5 C 159.527,19.3379 161.527,19.5045 163.5,20C 168.765,23.4282 172.765,27.9282 175.5,33.5C 178.503,38.1748 181.503,42.8415 184.5,47.5C 186.024,51.2022 188.19,54.5355 191,57.5C 191.495,59.4727 191.662,61.4727 191.5,63.5C 192.822,63.33 193.989,63.6634 195,64.5C 196.859,67.5638 198.692,70.5638 200.5,73.5C 200.5,75.5 200.5,77.5 200.5,79.5C 199.5,79.5 198.5,79.5 197.5,79.5C 197.256,82.2626 195.923,84.4293 193.5,86C 188.858,87.7099 184.858,90.2099 181.5,93.5C 180.29,93.9321 179.29,94.5987 178.5,95.5C 172.653,99.592 166.32,102.925 159.5,105.5C 159.5,106.5 159.5,107.5 159.5,108.5C 158.167,108.5 156.833,108.5 155.5,108.5C 155.5,109.5 155.5,110.5 155.5,111.5C 154.167,111.5 152.833,111.5 151.5,111.5C 151.167,111.5 150.833,111.5 150.5,111.5C 147.626,112.097 145.292,113.431 143.5,115.5C 143.719,116.675 143.386,117.675 142.5,118.5C 138.804,120.01 135.471,122.01 132.5,124.5C 130.784,126.025 128.784,127.025 126.5,127.5C 121.518,130.807 116.518,134.141 111.5,137.5C 111.5,137.833 111.5,138.167 111.5,138.5C 108.01,138.151 105.677,139.651 104.5,143C 100.736,145.063 96.7357,146.729 92.5,148C 91.1982,150.022 89.5315,151.522 87.5,152.5C 80.5329,156.988 73.5329,161.488 66.5,166C 65.552,166.483 64.552,166.649 63.5,166.5C 66.5242,163.135 70.1909,160.468 74.5,158.5C 73.5,158.167 72.5,157.833 71.5,157.5C 69.4649,158.204 67.4649,158.871 65.5,159.5C 66.4749,157.807 67.8082,156.307 69.5,155C 83.3327,147.587 96.666,139.42 109.5,130.5C 111.687,129.242 114.02,128.242 116.5,127.5C 118.858,125.471 121.192,123.471 123.5,121.5C 129.173,118.666 134.506,115.333 139.5,111.5C 140.833,111.5 142.167,111.5 143.5,111.5C 149.641,108.782 154.975,105.116 159.5,100.5C 161.114,97.231 163.781,95.5643 167.5,95.5C 170.136,93.88 172.803,92.2133 175.5,90.5C 175.5,90.1667 175.5,89.8333 175.5,89.5C 175.5,88.8333 175.5,88.1667 175.5,87.5C 180.547,85.8085 185.213,83.3085 189.5,80C 190.793,79.51 192.127,79.3433 193.5,79.5C 193.736,76.1706 192.903,73.1706 191,70.5C 186.142,62.769 181.309,55.1023 176.5,47.5C 176.167,47.5 175.833,47.5 175.5,47.5C 171.616,40.2699 167.283,33.2699 162.5,26.5C 158.09,26.1996 154.423,27.8663 151.5,31.5C 150.022,31.238 148.689,31.5713 147.5,32.5C 141.023,37.677 134.357,42.3437 127.5,46.5C 126.791,47.404 125.791,47.7373 124.5,47.5C 118.26,51.6326 111.927,55.7993 105.5,60C 102.429,61.9998 99.0957,63.1664 95.5,63.5C 91.4374,68.8991 86.104,72.8991 79.5,75.5C 77.812,76.5213 76.4787,77.8546 75.5,79.5C 75.1667,79.5 74.8333,79.5 74.5,79.5C 73.448,79.3505 72.448,79.5172 71.5,80C 69.2488,82.7585 66.5821,84.9252 63.5,86.5C 59.2295,88.9731 54.8961,91.4731 50.5,94C 48.9371,94.7589 47.9371,95.9256 47.5,97.5C 45.8211,97.8923 44.1545,98.3923 42.5,99C 37.6868,103.143 32.3535,106.476 26.5,109C 21.9825,112.752 17.3158,116.252 12.5,119.5C 9.03894,119.796 7.03894,121.629 6.5,125C 8.92914,130.018 11.7625,134.852 15,139.5C 15.49,140.793 15.6567,142.127 15.5,143.5C 18.3851,144.545 20.5518,146.545 22,149.5C 22.2602,151.618 23.2602,153.284 25,154.5C 25.4935,156.134 25.6602,157.801 25.5,159.5C 26.5,159.5 27.5,159.5 28.5,159.5C 30.2664,164.127 32.5998,168.461 35.5,172.5C 35.4142,173.496 35.7476,174.329 36.5,175C 38.8098,175.497 41.1432,175.663 43.5,175.5C 45.4605,173.688 47.7939,172.688 50.5,172.5C 50.5,173.5 50.5,174.5 50.5,175.5C 46.8377,175.003 43.8377,176.169 41.5,179C 37.8971,179.843 34.5637,179.343 31.5,177.5C 27.2346,172.056 23.9012,166.056 21.5,159.5C 20.5,159.5 19.5,159.5 18.5,159.5C 17.5,156.833 16.5,154.167 15.5,151.5C 15.4357,147.781 13.769,145.114 10.5,143.5C 9.83333,143.5 9.16667,143.5 8.5,143.5C 6.5145,137.522 3.5145,132.189 -0.5,127.5C -0.5,124.833 -0.5,122.167 -0.5,119.5C 3.58632,115.791 8.25299,113.124 13.5,111.5C 15.0481,111.179 15.7148,110.179 15.5,108.5C 19.0188,108.741 21.6855,107.407 23.5,104.5C 27.2284,101.145 31.2284,98.1447 35.5,95.5C 36.1667,95.5 36.8333,95.5 37.5,95.5C 42.9599,91.5978 48.6266,87.9311 54.5,84.5C 58.3494,84.0819 61.3494,82.4152 63.5,79.5C 68.3047,75.0226 73.638,71.3559 79.5,68.5C 82.9344,68.0663 85.6011,66.3996 87.5,63.5C 89.9517,61.0258 92.6184,59.0258 95.5,57.5C 104.587,52.7107 113.254,47.3774 121.5,41.5C 126.833,38.1667 132.167,34.8333 137.5,31.5C 139.919,30.6359 141.919,29.3026 143.5,27.5C 148.127,24.8506 152.793,22.184 157.5,19.5 Z"/></g>
<g><path style="opacity:1" fill="#e9f9ee" d="M 61.5,114.5 C 60.8365,116.042 60.1698,117.709 59.5,119.5C 56.0654,121.633 52.5654,123.633 49,125.5C 47.9701,125.164 47.4701,124.497 47.5,123.5C 47.5,122.833 47.5,122.167 47.5,121.5C 48.4386,118.197 49.4386,114.864 50.5,111.5C 53.5184,111.335 56.5184,111.502 59.5,112C 60.3805,112.708 61.0472,113.542 61.5,114.5 Z"/></g>
<g><path style="opacity:1" fill="#f0fbf0" d="M 47.5,97.5 C 53.0301,97.3723 58.3634,98.039 63.5,99.5C 63.5,101.167 63.5,102.833 63.5,104.5C 59.3233,104.829 55.49,103.829 52,101.5C 50.9412,101.63 50.1079,102.13 49.5,103C 50.5707,103.852 51.5707,104.685 52.5,105.5C 49.4816,105.335 46.4816,105.502 43.5,106C 43.1727,108.685 43.1727,111.518 43.5,114.5C 43.0585,120.708 41.7252,126.708 39.5,132.5C 35.1536,132.854 33.4869,135.187 34.5,139.5C 33.8529,138.726 33.5195,137.726 33.5,136.5C 34.767,133.623 35.767,130.623 36.5,127.5C 37.5,127.5 38.5,127.5 39.5,127.5C 39.3493,121.857 40.3493,116.523 42.5,111.5C 41.1667,111.5 39.8333,111.5 38.5,111.5C 38.5,113.833 38.5,116.167 38.5,118.5C 36.8561,118.714 35.3561,118.38 34,117.5C 33.5045,115.527 33.3379,113.527 33.5,111.5C 32.1266,111.343 30.7932,111.51 29.5,112C 30.8333,112.667 30.8333,113.333 29.5,114C 25.6981,113.547 22.3647,114.881 19.5,118C 17.1873,118.662 14.854,119.162 12.5,119.5C 17.3158,116.252 21.9825,112.752 26.5,109C 32.3535,106.476 37.6868,103.143 42.5,99C 44.1545,98.3923 45.8211,97.8923 47.5,97.5 Z"/></g>
<g><path style="opacity:1" fill="#4fea50" d="M 79.5,107.5 C 79.5,108.833 79.5,110.167 79.5,111.5C 78.5,111.5 77.5,111.5 76.5,111.5C 73.7704,112.942 70.7704,113.942 67.5,114.5C 66.7542,115.736 66.4208,117.07 66.5,118.5C 65.209,118.263 64.209,118.596 63.5,119.5C 61.744,118.448 61.0773,116.781 61.5,114.5C 61.0472,113.542 60.3805,112.708 59.5,112C 56.5184,111.502 53.5184,111.335 50.5,111.5C 49.4386,114.864 48.4386,118.197 47.5,121.5C 46.5,121.5 45.5,121.5 44.5,121.5C 44.5,119.167 44.5,116.833 44.5,114.5C 44.5,111.833 44.5,109.167 44.5,106.5C 49.953,107.636 55.453,108.636 61,109.5C 67.1356,108.506 73.3022,107.839 79.5,107.5 Z"/></g>
<g><path style="opacity:1" fill="#cffdce" d="M 52.5,105.5 C 54.8351,106.665 57.3351,107.332 60,107.5C 66.6581,106.293 73.1581,106.293 79.5,107.5C 73.3022,107.839 67.1356,108.506 61,109.5C 55.453,108.636 49.953,107.636 44.5,106.5C 44.5,109.167 44.5,111.833 44.5,114.5C 44.1667,114.5 43.8333,114.5 43.5,114.5C 43.1727,111.518 43.1727,108.685 43.5,106C 46.4816,105.502 49.4816,105.335 52.5,105.5 Z"/></g>
<g><path style="opacity:1" fill="#5de561" d="M 159.5,100.5 C 154.975,105.116 149.641,108.782 143.5,111.5C 143.281,110.325 143.614,109.325 144.5,108.5C 148.238,106.924 151.571,104.757 154.5,102C 156.025,100.991 157.692,100.491 159.5,100.5 Z"/></g>
<g><path style="opacity:1" fill="#f1fbf1" d="M 140.5,79.5 C 141.675,79.281 142.675,79.6143 143.5,80.5C 146.585,84.2458 149.251,88.2458 151.5,92.5C 152.048,94.5323 153.381,95.5323 155.5,95.5C 156.833,95.5 158.167,95.5 159.5,95.5C 159.5,93.1667 159.5,90.8333 159.5,88.5C 164.787,89.3424 170.12,89.6757 175.5,89.5C 175.5,89.8333 175.5,90.1667 175.5,90.5C 171.687,90.4885 169.02,92.1552 167.5,95.5C 163.781,95.5643 161.114,97.231 159.5,100.5C 157.692,100.491 156.025,100.991 154.5,102C 151.571,104.757 148.238,106.924 144.5,108.5C 143.614,109.325 143.281,110.325 143.5,111.5C 142.167,111.5 140.833,111.5 139.5,111.5C 139.286,109.856 139.62,108.356 140.5,107C 142.715,106.83 144.715,106.163 146.5,105C 143.855,103.713 142.855,101.547 143.5,98.5C 145.167,98.5 146.833,98.5 148.5,98.5C 148.5,99.8333 148.5,101.167 148.5,102.5C 151.061,102.553 153.061,101.553 154.5,99.5C 150.793,98.1252 147.127,96.7918 143.5,95.5C 142.833,91.5 142.167,91.5 141.5,95.5C 139.478,93.4687 137.811,91.1354 136.5,88.5C 136.215,86.712 136.548,85.0453 137.5,83.5C 139.288,82.7174 140.288,81.3841 140.5,79.5 Z"/></g>
<g><path style="opacity:1" fill="#6ee76c" d="M 175.5,90.5 C 172.803,92.2133 170.136,93.88 167.5,95.5C 169.02,92.1552 171.687,90.4885 175.5,90.5 Z"/></g>
<g><path style="opacity:1" fill="#8df3ab" d="M 121.5,79.5 C 122.222,83.12 123.222,86.7867 124.5,90.5C 125.79,88.3435 126.624,86.0101 127,83.5C 127.464,84.0944 127.631,84.7611 127.5,85.5C 126.626,88.7893 125.959,92.1226 125.5,95.5C 124.5,95.5 123.5,95.5 122.5,95.5C 121.806,90.1951 121.472,84.8617 121.5,79.5 Z"/></g>
<g><path style="opacity:1" fill="#41f148" d="M 127.5,74.5 C 129.259,76.8039 130.425,79.4705 131,82.5C 133.531,83.9227 135.365,85.9227 136.5,88.5C 137.811,91.1354 139.478,93.4687 141.5,95.5C 141.567,96.9587 141.234,98.2921 140.5,99.5C 139.735,99.9234 138.902,100.257 138,100.5C 136.377,99.079 135.21,97.4124 134.5,95.5C 132.671,91.851 130.337,88.5177 127.5,85.5C 127.631,84.7611 127.464,84.0944 127,83.5C 126.624,86.0101 125.79,88.3435 124.5,90.5C 123.222,86.7867 122.222,83.12 121.5,79.5C 121.167,79.5 120.833,79.5 120.5,79.5C 120.243,75.8285 119.243,72.4952 117.5,69.5C 117.443,68.391 117.11,67.391 116.5,66.5C 116.5,65.5 116.5,64.5 116.5,63.5C 117.833,63.5 119.167,63.5 120.5,63.5C 120.343,64.8734 120.51,66.2068 121,67.5C 123.684,69.4652 125.85,71.7985 127.5,74.5 Z"/></g>
<g><path style="opacity:1" fill="#fbf7fc" d="M 175.5,87.5 C 175.5,88.1667 175.5,88.8333 175.5,89.5C 170.12,89.6757 164.787,89.3424 159.5,88.5C 159.5,90.8333 159.5,93.1667 159.5,95.5C 158.167,95.5 156.833,95.5 155.5,95.5C 155.969,87.4408 160.303,83.2741 168.5,83C 169.428,82.6121 170.095,81.9454 170.5,81C 169.892,78.4465 169.225,75.9465 168.5,73.5C 167.559,71.5336 166.559,69.5336 165.5,67.5C 166.365,66.4173 167.365,66.2506 168.5,67C 170.53,68.8962 172.197,71.0629 173.5,73.5C 175.07,73.6938 176.57,73.6938 178,73.5C 178.495,75.4727 178.662,77.4727 178.5,79.5C 177.5,79.5 176.5,79.5 175.5,79.5C 175.5,80.5 175.5,81.5 175.5,82.5C 176.833,82.5 178.167,82.5 179.5,82.5C 179.5,81.5 179.5,80.5 179.5,79.5C 181.199,79.3398 182.866,79.5065 184.5,80C 181.266,82.4172 178.266,84.9172 175.5,87.5 Z"/></g>
<g><path style="opacity:1" fill="#d4fbcb" d="M 163.5,69.5 C 165.154,70.7503 166.821,72.0837 168.5,73.5C 169.225,75.9465 169.892,78.4465 170.5,81C 170.095,81.9454 169.428,82.6121 168.5,83C 160.303,83.2741 155.969,87.4408 155.5,95.5C 153.381,95.5323 152.048,94.5323 151.5,92.5C 153.484,92.516 154.484,91.516 154.5,89.5C 153.802,88.1374 153.802,86.9707 154.5,86C 153.429,85.1482 152.429,84.3149 151.5,83.5C 153.858,83.7475 155.858,83.0808 157.5,81.5C 157.369,82.3764 157.702,83.0431 158.5,83.5C 159.468,82.5109 160.635,81.8443 162,81.5C 166.697,83.7404 168.697,82.4071 168,77.5C 166.223,74.9406 164.723,72.2739 163.5,69.5 Z"/></g>
<g><path style="opacity:1" fill="#49ee4d" d="M 141.5,72.5 C 141.833,72.5 142.167,72.5 142.5,72.5C 143.434,73.5676 143.768,74.901 143.5,76.5C 144.5,76.5 145.5,76.5 146.5,76.5C 146.285,78.1788 146.952,79.1788 148.5,79.5C 150.201,80.2114 151.201,81.5447 151.5,83.5C 152.429,84.3149 153.429,85.1482 154.5,86C 153.802,86.9707 153.802,88.1374 154.5,89.5C 154.484,91.516 153.484,92.516 151.5,92.5C 149.251,88.2458 146.585,84.2458 143.5,80.5C 142.675,79.6143 141.675,79.281 140.5,79.5C 140.674,77.139 141.007,74.8056 141.5,72.5 Z"/></g>
<g><path style="opacity:1" fill="#d4fcd4" d="M 74.5,79.5 C 74.7093,81.7144 73.876,83.381 72,84.5C 69.4534,86.1775 66.6201,86.8441 63.5,86.5C 66.5821,84.9252 69.2488,82.7585 71.5,80C 72.448,79.5172 73.448,79.3505 74.5,79.5 Z"/></g>
<g><path style="opacity:1" fill="#bcf6c2" d="M 138.5,63.5 C 138.842,64.3382 139.508,64.6716 140.5,64.5C 140.5,64.8333 140.5,65.1667 140.5,65.5C 139.5,65.5 138.5,65.5 137.5,65.5C 137.234,69.6049 137.734,73.6049 139,77.5C 139.099,75.3474 139.933,73.6808 141.5,72.5C 141.007,74.8056 140.674,77.139 140.5,79.5C 140.288,81.3841 139.288,82.7174 137.5,83.5C 136.548,85.0453 136.215,86.712 136.5,88.5C 135.365,85.9227 133.531,83.9227 131,82.5C 130.425,79.4705 129.259,76.8039 127.5,74.5C 129.5,74.5 131.5,74.5 133.5,74.5C 132.962,76.1172 132.629,77.7839 132.5,79.5C 133.833,79.5 135.167,79.5 136.5,79.5C 136.5,77.8333 136.5,76.1667 136.5,74.5C 135.768,71.9325 135.768,69.2658 136.5,66.5C 136.285,64.8212 136.952,63.8212 138.5,63.5 Z"/></g>
<g><path style="opacity:1" fill="#edf9ed" d="M 159.5,74.5 C 160.942,75.8195 161.608,77.4862 161.5,79.5C 159.517,79.1568 158.183,79.8235 157.5,81.5C 155.858,83.0808 153.858,83.7475 151.5,83.5C 151.201,81.5447 150.201,80.2114 148.5,79.5C 148.263,78.209 148.596,77.209 149.5,76.5C 152.392,73.6101 155.726,72.9435 159.5,74.5 Z"/></g>
<g><path style="opacity:1" fill="#4de93e" d="M 133.5,74.5 C 134.5,74.5 135.5,74.5 136.5,74.5C 136.5,76.1667 136.5,77.8333 136.5,79.5C 135.167,79.5 133.833,79.5 132.5,79.5C 132.629,77.7839 132.962,76.1172 133.5,74.5 Z"/></g>
<g><path style="opacity:1" fill="#a1edc0" d="M 155.5,70.5 C 157.297,71.393 158.63,72.7263 159.5,74.5C 155.726,72.9435 152.392,73.6101 149.5,76.5C 149.631,75.6236 149.298,74.9569 148.5,74.5C 147.232,75.4279 145.899,75.5946 144.5,75C 145.636,73.8549 146.636,72.6883 147.5,71.5C 150.217,72.767 152.883,72.4337 155.5,70.5 Z"/></g>
<g><path style="opacity:1" fill="#74e47a" d="M 143.5,66.5 C 143.833,66.5 144.167,66.5 144.5,66.5C 143.956,70.6399 144.956,71.3065 147.5,68.5C 147.5,69.5 147.5,70.5 147.5,71.5C 146.636,72.6883 145.636,73.8549 144.5,75C 145.899,75.5946 147.232,75.4279 148.5,74.5C 149.298,74.9569 149.631,75.6236 149.5,76.5C 148.596,77.209 148.263,78.209 148.5,79.5C 146.952,79.1788 146.285,78.1788 146.5,76.5C 145.5,76.5 144.5,76.5 143.5,76.5C 143.768,74.901 143.434,73.5676 142.5,72.5C 143.341,70.6208 143.675,68.6208 143.5,66.5 Z"/></g>
<g><path style="opacity:1" fill="#bcf0ae" d="M 117.5,69.5 C 119.243,72.4952 120.243,75.8285 120.5,79.5C 118.167,79.5 115.833,79.5 113.5,79.5C 113.45,77.4099 114.45,76.0766 116.5,75.5C 117.466,73.604 117.799,71.604 117.5,69.5 Z"/></g>
<g><path style="opacity:1" fill="#f7f0f6" d="M 140.5,65.5 C 141.391,66.1098 142.391,66.4431 143.5,66.5C 143.675,68.6208 143.341,70.6208 142.5,72.5C 142.167,72.5 141.833,72.5 141.5,72.5C 139.933,73.6808 139.099,75.3474 139,77.5C 137.734,73.6049 137.234,69.6049 137.5,65.5C 138.5,65.5 139.5,65.5 140.5,65.5 Z"/></g>
<g><path style="opacity:1" fill="#ebfbd8" d="M 133.5,69.5 C 133.5,71.1667 133.5,72.8333 133.5,74.5C 131.5,74.5 129.5,74.5 127.5,74.5C 127.44,70.5149 129.44,68.8482 133.5,69.5 Z"/></g>
<g><path style="opacity:1" fill="#8cea81" d="M 136.5,66.5 C 135.768,69.2658 135.768,71.9325 136.5,74.5C 135.5,74.5 134.5,74.5 133.5,74.5C 133.5,72.8333 133.5,71.1667 133.5,69.5C 134.728,68.6935 135.728,67.6935 136.5,66.5 Z"/></g>
<g><path style="opacity:1" fill="#89ea88" d="M 137.5,51.5 C 137.833,51.5 138.167,51.5 138.5,51.5C 138.216,53.4147 138.549,55.0813 139.5,56.5C 139.067,59.9811 140.401,62.3144 143.5,63.5C 142.209,63.2627 141.209,63.596 140.5,64.5C 139.508,64.6716 138.842,64.3382 138.5,63.5C 137.465,61.795 137.465,60.1284 138.5,58.5C 137.248,56.9991 136.248,55.3325 135.5,53.5C 134.914,53.7093 134.414,54.0426 134,54.5C 133.501,59.4889 133.334,64.4889 133.5,69.5C 129.44,68.8482 127.44,70.5149 127.5,74.5C 125.85,71.7985 123.684,69.4652 121,67.5C 120.51,66.2068 120.343,64.8734 120.5,63.5C 119.167,63.5 117.833,63.5 116.5,63.5C 116.5,64.5 116.5,65.5 116.5,66.5C 114.915,65.9976 114.415,64.9976 115,63.5C 119.882,58.5589 122.215,59.5589 122,66.5C 122.689,67.3567 123.522,68.0233 124.5,68.5C 127.206,66.6128 129.873,64.9462 132.5,63.5C 132.335,60.1501 132.502,56.8168 133,53.5C 134.11,51.9632 135.61,51.2965 137.5,51.5 Z"/></g>
<g><path style="opacity:1" fill="#57ec5b" d="M 152.5,48.5 C 152.167,53.1667 151.833,57.8333 151.5,62.5C 153.415,62.7845 155.081,62.4511 156.5,61.5C 158.717,60.6314 161.05,60.298 163.5,60.5C 162.449,63.6558 162.449,66.6558 163.5,69.5C 164.723,72.2739 166.223,74.9406 168,77.5C 168.697,82.4071 166.697,83.7404 162,81.5C 160.635,81.8443 159.468,82.5109 158.5,83.5C 157.702,83.0431 157.369,82.3764 157.5,81.5C 158.183,79.8235 159.517,79.1568 161.5,79.5C 161.608,77.4862 160.942,75.8195 159.5,74.5C 158.63,72.7263 157.297,71.393 155.5,70.5C 155.5,69.5 155.5,68.5 155.5,67.5C 152.721,67.2786 150.054,67.612 147.5,68.5C 144.956,71.3065 143.956,70.6399 144.5,66.5C 145.117,66.6107 145.617,66.944 146,67.5C 148.48,65.8339 151.313,65.0006 154.5,65C 155.167,64.6667 155.833,64.3333 156.5,64C 154.527,63.5045 152.527,63.3379 150.5,63.5C 150.467,59.1311 150.8,54.7978 151.5,50.5C 150.167,50.5 148.833,50.5 147.5,50.5C 147.5,51.8333 147.5,53.1667 147.5,54.5C 146.566,53.4324 146.232,52.099 146.5,50.5C 147.533,47.4008 149.533,46.7341 152.5,48.5 Z"/></g>
<g><path style="opacity:1" fill="#f0fcd6" d="M 155.5,70.5 C 152.883,72.4337 150.217,72.767 147.5,71.5C 147.5,70.5 147.5,69.5 147.5,68.5C 150.054,67.612 152.721,67.2786 155.5,67.5C 155.5,68.5 155.5,69.5 155.5,70.5 Z"/></g>
<g><path style="opacity:1" fill="#e1fddc" d="M 124.5,47.5 C 123.094,50.4135 121.094,52.9135 118.5,55C 113.223,57.3678 108.223,60.2011 103.5,63.5C 101.8,65.0676 100.466,66.901 99.5,69C 94.0713,69.7143 89.4046,72.0477 85.5,76C 82.1606,77.2963 78.8273,78.463 75.5,79.5C 76.4787,77.8546 77.812,76.5213 79.5,75.5C 86.104,72.8991 91.4374,68.8991 95.5,63.5C 99.0957,63.1664 102.429,61.9998 105.5,60C 111.927,55.7993 118.26,51.6326 124.5,47.5 Z"/></g>
<g><path style="opacity:1" fill="#37f33b" d="M 144.5,66.5 C 144.167,66.5 143.833,66.5 143.5,66.5C 142.391,66.4431 141.391,66.1098 140.5,65.5C 140.5,65.1667 140.5,64.8333 140.5,64.5C 141.209,63.596 142.209,63.2627 143.5,63.5C 144.496,63.5858 145.329,63.2524 146,62.5C 147.079,59.9373 147.579,57.2706 147.5,54.5C 147.5,53.1667 147.5,51.8333 147.5,50.5C 148.833,50.5 150.167,50.5 151.5,50.5C 150.8,54.7978 150.467,59.1311 150.5,63.5C 152.527,63.3379 154.527,63.5045 156.5,64C 155.833,64.3333 155.167,64.6667 154.5,65C 151.313,65.0006 148.48,65.8339 146,67.5C 145.617,66.944 145.117,66.6107 144.5,66.5 Z"/></g>
<g><path style="opacity:1" fill="#3df151" d="M 138.5,63.5 C 136.952,63.8212 136.285,64.8212 136.5,66.5C 135.728,67.6935 134.728,68.6935 133.5,69.5C 133.334,64.4889 133.501,59.4889 134,54.5C 134.414,54.0426 134.914,53.7093 135.5,53.5C 136.248,55.3325 137.248,56.9991 138.5,58.5C 137.465,60.1284 137.465,61.795 138.5,63.5 Z"/></g>
<g><path style="opacity:1" fill="#fbfbfb" d="M 138.5,51.5 C 138.167,51.5 137.833,51.5 137.5,51.5C 137.189,50.5222 136.522,49.8555 135.5,49.5C 131.668,51.3248 130.001,54.3248 130.5,58.5C 130.556,60.6397 131.223,62.3064 132.5,63.5C 129.873,64.9462 127.206,66.6128 124.5,68.5C 123.522,68.0233 122.689,67.3567 122,66.5C 122.215,59.5589 119.882,58.5589 115,63.5C 114.415,64.9976 114.915,65.9976 116.5,66.5C 117.11,67.391 117.443,68.391 117.5,69.5C 117.799,71.604 117.466,73.604 116.5,75.5C 114.45,76.0766 113.45,77.4099 113.5,79.5C 115.833,79.5 118.167,79.5 120.5,79.5C 120.833,79.5 121.167,79.5 121.5,79.5C 121.472,84.8617 121.806,90.1951 122.5,95.5C 123.5,95.5 124.5,95.5 125.5,95.5C 125.959,92.1226 126.626,88.7893 127.5,85.5C 130.337,88.5177 132.671,91.851 134.5,95.5C 134.223,98.4475 134.556,101.281 135.5,104C 139.143,104.832 140.81,103.332 140.5,99.5C 141.234,98.2921 141.567,96.9587 141.5,95.5C 142.167,91.5 142.833,91.5 143.5,95.5C 147.127,96.7918 150.793,98.1252 154.5,99.5C 153.061,101.553 151.061,102.553 148.5,102.5C 148.5,101.167 148.5,99.8333 148.5,98.5C 146.833,98.5 145.167,98.5 143.5,98.5C 142.855,101.547 143.855,103.713 146.5,105C 144.715,106.163 142.715,106.83 140.5,107C 139.62,108.356 139.286,109.856 139.5,111.5C 134.506,115.333 129.173,118.666 123.5,121.5C 119.5,121.459 117.167,123.459 116.5,127.5C 114.02,128.242 111.687,129.242 109.5,130.5C 104.235,131.636 99.5685,134.136 95.5,138C 91.8549,138.995 88.1883,139.828 84.5,140.5C 84.5,139.167 84.5,137.833 84.5,136.5C 86.69,135.626 87.69,133.959 87.5,131.5C 84.9752,130.36 82.3085,129.693 79.5,129.5C 78.1614,126.497 76.8281,123.497 75.5,120.5C 73.2829,118.92 70.6163,117.92 67.5,117.5C 67.9767,116.522 68.6433,115.689 69.5,115C 71.8098,114.503 74.1432,114.337 76.5,114.5C 76.5,113.5 76.5,112.5 76.5,111.5C 77.5,111.5 78.5,111.5 79.5,111.5C 79.5,110.167 79.5,108.833 79.5,107.5C 73.1581,106.293 66.6581,106.293 60,107.5C 57.3351,107.332 54.8351,106.665 52.5,105.5C 51.5707,104.685 50.5707,103.852 49.5,103C 50.1079,102.13 50.9412,101.63 52,101.5C 55.49,103.829 59.3233,104.829 63.5,104.5C 63.5,102.833 63.5,101.167 63.5,99.5C 58.3634,98.039 53.0301,97.3723 47.5,97.5C 47.9371,95.9256 48.9371,94.7589 50.5,94C 54.8961,91.4731 59.2295,88.9731 63.5,86.5C 66.6201,86.8441 69.4534,86.1775 72,84.5C 73.876,83.381 74.7093,81.7144 74.5,79.5C 74.8333,79.5 75.1667,79.5 75.5,79.5C 78.8273,78.463 82.1606,77.2963 85.5,76C 89.4046,72.0477 94.0713,69.7143 99.5,69C 100.466,66.901 101.8,65.0676 103.5,63.5C 108.223,60.2011 113.223,57.3678 118.5,55C 121.094,52.9135 123.094,50.4135 124.5,47.5C 125.791,47.7373 126.791,47.404 127.5,46.5C 131.428,45.933 135.094,44.5997 138.5,42.5C 139.899,44.1033 141.565,45.4366 143.5,46.5C 142.045,48.2199 141.212,50.2199 141,52.5C 140.329,51.7476 139.496,51.4142 138.5,51.5 Z"/></g>
<g><path style="opacity:1" fill="#e0ffdf" d="M 134.5,95.5 C 135.21,97.4124 136.377,99.079 138,100.5C 138.902,100.257 139.735,99.9234 140.5,99.5C 140.81,103.332 139.143,104.832 135.5,104C 134.556,101.281 134.223,98.4475 134.5,95.5 Z"/></g>
<g><path style="opacity:1" fill="#c9f5cc" d="M 146.5,50.5 C 146.232,52.099 146.566,53.4324 147.5,54.5C 147.579,57.2706 147.079,59.9373 146,62.5C 145.329,63.2524 144.496,63.5858 143.5,63.5C 140.401,62.3144 139.067,59.9811 139.5,56.5C 142.473,55.1897 144.807,53.1897 146.5,50.5 Z"/></g>
<g><path style="opacity:1" fill="#b3fabc" d="M 152.5,48.5 C 153.457,52.6695 153.457,57.0028 152.5,61.5C 153.833,61.5 155.167,61.5 156.5,61.5C 155.081,62.4511 153.415,62.7845 151.5,62.5C 151.833,57.8333 152.167,53.1667 152.5,48.5 Z"/></g>
<g><path style="opacity:1" fill="#e7f8d1" d="M 137.5,51.5 C 135.61,51.2965 134.11,51.9632 133,53.5C 132.502,56.8168 132.335,60.1501 132.5,63.5C 131.223,62.3064 130.556,60.6397 130.5,58.5C 130.001,54.3248 131.668,51.3248 135.5,49.5C 136.522,49.8555 137.189,50.5222 137.5,51.5 Z"/></g>
<g><path style="opacity:1" fill="#fdf8fd" d="M 175.5,47.5 C 175.833,47.5 176.167,47.5 176.5,47.5C 175.828,50.9079 176.828,53.5745 179.5,55.5C 180.309,57.0709 180.643,58.7376 180.5,60.5C 179.07,60.5792 177.736,60.2458 176.5,59.5C 175.686,57.2338 175.186,54.9005 175,52.5C 174.333,53.1667 173.667,53.8333 173,54.5C 174.042,58.7456 174.875,63.079 175.5,67.5C 174.5,67.5 173.5,67.5 172.5,67.5C 172.5,66.1667 172.5,64.8333 172.5,63.5C 171.167,63.5 169.833,63.5 168.5,63.5C 167.803,58.3087 164.803,55.642 159.5,55.5C 159.334,51.1539 159.501,46.8206 160,42.5C 161.08,44.5535 161.914,46.7202 162.5,49C 164.754,50.1505 167.087,50.4838 169.5,50C 170.609,48.187 169.942,47.3537 167.5,47.5C 166.881,44.6894 165.548,42.1894 163.5,40C 162.594,37.2094 161.927,34.3761 161.5,31.5C 159.585,31.7845 157.919,31.4511 156.5,30.5C 158.374,28.8716 160.374,28.5382 162.5,29.5C 165.436,34.9436 168.602,40.277 172,45.5C 172.816,46.8228 173.983,47.4894 175.5,47.5 Z"/></g>
<g><path style="opacity:1" fill="#dcffde" d="M 175.5,47.5 C 173.983,47.4894 172.816,46.8228 172,45.5C 168.602,40.277 165.436,34.9436 162.5,29.5C 160.374,28.5382 158.374,28.8716 156.5,30.5C 154.958,31.3007 153.292,31.634 151.5,31.5C 154.423,27.8663 158.09,26.1996 162.5,26.5C 167.283,33.2699 171.616,40.2699 175.5,47.5 Z"/></g>
<g><path style="opacity:1" fill="#f5fcf4" d="M 156.5,30.5 C 157.919,31.4511 159.585,31.7845 161.5,31.5C 161.927,34.3761 162.594,37.2094 163.5,40C 165.548,42.1894 166.881,44.6894 167.5,47.5C 169.942,47.3537 170.609,48.187 169.5,50C 167.087,50.4838 164.754,50.1505 162.5,49C 161.914,46.7202 161.08,44.5535 160,42.5C 159.501,46.8206 159.334,51.1539 159.5,55.5C 164.803,55.642 167.803,58.3087 168.5,63.5C 169.833,63.5 171.167,63.5 172.5,63.5C 172.5,64.8333 172.5,66.1667 172.5,67.5C 173.5,67.5 174.5,67.5 175.5,67.5C 174.875,63.079 174.042,58.7456 173,54.5C 173.667,53.8333 174.333,53.1667 175,52.5C 175.186,54.9005 175.686,57.2338 176.5,59.5C 177.736,60.2458 179.07,60.5792 180.5,60.5C 180.643,58.7376 180.309,57.0709 179.5,55.5C 176.828,53.5745 175.828,50.9079 176.5,47.5C 181.309,55.1023 186.142,62.769 191,70.5C 192.903,73.1706 193.736,76.1706 193.5,79.5C 192.127,79.3433 190.793,79.51 189.5,80C 185.213,83.3085 180.547,85.8085 175.5,87.5C 178.266,84.9172 181.266,82.4172 184.5,80C 182.866,79.5065 181.199,79.3398 179.5,79.5C 179.5,80.5 179.5,81.5 179.5,82.5C 178.167,82.5 176.833,82.5 175.5,82.5C 175.5,81.5 175.5,80.5 175.5,79.5C 176.5,79.5 177.5,79.5 178.5,79.5C 178.662,77.4727 178.495,75.4727 178,73.5C 176.57,73.6938 175.07,73.6938 173.5,73.5C 172.197,71.0629 170.53,68.8962 168.5,67C 167.365,66.2506 166.365,66.4173 165.5,67.5C 166.559,69.5336 167.559,71.5336 168.5,73.5C 166.821,72.0837 165.154,70.7503 163.5,69.5C 162.449,66.6558 162.449,63.6558 163.5,60.5C 161.05,60.298 158.717,60.6314 156.5,61.5C 155.167,61.5 153.833,61.5 152.5,61.5C 153.457,57.0028 153.457,52.6695 152.5,48.5C 149.533,46.7341 147.533,47.4008 146.5,50.5C 144.807,53.1897 142.473,55.1897 139.5,56.5C 138.549,55.0813 138.216,53.4147 138.5,51.5C 139.496,51.4142 140.329,51.7476 141,52.5C 141.212,50.2199 142.045,48.2199 143.5,46.5C 141.565,45.4366 139.899,44.1033 138.5,42.5C 135.094,44.5997 131.428,45.933 127.5,46.5C 134.357,42.3437 141.023,37.677 147.5,32.5C 148.689,31.5713 150.022,31.238 151.5,31.5C 153.292,31.634 154.958,31.3007 156.5,30.5 Z"/></g>
<g><path style="opacity:1" fill="#69e275" d="M 148.5,124.5 C 147.833,124.833 147.167,125.167 146.5,125.5C 146.5,124.167 146.5,122.833 146.5,121.5C 145.5,121.5 144.5,121.5 143.5,121.5C 144.918,119.692 146.918,119.025 149.5,119.5C 149.371,121.216 149.038,122.883 148.5,124.5 Z"/></g>
<g><path style="opacity:1" fill="#91dea2" d="M 61.5,114.5 C 61.0773,116.781 61.744,118.448 63.5,119.5C 59.3961,121.725 55.3961,124.225 51.5,127C 50.2068,127.49 48.8734,127.657 47.5,127.5C 44.9781,126.335 44.9781,125.002 47.5,123.5C 47.4701,124.497 47.9701,125.164 49,125.5C 52.5654,123.633 56.0654,121.633 59.5,119.5C 60.1698,117.709 60.8365,116.042 61.5,114.5 Z"/></g>
<g><path style="opacity:1" fill="#6de477" d="M 43.5,114.5 C 43.8333,114.5 44.1667,114.5 44.5,114.5C 44.5,116.833 44.5,119.167 44.5,121.5C 45.5,121.5 46.5,121.5 47.5,121.5C 47.5,122.167 47.5,122.833 47.5,123.5C 44.9781,125.002 44.9781,126.335 47.5,127.5C 44.255,129.885 41.4216,132.885 39,136.5C 38.805,135.181 38.9717,133.847 39.5,132.5C 41.7252,126.708 43.0585,120.708 43.5,114.5 Z"/></g>
<g><path style="opacity:1" fill="#c3fac7" d="M 123.5,121.5 C 121.192,123.471 118.858,125.471 116.5,127.5C 117.167,123.459 119.5,121.459 123.5,121.5 Z"/></g>
<g><path style="opacity:1" fill="#d0f9d5" d="M 150.5,111.5 C 150.833,111.5 151.167,111.5 151.5,111.5C 151.824,115.555 151.491,119.555 150.5,123.5C 149.817,123.863 149.15,124.196 148.5,124.5C 149.038,122.883 149.371,121.216 149.5,119.5C 146.918,119.025 144.918,119.692 143.5,121.5C 142.218,123.18 140.551,124.513 138.5,125.5C 138.38,124.414 137.713,123.747 136.5,123.5C 135.151,123.846 133.817,124.179 132.5,124.5C 135.471,122.01 138.804,120.01 142.5,118.5C 143.386,117.675 143.719,116.675 143.5,115.5C 145.564,115.313 147.564,114.813 149.5,114C 150.252,113.329 150.586,112.496 150.5,111.5 Z"/></g>
<g><path style="opacity:1" fill="#75ee74" d="M 180.5,111.5 C 181.26,117.589 179.926,122.922 176.5,127.5C 177.628,122.022 178.961,116.689 180.5,111.5 Z"/></g>
<g><path style="opacity:1" fill="#dafbda" d="M 76.5,111.5 C 76.5,112.5 76.5,113.5 76.5,114.5C 74.1432,114.337 71.8098,114.503 69.5,115C 68.6433,115.689 67.9767,116.522 67.5,117.5C 70.6163,117.92 73.2829,118.92 75.5,120.5C 73.283,119.631 70.9496,119.298 68.5,119.5C 67.7811,121.091 66.7811,122.591 65.5,124C 59.8392,127.995 53.8392,131.162 47.5,133.5C 46.0783,133.709 44.745,134.209 43.5,135C 41.3086,137.113 39.6419,139.613 38.5,142.5C 37.3112,143.429 35.9778,143.762 34.5,143.5C 34.5,142.167 34.5,140.833 34.5,139.5C 33.4869,135.187 35.1536,132.854 39.5,132.5C 38.9717,133.847 38.805,135.181 39,136.5C 41.4216,132.885 44.255,129.885 47.5,127.5C 48.8734,127.657 50.2068,127.49 51.5,127C 55.3961,124.225 59.3961,121.725 63.5,119.5C 64.209,118.596 65.209,118.263 66.5,118.5C 66.4208,117.07 66.7542,115.736 67.5,114.5C 70.7704,113.942 73.7704,112.942 76.5,111.5 Z"/></g>
<g><path style="opacity:1" fill="#3cf343" d="M 68.5,119.5 C 70.9496,119.298 73.283,119.631 75.5,120.5C 76.8281,123.497 78.1614,126.497 79.5,129.5C 79.5,129.833 79.5,130.167 79.5,130.5C 79.6602,132.199 79.4935,133.866 79,135.5C 77.9887,134.663 76.8221,134.33 75.5,134.5C 75.6641,131.813 75.4974,129.146 75,126.5C 73.6439,125.62 72.1439,125.286 70.5,125.5C 68.9254,123.886 68.2587,121.886 68.5,119.5 Z"/></g>
<g><path style="opacity:1" fill="#64e262" d="M 70.5,125.5 C 72.1439,125.286 73.6439,125.62 75,126.5C 75.4974,129.146 75.6641,131.813 75.5,134.5C 76.8221,134.33 77.9887,134.663 79,135.5C 79.4935,133.866 79.6602,132.199 79.5,130.5C 83.7117,133.248 83.3784,135.581 78.5,137.5C 77.4763,136.147 76.143,135.48 74.5,135.5C 74.2688,131.707 72.9355,128.374 70.5,125.5 Z"/></g>
<g><path style="opacity:1" fill="#3ef244" d="M 181.5,95.5 C 183.5,95.5 185.5,95.5 187.5,95.5C 187.827,103.603 187.161,111.603 185.5,119.5C 183.148,128.557 179.815,137.224 175.5,145.5C 171.398,149.605 168.065,154.271 165.5,159.5C 161.639,161.094 158.639,163.761 156.5,167.5C 156.167,167.5 155.833,167.5 155.5,167.5C 152.568,168.8 150.234,170.8 148.5,173.5C 146.566,174.11 144.899,175.11 143.5,176.5C 138.405,179.044 133.072,181.044 127.5,182.5C 128.737,180.903 130.404,179.737 132.5,179C 131.737,178.056 130.737,177.556 129.5,177.5C 123.736,179.8 117.736,180.8 111.5,180.5C 114.979,179.982 118.312,178.982 121.5,177.5C 124.763,176.518 128.097,175.851 131.5,175.5C 134.82,173.273 138.487,171.606 142.5,170.5C 143.298,170.043 143.631,169.376 143.5,168.5C 145.142,167.197 146.809,165.864 148.5,164.5C 155.953,158.931 162.287,152.264 167.5,144.5C 168.325,143.614 169.325,143.281 170.5,143.5C 169.872,138.962 171.372,135.295 175,132.5C 175.494,130.866 175.66,129.199 175.5,127.5C 175.833,127.5 176.167,127.5 176.5,127.5C 179.926,122.922 181.26,117.589 180.5,111.5C 181.488,106.36 181.821,101.026 181.5,95.5 Z"/></g>
<g><path style="opacity:1" fill="#41f048" d="M 143.5,121.5 C 144.5,121.5 145.5,121.5 146.5,121.5C 146.5,122.833 146.5,124.167 146.5,125.5C 146.179,127.048 145.179,127.715 143.5,127.5C 143.5,128.5 143.5,129.5 143.5,130.5C 143.5,131.167 143.5,131.833 143.5,132.5C 140.333,136.436 136.667,139.936 132.5,143C 130.866,143.494 129.199,143.66 127.5,143.5C 127.439,145.592 126.439,147.092 124.5,148C 120.401,150.09 116.067,151.256 111.5,151.5C 113.568,150.625 115.568,149.459 117.5,148C 111.113,147.319 105.113,148.485 99.5,151.5C 102.086,152.48 104.753,152.813 107.5,152.5C 107.5,152.833 107.5,153.167 107.5,153.5C 106.833,153.5 106.167,153.5 105.5,153.5C 102.102,153.82 98.7683,153.487 95.5,152.5C 96.8207,151.015 98.3207,149.682 100,148.5C 104.799,147.719 109.299,146.386 113.5,144.5C 114.492,144.672 115.158,144.338 115.5,143.5C 124.974,141.098 132.307,135.764 137.5,127.5C 138.338,127.158 138.672,126.492 138.5,125.5C 140.551,124.513 142.218,123.18 143.5,121.5 Z"/></g>
<g><path style="opacity:1" fill="#ddfed6" d="M 137.5,127.5 C 132.307,135.764 124.974,141.098 115.5,143.5C 119.761,140.842 124.094,138.175 128.5,135.5C 130.69,133.144 132.69,130.644 134.5,128C 135.448,127.517 136.448,127.351 137.5,127.5 Z"/></g>
<g><path style="opacity:1" fill="#7fe891" d="M 68.5,119.5 C 68.2587,121.886 68.9254,123.886 70.5,125.5C 63.7931,126.918 58.4597,130.251 54.5,135.5C 52.4091,134.135 50.0758,133.468 47.5,133.5C 53.8392,131.162 59.8392,127.995 65.5,124C 66.7811,122.591 67.7811,121.091 68.5,119.5 Z"/></g>
<g><path style="opacity:1" fill="#dcf9da" d="M 70.5,125.5 C 72.9355,128.374 74.2688,131.707 74.5,135.5C 76.143,135.48 77.4763,136.147 78.5,137.5C 83.3784,135.581 83.7117,133.248 79.5,130.5C 79.5,130.167 79.5,129.833 79.5,129.5C 82.3085,129.693 84.9752,130.36 87.5,131.5C 87.69,133.959 86.69,135.626 84.5,136.5C 80.0069,137.977 75.3402,138.977 70.5,139.5C 71.8333,140.5 71.8333,141.5 70.5,142.5C 68.9547,143.452 67.288,143.785 65.5,143.5C 66.2899,142.206 67.2899,141.039 68.5,140C 67.8333,139.833 67.1667,139.667 66.5,139.5C 64.0127,140.3 62.0127,141.633 60.5,143.5C 59.1667,143.5 57.8333,143.5 56.5,143.5C 56.7174,140.579 56.0507,137.913 54.5,135.5C 58.4597,130.251 63.7931,126.918 70.5,125.5 Z"/></g>
<g><path style="opacity:1" fill="#faf9fb" d="M 67.5,127.5 C 68.5,127.5 69.5,127.5 70.5,127.5C 70.5,130.167 70.5,132.833 70.5,135.5C 66.7702,135.854 63.4369,137.187 60.5,139.5C 57.9285,138.272 56.5952,136.272 56.5,133.5C 59.3006,132.234 62.3006,131.401 65.5,131C 66.8228,130.184 67.4894,129.017 67.5,127.5 Z"/></g>
<g><path style="opacity:1" fill="#dafed6" d="M 126.5,127.5 C 126.131,129.441 125.464,131.275 124.5,133C 121.389,133.444 118.723,134.777 116.5,137C 114.866,137.494 113.199,137.66 111.5,137.5C 116.518,134.141 121.518,130.807 126.5,127.5 Z"/></g>
<g><path style="opacity:1" fill="#cdffd6" d="M -0.5,127.5 C 3.5145,132.189 6.5145,137.522 8.5,143.5C 5.51008,139.533 2.51008,135.533 -0.5,131.5C -0.5,130.167 -0.5,128.833 -0.5,127.5 Z"/></g>
<g><path style="opacity:1" fill="#41f242" d="M 47.5,133.5 C 50.0758,133.468 52.4091,134.135 54.5,135.5C 56.0507,137.913 56.7174,140.579 56.5,143.5C 57.8333,143.5 59.1667,143.5 60.5,143.5C 60.646,146.554 59.3126,148.554 56.5,149.5C 55.2028,147.629 54.2028,145.629 53.5,143.5C 52.5,143.5 51.5,143.5 50.5,143.5C 49.5,140.167 48.5,136.833 47.5,133.5 Z"/></g>
<g><path style="opacity:1" fill="#effcf0" d="M 109.5,130.5 C 96.666,139.42 83.3327,147.587 69.5,155C 67.8082,156.307 66.4749,157.807 65.5,159.5C 64.8333,159.5 64.1667,159.5 63.5,159.5C 61.744,158.448 61.0773,156.781 61.5,154.5C 59.076,154.808 56.7427,154.474 54.5,153.5C 53.5827,150.242 53.2493,146.909 53.5,143.5C 54.2028,145.629 55.2028,147.629 56.5,149.5C 57.6962,151.981 59.1962,151.981 61,149.5C 61.4955,147.527 61.6621,145.527 61.5,143.5C 62.8333,143.5 64.1667,143.5 65.5,143.5C 67.288,143.785 68.9547,143.452 70.5,142.5C 71.8333,141.5 71.8333,140.5 70.5,139.5C 75.3402,138.977 80.0069,137.977 84.5,136.5C 84.5,137.833 84.5,139.167 84.5,140.5C 88.1883,139.828 91.8549,138.995 95.5,138C 99.5685,134.136 104.235,131.636 109.5,130.5 Z"/></g>
<g><path style="opacity:1" fill="#f9f6fb" d="M 138.5,125.5 C 138.672,126.492 138.338,127.158 137.5,127.5C 136.448,127.351 135.448,127.517 134.5,128C 132.69,130.644 130.69,133.144 128.5,135.5C 124.094,138.175 119.761,140.842 115.5,143.5C 115.158,144.338 114.492,144.672 113.5,144.5C 111.565,143.85 109.565,143.517 107.5,143.5C 107.5,142.5 107.5,141.5 107.5,140.5C 109.483,140.843 110.817,140.176 111.5,138.5C 111.5,138.167 111.5,137.833 111.5,137.5C 113.199,137.66 114.866,137.494 116.5,137C 118.723,134.777 121.389,133.444 124.5,133C 125.464,131.275 126.131,129.441 126.5,127.5C 128.784,127.025 130.784,126.025 132.5,124.5C 133.817,124.179 135.151,123.846 136.5,123.5C 137.713,123.747 138.38,124.414 138.5,125.5 Z"/></g>
<g><path style="opacity:1" fill="#f9fbf9" d="M 34.5,139.5 C 34.5,140.833 34.5,142.167 34.5,143.5C 35.9778,143.762 37.3112,143.429 38.5,142.5C 39.6419,139.613 41.3086,137.113 43.5,135C 44.745,134.209 46.0783,133.709 47.5,133.5C 48.5,136.833 49.5,140.167 50.5,143.5C 51.5,143.5 52.5,143.5 53.5,143.5C 53.2493,146.909 53.5827,150.242 54.5,153.5C 56.7427,154.474 59.076,154.808 61.5,154.5C 61.0773,156.781 61.744,158.448 63.5,159.5C 63.5,160.167 63.5,160.833 63.5,161.5C 56.4126,163.933 50.0793,167.6 44.5,172.5C 42.8439,173.146 41.1772,173.813 39.5,174.5C 37.9271,174.248 36.5938,173.582 35.5,172.5C 32.5998,168.461 30.2664,164.127 28.5,159.5C 27.5,159.5 26.5,159.5 25.5,159.5C 25.6602,157.801 25.4935,156.134 25,154.5C 23.2602,153.284 22.2602,151.618 22,149.5C 20.5518,146.545 18.3851,144.545 15.5,143.5C 15.6567,142.127 15.49,140.793 15,139.5C 11.7625,134.852 8.92914,130.018 6.5,125C 7.03894,121.629 9.03894,119.796 12.5,119.5C 14.854,119.162 17.1873,118.662 19.5,118C 22.3647,114.881 25.6981,113.547 29.5,114C 30.8333,113.333 30.8333,112.667 29.5,112C 30.7932,111.51 32.1266,111.343 33.5,111.5C 33.3379,113.527 33.5045,115.527 34,117.5C 35.3561,118.38 36.8561,118.714 38.5,118.5C 38.5,116.167 38.5,113.833 38.5,111.5C 39.8333,111.5 41.1667,111.5 42.5,111.5C 40.3493,116.523 39.3493,121.857 39.5,127.5C 38.5,127.5 37.5,127.5 36.5,127.5C 35.767,130.623 34.767,133.623 33.5,136.5C 33.5195,137.726 33.8529,138.726 34.5,139.5 Z"/></g>
<g><path style="opacity:1" fill="#7fe47c" d="M 65.5,143.5 C 64.1667,143.5 62.8333,143.5 61.5,143.5C 61.6621,145.527 61.4955,147.527 61,149.5C 59.1962,151.981 57.6962,151.981 56.5,149.5C 59.3126,148.554 60.646,146.554 60.5,143.5C 62.0127,141.633 64.0127,140.3 66.5,139.5C 67.1667,139.667 67.8333,139.833 68.5,140C 67.2899,141.039 66.2899,142.206 65.5,143.5 Z"/></g>
<g><path style="opacity:1" fill="#e7fce8" d="M 175.5,127.5 C 175.66,129.199 175.494,130.866 175,132.5C 171.372,135.295 169.872,138.962 170.5,143.5C 169.325,143.281 168.325,143.614 167.5,144.5C 162.287,152.264 155.953,158.931 148.5,164.5C 148.5,163.5 148.5,162.5 148.5,161.5C 150.143,161.52 151.476,160.853 152.5,159.5C 153.025,155.304 155.359,153.304 159.5,153.5C 159.5,151.167 159.5,148.833 159.5,146.5C 155.894,146.789 152.394,146.456 149,145.5C 148.5,144.5 148,143.5 147.5,142.5C 154.863,141.072 155.363,138.072 149,133.5C 148.517,132.552 148.351,131.552 148.5,130.5C 146.833,130.5 145.167,130.5 143.5,130.5C 143.5,129.5 143.5,128.5 143.5,127.5C 145.179,127.715 146.179,127.048 146.5,125.5C 147.167,125.167 147.833,124.833 148.5,124.5C 148.5,126.167 148.5,127.833 148.5,129.5C 150.322,129.169 151.989,128.502 153.5,127.5C 153.5,126.167 153.5,124.833 153.5,123.5C 157.639,122.441 161.639,122.607 165.5,124C 166.12,126.473 166.786,128.973 167.5,131.5C 168.167,132.167 168.833,132.833 169.5,133.5C 171.937,131.73 173.937,129.73 175.5,127.5 Z"/></g>
<g><path style="opacity:1" fill="#2cf333" d="M 159.5,125.5 C 159.821,127.048 160.821,127.715 162.5,127.5C 162.736,130.609 162.403,133.609 161.5,136.5C 159.952,136.821 159.285,137.821 159.5,139.5C 158.209,139.737 157.209,139.404 156.5,138.5C 154.809,135.355 154.309,132.021 155,128.5C 155.908,126.561 157.408,125.561 159.5,125.5 Z"/></g>
<g><path style="opacity:1" fill="#61e16b" d="M 159.5,125.5 C 161.604,125.201 163.604,125.534 165.5,126.5C 164.602,129.482 164.435,132.482 165,135.5C 163.989,136.337 162.822,136.67 161.5,136.5C 162.403,133.609 162.736,130.609 162.5,127.5C 160.821,127.715 159.821,127.048 159.5,125.5 Z"/></g>
<g><path style="opacity:1" fill="#65e673" d="M 159.5,125.5 C 157.408,125.561 155.908,126.561 155,128.5C 154.309,132.021 154.809,135.355 156.5,138.5C 154.854,136.188 152.854,134.188 150.5,132.5C 151.952,131.06 152.952,129.394 153.5,127.5C 154.404,126.791 154.737,125.791 154.5,124.5C 156.415,124.216 158.081,124.549 159.5,125.5 Z"/></g>
<g><path style="opacity:1" fill="#d5fbda" d="M 111.5,138.5 C 110.817,140.176 109.483,140.843 107.5,140.5C 107.5,141.5 107.5,142.5 107.5,143.5C 109.565,143.517 111.565,143.85 113.5,144.5C 109.299,146.386 104.799,147.719 100,148.5C 98.3207,149.682 96.8207,151.015 95.5,152.5C 98.7683,153.487 102.102,153.82 105.5,153.5C 101.661,154.041 97.8274,155.041 94,156.5C 92.6988,155.902 91.8655,154.902 91.5,153.5C 90.3112,152.571 88.9778,152.238 87.5,152.5C 89.5315,151.522 91.1982,150.022 92.5,148C 96.7357,146.729 100.736,145.063 104.5,143C 105.677,139.651 108.01,138.151 111.5,138.5 Z"/></g>
<g><path style="opacity:1" fill="#59e769" d="M 10.5,143.5 C 13.769,145.114 15.4357,147.781 15.5,151.5C 14.6236,151.631 13.9569,151.298 13.5,150.5C 12.6805,148.026 11.6805,145.693 10.5,143.5 Z"/></g>
<g><path style="opacity:1" fill="#dbfbdd" d="M 143.5,132.5 C 141.913,134.97 140.413,137.636 139,140.5C 136.739,141.682 134.905,143.349 133.5,145.5C 134.325,146.386 135.325,146.719 136.5,146.5C 136.33,147.822 136.663,148.989 137.5,150C 139.74,150.977 142.073,151.477 144.5,151.5C 143.056,155.574 141.722,159.741 140.5,164C 136.496,164.881 132.496,165.714 128.5,166.5C 127.516,163.572 127.183,160.572 127.5,157.5C 128.461,159.265 128.795,161.265 128.5,163.5C 132.182,163.665 135.848,163.499 139.5,163C 140.38,161.644 140.714,160.144 140.5,158.5C 140.712,156.616 141.712,155.283 143.5,154.5C 142.15,153.05 140.484,152.383 138.5,152.5C 138.167,152.5 137.833,152.5 137.5,152.5C 137.038,151.12 136.038,150.453 134.5,150.5C 132.423,151.937 130.09,152.604 127.5,152.5C 127.631,151.624 127.298,150.957 126.5,150.5C 120.326,152.473 113.993,153.473 107.5,153.5C 107.5,153.167 107.5,152.833 107.5,152.5C 109.099,152.768 110.432,152.434 111.5,151.5C 116.067,151.256 120.401,150.09 124.5,148C 126.439,147.092 127.439,145.592 127.5,143.5C 129.199,143.66 130.866,143.494 132.5,143C 136.667,139.936 140.333,136.436 143.5,132.5 Z"/></g>
<g><path style="opacity:1" fill="#0efb1b" d="M 111.5,151.5 C 110.432,152.434 109.099,152.768 107.5,152.5C 104.753,152.813 102.086,152.48 99.5,151.5C 105.113,148.485 111.113,147.319 117.5,148C 115.568,149.459 113.568,150.625 111.5,151.5 Z"/></g>
<g><path style="opacity:1" fill="#d6ffcf" d="M 175.5,145.5 C 175.657,146.873 175.49,148.207 175,149.5C 171.58,152.749 168.413,156.083 165.5,159.5C 168.065,154.271 171.398,149.605 175.5,145.5 Z"/></g>
<g><path style="opacity:1" fill="#f4fbf5" d="M 87.5,152.5 C 86.962,154.117 86.6287,155.784 86.5,157.5C 89.021,157.44 91.3543,158.106 93.5,159.5C 100.487,158.033 107.487,157.699 114.5,158.5C 112.257,159.474 109.924,159.808 107.5,159.5C 107.5,160.5 107.5,161.5 107.5,162.5C 107.167,162.5 106.833,162.5 106.5,162.5C 106.715,160.821 106.048,159.821 104.5,159.5C 101.833,159.5 99.1667,159.5 96.5,159.5C 96.5,160.833 96.5,162.167 96.5,163.5C 96.5,164.5 96.5,165.5 96.5,166.5C 95.5655,167.568 95.2322,168.901 95.5,170.5C 98.8333,170.5 100.5,172.167 100.5,175.5C 98.8389,172.839 97.1723,172.839 95.5,175.5C 104.137,176.581 112.804,177.248 121.5,177.5C 118.312,178.982 114.979,179.982 111.5,180.5C 104.825,180.666 98.1583,180.5 91.5,180C 90.3774,178.956 89.0441,178.29 87.5,178C 81.9605,177.851 76.6272,177.018 71.5,175.5C 70.5,175.5 69.5,175.5 68.5,175.5C 68.5858,174.504 68.2524,173.671 67.5,173C 65.1902,172.503 62.8568,172.337 60.5,172.5C 60.5,171.5 60.5,170.5 60.5,169.5C 61.5,168.833 62.5,168.167 63.5,167.5C 63.5,167.167 63.5,166.833 63.5,166.5C 64.552,166.649 65.552,166.483 66.5,166C 73.5329,161.488 80.5329,156.988 87.5,152.5 Z"/></g>
<g><path style="opacity:1" fill="#fbfafa" d="M 143.5,130.5 C 145.167,130.5 146.833,130.5 148.5,130.5C 148.351,131.552 148.517,132.552 149,133.5C 155.363,138.072 154.863,141.072 147.5,142.5C 148,143.5 148.5,144.5 149,145.5C 152.394,146.456 155.894,146.789 159.5,146.5C 159.5,148.833 159.5,151.167 159.5,153.5C 155.359,153.304 153.025,155.304 152.5,159.5C 151.476,160.853 150.143,161.52 148.5,161.5C 148.5,162.5 148.5,163.5 148.5,164.5C 146.809,165.864 145.142,167.197 143.5,168.5C 140.401,170.145 137.068,171.312 133.5,172C 132.177,172.816 131.511,173.983 131.5,175.5C 128.097,175.851 124.763,176.518 121.5,177.5C 112.804,177.248 104.137,176.581 95.5,175.5C 97.1723,172.839 98.8389,172.839 100.5,175.5C 101.5,175.5 102.5,175.5 103.5,175.5C 109.671,173.973 112.338,169.973 111.5,163.5C 110.041,163.567 108.708,163.234 107.5,162.5C 107.5,161.5 107.5,160.5 107.5,159.5C 109.924,159.808 112.257,159.474 114.5,158.5C 107.487,157.699 100.487,158.033 93.5,159.5C 91.3543,158.106 89.021,157.44 86.5,157.5C 86.6287,155.784 86.962,154.117 87.5,152.5C 88.9778,152.238 90.3112,152.571 91.5,153.5C 91.8655,154.902 92.6988,155.902 94,156.5C 97.8274,155.041 101.661,154.041 105.5,153.5C 106.167,153.5 106.833,153.5 107.5,153.5C 113.993,153.473 120.326,152.473 126.5,150.5C 127.298,150.957 127.631,151.624 127.5,152.5C 127.5,153.5 127.5,154.5 127.5,155.5C 127.5,156.167 127.5,156.833 127.5,157.5C 127.183,160.572 127.516,163.572 128.5,166.5C 132.496,165.714 136.496,164.881 140.5,164C 141.722,159.741 143.056,155.574 144.5,151.5C 142.073,151.477 139.74,150.977 137.5,150C 136.663,148.989 136.33,147.822 136.5,146.5C 135.325,146.719 134.325,146.386 133.5,145.5C 134.905,143.349 136.739,141.682 139,140.5C 140.413,137.636 141.913,134.97 143.5,132.5C 143.5,131.833 143.5,131.167 143.5,130.5 Z"/></g>
<g><path style="opacity:1" fill="#4ae34f" d="M 137.5,152.5 C 135.533,152.261 133.699,152.594 132,153.5C 132.083,156.119 132.25,158.786 132.5,161.5C 134.144,161.714 135.644,161.38 137,160.5C 138.079,157.937 138.579,155.271 138.5,152.5C 140.484,152.383 142.15,153.05 143.5,154.5C 141.712,155.283 140.712,156.616 140.5,158.5C 138.609,162.333 135.609,163.333 131.5,161.5C 131.134,158.744 129.8,156.744 127.5,155.5C 127.5,154.5 127.5,153.5 127.5,152.5C 130.09,152.604 132.423,151.937 134.5,150.5C 136.038,150.453 137.038,151.12 137.5,152.5 Z"/></g>
<g><path style="opacity:1" fill="#14fc1f" d="M 137.5,152.5 C 137.833,152.5 138.167,152.5 138.5,152.5C 138.579,155.271 138.079,157.937 137,160.5C 135.644,161.38 134.144,161.714 132.5,161.5C 132.25,158.786 132.083,156.119 132,153.5C 133.699,152.594 135.533,152.261 137.5,152.5 Z"/></g>
<g><path style="opacity:1" fill="#1cfa27" d="M 63.5,166.5 C 63.5,166.833 63.5,167.167 63.5,167.5C 62.1667,167.5 60.8333,167.5 59.5,167.5C 59.5,166.167 59.5,164.833 59.5,163.5C 61.4832,163.843 62.8166,163.176 63.5,161.5C 63.5,160.833 63.5,160.167 63.5,159.5C 64.1667,159.5 64.8333,159.5 65.5,159.5C 67.4649,158.871 69.4649,158.204 71.5,157.5C 72.5,157.833 73.5,158.167 74.5,158.5C 70.1909,160.468 66.5242,163.135 63.5,166.5 Z"/></g>
<g><path style="opacity:1" fill="#94f09b" d="M 127.5,155.5 C 129.8,156.744 131.134,158.744 131.5,161.5C 135.609,163.333 138.609,162.333 140.5,158.5C 140.714,160.144 140.38,161.644 139.5,163C 135.848,163.499 132.182,163.665 128.5,163.5C 128.795,161.265 128.461,159.265 127.5,157.5C 127.5,156.833 127.5,156.167 127.5,155.5 Z"/></g>
<g><path style="opacity:1" fill="#66e54e" d="M 104.5,159.5 C 104.137,161.805 102.971,163.472 101,164.5C 100.055,164.095 99.3879,163.428 99,162.5C 98.3292,163.252 97.4959,163.586 96.5,163.5C 96.5,162.167 96.5,160.833 96.5,159.5C 99.1667,159.5 101.833,159.5 104.5,159.5 Z"/></g>
<g><path style="opacity:1" fill="#d1fed4" d="M 165.5,159.5 C 164.751,164.577 161.751,167.244 156.5,167.5C 158.639,163.761 161.639,161.094 165.5,159.5 Z"/></g>
<g><path style="opacity:1" fill="#1af832" d="M 104.5,159.5 C 106.048,159.821 106.715,160.821 106.5,162.5C 107.171,167.445 105.171,170.445 100.5,171.5C 100.226,169.019 98.8927,167.353 96.5,166.5C 96.5,165.5 96.5,164.5 96.5,163.5C 97.4959,163.586 98.3292,163.252 99,162.5C 99.3879,163.428 100.055,164.095 101,164.5C 102.971,163.472 104.137,161.805 104.5,159.5 Z"/></g>
<g><path style="opacity:1" fill="#d8fbd0" d="M 107.5,162.5 C 108.708,163.234 110.041,163.567 111.5,163.5C 112.338,169.973 109.671,173.973 103.5,175.5C 103.539,174.417 103.873,173.417 104.5,172.5C 106.646,171.444 108.312,169.944 109.5,168C 108.144,166.433 107.477,164.6 107.5,162.5 Z"/></g>
<g><path style="opacity:1" fill="#c6ffd0" d="M 155.5,167.5 C 155.67,168.822 155.337,169.989 154.5,171C 152.372,171.655 150.372,172.489 148.5,173.5C 150.234,170.8 152.568,168.8 155.5,167.5 Z"/></g>
<g><path style="opacity:1" fill="#4eee50" d="M 63.5,161.5 C 62.8166,163.176 61.4832,163.843 59.5,163.5C 59.5,164.833 59.5,166.167 59.5,167.5C 60.8333,167.5 62.1667,167.5 63.5,167.5C 62.5,168.167 61.5,168.833 60.5,169.5C 57.4704,172.014 54.137,174.014 50.5,175.5C 50.5,174.5 50.5,173.5 50.5,172.5C 47.7939,172.688 45.4605,173.688 43.5,175.5C 43.5569,174.391 43.8902,173.391 44.5,172.5C 50.0793,167.6 56.4126,163.933 63.5,161.5 Z"/></g>
<g><path style="opacity:1" fill="#52ea5e" d="M 106.5,162.5 C 106.833,162.5 107.167,162.5 107.5,162.5C 107.477,164.6 108.144,166.433 109.5,168C 108.312,169.944 106.646,171.444 104.5,172.5C 103.873,173.417 103.539,174.417 103.5,175.5C 102.5,175.5 101.5,175.5 100.5,175.5C 100.5,172.167 98.8333,170.5 95.5,170.5C 95.2322,168.901 95.5655,167.568 96.5,166.5C 98.8927,167.353 100.226,169.019 100.5,171.5C 105.171,170.445 107.171,167.445 106.5,162.5 Z"/></g>
<g><path style="opacity:1" fill="#95f1a7" d="M 35.5,172.5 C 36.5938,173.582 37.9271,174.248 39.5,174.5C 41.1772,173.813 42.8439,173.146 44.5,172.5C 43.8902,173.391 43.5569,174.391 43.5,175.5C 41.1432,175.663 38.8098,175.497 36.5,175C 35.7476,174.329 35.4142,173.496 35.5,172.5 Z"/></g>
<g><path style="opacity:1" fill="#9cf198" d="M 143.5,168.5 C 143.631,169.376 143.298,170.043 142.5,170.5C 138.487,171.606 134.82,173.273 131.5,175.5C 131.511,173.983 132.177,172.816 133.5,172C 137.068,171.312 140.401,170.145 143.5,168.5 Z"/></g>
<g><path style="opacity:1" fill="#57e762" d="M 50.5,175.5 C 44.9669,182.004 38.6336,183.004 31.5,178.5C 31.5,178.167 31.5,177.833 31.5,177.5C 34.5637,179.343 37.8971,179.843 41.5,179C 43.8377,176.169 46.8377,175.003 50.5,175.5 Z"/></g>
<g><path style="opacity:1" fill="#ddfddb" d="M 60.5,169.5 C 60.5,170.5 60.5,171.5 60.5,172.5C 62.8568,172.337 65.1902,172.503 67.5,173C 68.2524,173.671 68.5858,174.504 68.5,175.5C 68.1667,175.5 67.8333,175.5 67.5,175.5C 67.3893,174.883 67.056,174.383 66.5,174C 62.356,172.666 59.356,173.832 57.5,177.5C 55.4727,177.338 53.4727,177.505 51.5,178C 45.7599,182.308 39.4265,183.475 32.5,181.5C 31.6143,180.675 31.281,179.675 31.5,178.5C 38.6336,183.004 44.9669,182.004 50.5,175.5C 54.137,174.014 57.4704,172.014 60.5,169.5 Z"/></g>
<g><path style="opacity:1" fill="#60e96e" d="M 67.5,175.5 C 65.7376,175.643 64.0709,175.309 62.5,174.5C 61.5,174.833 60.8333,175.5 60.5,176.5C 62.0588,178.131 64.0588,178.964 66.5,179C 67.3805,179.708 68.0472,180.542 68.5,181.5C 65.4214,180.696 62.4214,179.696 59.5,178.5C 58.5084,178.672 57.8417,178.338 57.5,177.5C 59.356,173.832 62.356,172.666 66.5,174C 67.056,174.383 67.3893,174.883 67.5,175.5 Z"/></g>
<g><path style="opacity:1" fill="#e0fcce" d="M 71.5,175.5 C 76.6272,177.018 81.9605,177.851 87.5,178C 89.0441,178.29 90.3774,178.956 91.5,180C 98.1583,180.5 104.825,180.666 111.5,180.5C 104.679,181.655 97.6791,181.821 90.5,181C 85.2081,179.838 79.8748,178.838 74.5,178C 73.0577,177.623 72.0577,176.79 71.5,175.5 Z"/></g>
<g><path style="opacity:1" fill="#29f638" d="M 67.5,175.5 C 67.8333,175.5 68.1667,175.5 68.5,175.5C 69.5,175.5 70.5,175.5 71.5,175.5C 72.0577,176.79 73.0577,177.623 74.5,178C 79.8748,178.838 85.2081,179.838 90.5,181C 97.6791,181.821 104.679,181.655 111.5,180.5C 117.736,180.8 123.736,179.8 129.5,177.5C 130.737,177.556 131.737,178.056 132.5,179C 130.404,179.737 128.737,180.903 127.5,182.5C 122.427,184.453 117.094,185.786 111.5,186.5C 100.815,186.61 90.1482,186.277 79.5,185.5C 75.7073,184.569 72.0406,183.235 68.5,181.5C 68.0472,180.542 67.3805,179.708 66.5,179C 64.0588,178.964 62.0588,178.131 60.5,176.5C 60.8333,175.5 61.5,174.833 62.5,174.5C 64.0709,175.309 65.7376,175.643 67.5,175.5 Z"/></g>
<g><path style="opacity:1" fill="#dcfee2" d="M 59.5,178.5 C 62.4214,179.696 65.4214,180.696 68.5,181.5C 72.0406,183.235 75.7073,184.569 79.5,185.5C 75.1539,185.666 70.8206,185.499 66.5,185C 64.766,183.266 62.766,181.932 60.5,181C 59.7476,180.329 59.4142,179.496 59.5,178.5 Z"/></g>
<g><path style="opacity:1" fill="#64ec64" d="M 79.5,185.5 C 90.1482,186.277 100.815,186.61 111.5,186.5C 104.352,187.492 97.0191,187.825 89.5,187.5C 85.9601,187.247 82.6267,186.581 79.5,185.5 Z"/></g>
<g><path style="opacity:1" fill="#e1fed8" d="M 143.5,176.5 C 140.325,178.152 137.492,180.485 135,183.5C 129.315,184.808 123.815,186.641 118.5,189C 108.674,189.039 99.0072,188.539 89.5,187.5C 97.0191,187.825 104.352,187.492 111.5,186.5C 117.094,185.786 122.427,184.453 127.5,182.5C 133.072,181.044 138.405,179.044 143.5,176.5 Z"/></g>
</svg>
