<?xml version="1.0" encoding="UTF-8"?>
<!DOCTYPE svg PUBLIC "-//W3C//DTD SVG 1.1//EN" "http://www.w3.org/Graphics/SVG/1.1/DTD/svg11.dtd">
<svg xmlns="http://www.w3.org/2000/svg" version="1.1" width="200px" height="200px" style="shape-rendering:geometricPrecision; text-rendering:geometricPrecision; image-rendering:optimizeQuality; fill-rule:evenodd; clip-rule:evenodd" xmlns:xlink="http://www.w3.org/1999/xlink">
<g><path style="opacity:0.974" fill="#2b4832" d="M 91.5,7.5 C 132.293,5.63131 159.127,23.9646 172,62.5C 178.561,95.8259 168.061,122.326 140.5,142C 101.148,161.952 67.6475,154.786 40,120.5C 27.0817,98.5039 25.0817,75.5039 34,51.5C 45.8591,27.1249 65.0257,12.4583 91.5,7.5 Z M 90.5,25.5 C 115.683,22.7061 135.183,31.7061 149,52.5C 159.463,72.5565 158.796,92.2231 147,111.5C 127.377,135.761 103.211,141.594 74.5,129C 48.858,112.077 40.6913,88.9107 50,59.5C 58.1192,41.6991 71.6192,30.3658 90.5,25.5 Z M 96.5,54.5 C 99.1667,54.5 101.833,54.5 104.5,54.5C 100.869,72.8688 108.202,80.2022 126.5,76.5C 126.5,79.1667 126.5,81.8333 126.5,84.5C 119.939,83.9186 113.605,84.752 107.5,87C 106.283,88.6477 105.45,90.481 105,92.5C 104.501,97.1548 104.334,101.821 104.5,106.5C 101.833,106.5 99.1667,106.5 96.5,106.5C 96.9155,100.048 96.4155,93.7145 95,87.5C 94.1667,86.6667 93.3333,85.8333 92.5,85C 86.5092,84.5005 80.5092,84.3338 74.5,84.5C 74.5,81.5 74.5,78.5 74.5,75.5C 80.9522,75.9155 87.2855,75.4155 93.5,74C 94.2106,72.7453 95.044,71.5786 96,70.5C 96.4994,65.1771 96.666,59.8437 96.5,54.5 Z"/></g>
<g><path style="opacity:0.966" fill="#58d088" d="M 84.5,36.5 C 95.505,36.3335 106.505,36.5002 117.5,37C 119,38.5 120.5,40 122,41.5C 122.499,47.1569 122.666,52.8236 122.5,58.5C 140.244,54.5774 147.578,61.5774 144.5,79.5C 148.128,97.8717 140.795,105.205 122.5,101.5C 126.843,119.989 119.676,127.656 101,124.5C 96.1667,124.333 91.3333,124.167 86.5,124C 84.481,123.55 82.6477,122.717 81,121.5C 79.5845,115.285 79.0845,108.952 79.5,102.5C 61.4226,106.256 54.0893,99.0889 57.5,81C 53.4819,62.1846 60.8153,55.0179 79.5,59.5C 79.3338,53.4908 79.5005,47.4908 80,41.5C 81.025,39.313 82.525,37.6464 84.5,36.5 Z M 96.5,54.5 C 96.666,59.8437 96.4994,65.1771 96,70.5C 95.044,71.5786 94.2106,72.7453 93.5,74C 87.2855,75.4155 80.9522,75.9155 74.5,75.5C 74.5,78.5 74.5,81.5 74.5,84.5C 80.5092,84.3338 86.5092,84.5005 92.5,85C 93.3333,85.8333 94.1667,86.6667 95,87.5C 96.4155,93.7145 96.9155,100.048 96.5,106.5C 99.1667,106.5 101.833,106.5 104.5,106.5C 104.334,101.821 104.501,97.1548 105,92.5C 105.45,90.481 106.283,88.6477 107.5,87C 113.605,84.752 119.939,83.9186 126.5,84.5C 126.5,81.8333 126.5,79.1667 126.5,76.5C 108.202,80.2022 100.869,72.8688 104.5,54.5C 101.833,54.5 99.1667,54.5 96.5,54.5 Z"/></g>
<g><path style="opacity:0.969" fill="#59d089" d="M 13.5,84.5 C 17.8829,84.3481 21.3829,86.0148 24,89.5C 27.8882,110.793 38.0548,128.293 54.5,142C 61.4167,146.041 68.25,150.208 75,154.5C 76.6232,166.07 76.9566,177.736 76,189.5C 73.5976,195.092 69.4309,196.925 63.5,195C 62.3333,193.833 61.1667,192.667 60,191.5C 59.6667,182.833 59.3333,174.167 59,165.5C 28.004,149.495 11.004,124.162 8,89.5C 9.10653,86.887 10.9399,85.2203 13.5,84.5 Z"/></g>
<g><path style="opacity:0.956" fill="#59d088" d="M 183.5,85.5 C 189.88,85.215 193.546,88.215 194.5,94.5C 188.859,126.796 171.692,150.796 143,166.5C 142.667,174.833 142.333,183.167 142,191.5C 139.045,195.277 135.212,196.443 130.5,195C 128.19,193.363 126.69,191.196 126,188.5C 125.333,178.167 125.333,167.833 126,157.5C 126.785,155.714 127.951,154.214 129.5,153C 156.906,140.923 173.072,120.09 178,90.5C 179.73,88.5981 181.563,86.9314 183.5,85.5 Z"/></g>
</svg>
