<?xml version="1.0" encoding="utf-8"?>
<!-- Generator: Adobe Illustrator 16.0.0, SVG Export Plug-In . SVG Version: 6.00 Build 0)  -->
<!DOCTYPE svg PUBLIC "-//W3C//DTD SVG 1.1//EN" "http://www.w3.org/Graphics/SVG/1.1/DTD/svg11.dtd">
<svg version="1.1" id="图层_1" xmlns="http://www.w3.org/2000/svg" xmlns:xlink="http://www.w3.org/1999/xlink" x="0px" y="0px"
	 width="1024px" height="1024px" viewBox="0 0 1024 1024" enable-background="new 0 0 1024 1024" xml:space="preserve">
<linearGradient id="SVGID_1_" gradientUnits="userSpaceOnUse" x1="843.4492" y1="568.6563" x2="843.4492" y2="500.7617">
	<stop  offset="0.1626" style="stop-color:#FFFFFF;stop-opacity:0.5"/>
	<stop  offset="1" style="stop-color:#C6C6C6;stop-opacity:0.8"/>
</linearGradient>
<path fill="url(#SVGID_1_)" d="M885.5,534.708h-9.366c0-18.748-15.198-33.947-33.947-33.947s-33.948,15.199-33.948,33.947h-6.84
	c-8.626,0-15.618,7.6-15.618,16.976c0,9.373,6.992,16.973,15.618,16.973H885.5c8.626,0,15.618-7.6,15.618-16.973
	C901.118,542.308,894.126,534.708,885.5,534.708z"/>
<linearGradient id="SVGID_2_" gradientUnits="userSpaceOnUse" x1="200.4609" y1="555.4121" x2="200.4609" y2="500.7622">
	<stop  offset="0.1626" style="stop-color:#FFFFFF;stop-opacity:0.5"/>
	<stop  offset="1" style="stop-color:#C6C6C6;stop-opacity:0.8"/>
</linearGradient>
<path fill="url(#SVGID_2_)" d="M234.309,528.087h-7.539c0-15.091-12.234-27.325-27.325-27.325s-27.325,12.234-27.325,27.325h-5.508
	c-6.942,0-12.57,6.117-12.57,13.663c0,7.545,5.628,13.662,12.57,13.662h67.697c6.943,0,12.571-6.117,12.571-13.662
	C246.88,534.204,241.252,528.087,234.309,528.087z"/>
<linearGradient id="SVGID_3_" gradientUnits="userSpaceOnUse" x1="497.9082" y1="738.5928" x2="497.9082" y2="543.5928">
	<stop  offset="0.1626" style="stop-color:#FFFFFF;stop-opacity:0.5"/>
	<stop  offset="1" style="stop-color:#C6C6C6;stop-opacity:0.8"/>
</linearGradient>
<path fill="url(#SVGID_3_)" d="M497.908,543.593c-206.002,0-373,87.305-373,195h746C870.908,630.897,703.91,543.593,497.908,543.593
	z"/>
<linearGradient id="SVGID_4_" gradientUnits="userSpaceOnUse" x1="258.8789" y1="509.5732" x2="258.8789" y2="584.9878">
	<stop  offset="0.1626" style="stop-color:#F1F0F5"/>
	<stop  offset="1" style="stop-color:#C5C9D2"/>
</linearGradient>
<path fill="url(#SVGID_4_)" d="M293.889,546.864c0.908-2.782,1.404-5.749,1.404-8.834c0-15.717-12.74-28.457-28.456-28.457
	c-15.263,0-27.717,12.016-28.423,27.104c-11.449,1.087-20.408,10.827-20.408,22.687c0,12.586,10.092,22.791,22.541,22.791
	c6.972,0,13.203-3.203,17.338-8.23c3.941,6.628,11.122,11.063,19.328,11.063c12.448,0,22.54-10.203,22.54-22.791
	C299.753,556.292,297.531,550.912,293.889,546.864z"/>
<polygon fill="#7F7F7F" points="273.627,563.11 271.033,560.519 260.672,570.88 260.672,555.073 255.338,555.073 255.338,571.634 
	249.473,565.768 246.88,568.36 255.338,576.819 255.338,629.739 260.672,629.739 260.672,576.065 "/>
<linearGradient id="SVGID_5_" gradientUnits="userSpaceOnUse" x1="774.8359" y1="524.9043" x2="774.8359" y2="600.3188">
	<stop  offset="0.1626" style="stop-color:#F1F0F5"/>
	<stop  offset="1" style="stop-color:#C5C9D2"/>
</linearGradient>
<path fill="url(#SVGID_5_)" d="M809.846,562.195c0.907-2.782,1.405-5.749,1.405-8.834c0-15.717-12.741-28.457-28.457-28.457
	c-15.264,0-27.717,12.016-28.424,27.104c-11.447,1.087-20.408,10.827-20.408,22.687c0,12.586,10.092,22.791,22.541,22.791
	c6.973,0,13.203-3.203,17.338-8.23c3.943,6.628,11.123,11.063,19.329,11.063c12.448,0,22.54-10.203,22.54-22.791
	C815.71,571.623,813.489,566.243,809.846,562.195z"/>
<polygon fill="#7F7F7F" points="789.583,578.441 786.991,575.85 776.629,586.211 776.629,570.404 771.296,570.404 771.296,586.965 
	765.43,581.099 762.837,583.691 771.296,592.15 771.296,645.07 776.629,645.07 776.629,591.396 "/>
<linearGradient id="SVGID_6_" gradientUnits="userSpaceOnUse" x1="190.4463" y1="579.3994" x2="190.4463" y2="618.8838">
	<stop  offset="0.1626" style="stop-color:#F1F0F5"/>
	<stop  offset="1" style="stop-color:#C5C9D2"/>
</linearGradient>
<path fill="url(#SVGID_6_)" d="M208.776,598.924c0.476-1.457,0.735-3.01,0.735-4.626c0-8.229-6.67-14.898-14.898-14.898
	c-7.992,0-14.512,6.291-14.883,14.19c-5.993,0.569-10.685,5.669-10.685,11.879c0,6.589,5.284,11.932,11.802,11.932
	c3.65,0,6.913-1.677,9.078-4.31c2.063,3.471,5.822,5.793,10.119,5.793c6.518,0,11.802-5.343,11.802-11.934
	C211.847,603.859,210.684,601.043,208.776,598.924z"/>
<polygon fill="#7F7F7F" points="198.168,607.43 196.811,606.072 191.385,611.497 191.385,603.222 188.592,603.222 188.592,611.892 
	185.521,608.821 184.164,610.178 188.592,614.607 188.592,642.314 191.385,642.314 191.385,614.213 "/>
<linearGradient id="SVGID_7_" gradientUnits="userSpaceOnUse" x1="595.9531" y1="425.2471" x2="595.9531" y2="285.1152">
	<stop  offset="0.1626" style="stop-color:#FFFFFF;stop-opacity:0.5"/>
	<stop  offset="1" style="stop-color:#C6C6C6;stop-opacity:0.8"/>
</linearGradient>
<path fill="url(#SVGID_7_)" d="M682.744,355.181h-19.331c0-38.696-31.369-70.065-70.065-70.065s-70.066,31.37-70.066,70.065h-14.12
	c-17.802,0-32.233,15.686-32.233,35.034s14.432,35.033,32.233,35.033h173.583c17.804,0,32.234-15.685,32.234-35.033
	S700.548,355.181,682.744,355.181z"/>
<linearGradient id="SVGID_8_" gradientUnits="userSpaceOnUse" x1="425.7295" y1="415.4575" x2="425.7295" y2="355.1812">
	<stop  offset="0.1626" style="stop-color:#FFFFFF;stop-opacity:0.5"/>
	<stop  offset="1" style="stop-color:#C6C6C6;stop-opacity:0.8"/>
</linearGradient>
<path fill="url(#SVGID_8_)" d="M463.063,385.319h-8.315c0-16.645-13.493-30.138-30.138-30.138
	c-16.646,0-30.139,13.493-30.139,30.138h-6.074c-7.657,0-13.865,6.747-13.865,15.07s6.208,15.069,13.865,15.069h74.666
	c7.658,0,13.865-6.746,13.865-15.069S470.721,385.319,463.063,385.319z"/>
<path fill="#D6D6D6" d="M307.768,408.599c-2.281,7.667-10.745,11.914-10.745,11.914s-4.768-8.183-2.487-15.85
	c2.28-7.667,10.744-11.914,10.744-11.914S310.047,400.932,307.768,408.599z"/>
<path fill="#D6D6D6" d="M725.83,474.943c-2.279,7.667-10.744,11.914-10.744,11.914s-4.768-8.183-2.487-15.85
	c2.28-7.667,10.745-11.914,10.745-11.914S728.111,467.276,725.83,474.943z"/>
<path fill="#D6D6D6" d="M689.239,647.839c-7.034,3.81-16.022,0.828-16.022,0.828s2.415-9.157,9.448-12.968
	c7.034-3.808,16.022-0.826,16.022-0.826S696.272,644.03,689.239,647.839z"/>
<path fill="#D6D6D6" d="M262.976,435.06c-1.412,4.747-6.653,7.376-6.653,7.376s-2.951-5.066-1.539-9.813
	c1.412-4.747,6.652-7.376,6.652-7.376S264.387,430.313,262.976,435.06z"/>
<path fill="#7A7A7A" d="M413.943,434.506h128.235c18.886,0,34.195,15.309,34.195,34.195v76.941c0,18.887-15.31,34.197-34.195,34.197
	h-47.277l-16.841,16.9l-16.918-16.9h-47.199c-9.07,0-17.768-3.604-24.182-10.018c-6.412-6.413-10.016-15.11-10.016-24.18v-76.941
	c0-9.07,3.604-17.767,10.016-24.18C396.176,438.107,404.873,434.506,413.943,434.506L413.943,434.506z M413.943,434.506"/>
<linearGradient id="SVGID_9_" gradientUnits="userSpaceOnUse" x1="379.7461" y1="524.1719" x2="576.374" y2="524.1719">
	<stop  offset="0.1626" style="stop-color:#DDDDDD"/>
	<stop  offset="1" style="stop-color:#C6C6C6"/>
</linearGradient>
<path fill="url(#SVGID_9_)" d="M413.943,443.055h128.235c18.886,0,34.195,15.31,34.195,34.196v76.939
	c0,9.069-3.602,17.768-10.017,24.182c-6.412,6.412-15.109,10.016-24.179,10.016h-47.277l-16.841,16.901l-16.918-16.901h-47.199
	c-9.07,0-17.768-3.604-24.182-10.016c-6.412-6.414-10.016-15.112-10.016-24.182v-76.939c0-9.069,3.604-17.768,10.016-24.181
	C396.176,446.658,404.873,443.055,413.943,443.055L413.943,443.055z M413.943,443.055"/>
<path fill="#FFFFFF" d="M431.041,485.799h94.039c5.699,0,8.548,2.85,8.548,8.55c0,5.699-2.849,8.549-8.548,8.549h-94.039
	c-5.699,0-8.549-2.85-8.549-8.549C422.492,488.649,425.342,485.799,431.041,485.799L431.041,485.799z M431.041,485.799"/>
<path fill="#FFFFFF" d="M431.041,528.545h68.393c5.697,0,8.549,2.85,8.549,8.548c0,5.699-2.852,8.55-8.549,8.55h-68.393
	c-5.699,0-8.549-2.851-8.549-8.55C422.492,531.395,425.342,528.545,431.041,528.545L431.041,528.545z M431.041,528.545"/>
</svg>
