<?xml version="1.0" standalone="no"?><!DOCTYPE svg PUBLIC "-//W3C//DTD SVG 1.1//EN" "http://www.w3.org/Graphics/SVG/1.1/DTD/svg11.dtd"><svg t="1662823078620" class="icon" viewBox="0 0 1024 1024" version="1.1" xmlns="http://www.w3.org/2000/svg" p-id="19146" xmlns:xlink="http://www.w3.org/1999/xlink" width="200" height="200"><path d="M316.278754 150.368405c23.510413-2.378159 45.035616-8.778926 64.364808-19.644369 25.154863-14.136947 46.853004-35.99063 64.681009-66.473838 0.500396-0.873902 2.3536-3.60817 4.380765-3.438302 8.922189 0.749059 27.853316 13.281465 18.655858 26.19761-5.833857 9.321278-12.023824 17.930335-18.556597 25.825126l0.002046-0.004093c5.162569 9.348907 12.02894 17.249838 20.501899 23.769309 3.989863 3.083215 8.373698 5.875812 13.132062 8.394164 19.385474 6.0948 23.180909 33.77313-3.404533 33.273758-10.719111-4.540401-20.401615-10.104105-28.990206-16.718743-9.371419-7.227597-17.351145-15.65553-23.8655-25.351337-9.774601 8.568126-20.150905 15.904193-31.104353 22.064484-22.903594 12.87112-48.187393 20.497805-75.628316 23.346684-26.244682 2.483559-31.454323-28.134724-4.168942-31.240453z" fill="#2875A4" p-id="19147"></path><path d="M400.179462 2.655474c6.904233 0 13.733765 0.516769 20.466083 1.493001 36.529912 5.326298 64.509094 24.412967 83.35017 50.953384 17.928289 25.257193 27.291522 57.107535 27.547348 89.790846l6.582915 198.680641-47.626622-13.620178-1.353831-48.774769a188.060791 188.060791 0 0 1-3.14666 4.367462c-22.773634 30.596794-52.360427 49.413311-85.81838 49.413311-33.461023 0-63.044746-18.815493-85.823496-49.413311a198.691898 198.691898 0 0 1-3.129264-4.346996l-1.302666 46.875516-47.611272 13.619155 6.497981-196.306575c0.162705-32.863413 9.530032-64.893856 27.551441-90.285102 18.839029-26.54144 46.816165-45.627086 83.346077-50.953384a142.436775 142.436775 0 0 1 20.470176-1.489931v-0.00307z m-0.001023 47.416845c-50.197162 0-83.899684 37.079426-83.899685 100.296086 0 54.24126 38.368789 137.728553 83.899685 137.728553 48.402286 0 83.264212-87.729912 83.264212-142.740696 0-44.958868-23.37329-95.283943-83.264212-95.283943zM622.351073 801.674893c17.459615 0 31.609865 14.15332 31.609866 31.612935 0 17.451429-14.152296 31.604749-31.609866 31.604749-17.455522 0-31.608842-14.14718-31.608842-31.604749 0-17.462685 14.151273-31.608842 31.608842-31.608842v-0.004093z m0 96.796387c17.459615 0 31.609865 14.15639 31.609866 31.614981 0 17.450406-14.152296 31.607819-31.609866 31.607819-17.455522-0.004093-31.608842-14.155366-31.608842-31.607819 0-17.461662 14.151273-31.612935 31.608842-31.612935v-0.002046zM318.978231 360.974633l0.036839 0.212848c2.616589 15.477475 13.316257 29.313571 27.240356 39.771739 16.356494 12.275557 36.69364 19.624927 53.916873 19.624927 17.223232-0.001023 37.564472-7.34937 53.921989-19.624927 13.890331-10.433609 24.56237-24.229796 27.21682-39.659176l29.519255 12.413703c-5.696734 21.002294-19.969781 39.010401-37.843834 52.432058-17.002199 12.763673-37.544006 21.507807-57.008274 24.703585v60.394388a46.805932 46.805932 0 0 1-16.104761 2.832506c-5.665012-0.001023-10.794836-1.002838-15.504081-2.872415l0.001023-60.354479c-19.464268-3.195779-40.004029-11.93889-57.008274-24.702562-18.055178-13.55571-32.439765-31.793037-38.018819-53.0706l29.634888-12.101595z" fill="#2875A4" p-id="19148"></path><path d="M623.944358 473.966855c-22.197514 14.229044-31.752105 41.062126-19.981037 49.260838 5.870696 4.089123 12.224391 5.709014 17.345005 2.038422l-0.015349-0.024559c3.347228-2.422161 5.412256-6.636127 4.271271-10.642363-4.279458-14.9648 18.483943-21.49348 22.780797-6.478539 3.862973 13.498405-1.931998 28.17054-13.159691 36.289435l-0.019443-0.022513c-23.336451 17.283607-68.059959-1.150194-58.423504-44.224135 1.330295-5.938234 3.650126-11.985962 6.986098-17.856658-36.733549 17.866891-53.688676 62.118655-47.173299 100.524284 8.152664 48.05334 37.265667 95.578655 85.795867 95.578654 49.709046 0 77.991126-49.605692 85.794844-95.578654 8.702179-51.280841-23.057089-108.02715-84.201559-108.861143v-0.003069z m215.319567 547.373578c-9.937307-152.611488-45.155342-247.785938-104.614431-290.735037-11.707623-8.468865-32.38553-8.654083-42.883607-3.322668-38.463957 19.53283-76.311884 22.857545-114.421777 10.382444-15.672926-5.130847-24.917456-12.116944-36.00291-13.553664-10.619851-1.389647-23.467434 0.558724-31.668194 6.493888-58.535044 42.289067-95.309526 138.262717-104.579637 290.2592l-0.0307 0.475837h-247.424711c7.510029-33.512188 15.627901-67.969908 23.677212-103.050822-40.864628-192.797666-89.431666-439.564392 36.761178-511.118935l-0.011256-0.042979c11.216437-6.231922 22.43799-12.462821 33.65545-18.692697 37.362881 216.71433 256.742919 216.716377 294.09659 0l33.22464 18.456314c12.429052 5.458304 24.751681 12.068849 36.810297 19.801959 3.845577 1.032514 69.236759-7.668641 113.406659 53.16986 22.945549 31.603725 32.031467 72.619803 25.561115 110.748115-5.805204 34.203941-18.615949 63.599376-36.350834 86.095695 15.09476 1.315969 30.920158 6.268761 43.781045 15.55934 89.389711 64.576632 116.805053 204.370212 124.209681 325.820042 0.056282 0.841156 0.336667 2.199081 0.568957 3.258201l-47.764767-0.004093z m-372.530808 0l31.594516 0.004093c1.441836-20.853915 3.401463-41.94933 5.993493-63.318991 3.765759-31.077747 8.842371-62.336619 15.556269-93.782756 1.804085-8.52617-3.643986-16.907031-12.166063-18.710093-8.5231-1.807155-16.897821 3.640916-18.704976 12.162993-6.950282 32.586097-12.189599 64.766966-16.049503 96.625495-2.7005 22.287564-4.740968 44.632434-6.223736 67.019259z m257.719151-157.100724l-0.002046 0.002047c6.748691 31.636471 11.850885 63.077491 15.622784 94.348643a1224.542031 1224.542031 0 0 1 5.918792 62.74901l31.600655 0.004093c-1.472535-22.195467-3.487421-44.358188-6.156198-66.460534-3.866043-32.03556-9.124803-64.407787-16.12011-97.189336-1.805109-8.52003-10.180853-13.969125-18.704977-12.162993-8.5231 1.808178-13.970148 10.184946-12.1589 18.70907zM227.738386 457.993077c-62.663053 54.521645-48.110645 201.738274-21.439245 344.972203 9.645665-48.865843 17.818795-98.244362 22.840148-147.341472-16.251093-16.913171-25.713587-39.16492-25.713586-67.301691 0.001023-24.09779 30.147564-82.219419 24.602278-128.233313-0.097214-0.695847-0.192381-1.398857-0.289595-2.095727z" fill="#2875A4" p-id="19149"></path></svg>