<?xml version="1.0" standalone="no"?><!DOCTYPE svg PUBLIC "-//W3C//DTD SVG 1.1//EN" "http://www.w3.org/Graphics/SVG/1.1/DTD/svg11.dtd"><svg t="1662822782857" class="icon" viewBox="0 0 1024 1024" version="1.1" xmlns="http://www.w3.org/2000/svg" p-id="7875" xmlns:xlink="http://www.w3.org/1999/xlink" width="200" height="200"><path d="M512 938.666667C276.864 938.666667 85.333333 747.136 85.333333 512S276.864 85.333333 512 85.333333s426.666667 191.530667 426.666667 426.666667-191.530667 426.666667-426.666667 426.666667z m0-161.194667a37.418667 37.418667 0 0 0 26.538667-11.349333l219.989333-246.528a34.432 34.432 0 0 0 3.797333-43.605334l-75.861333-125.184c-5.674667-11.349333-18.986667-17.066667-30.336-17.066666H367.872c-13.226667 0-24.661333 5.717333-30.293333 17.066666l-75.904 125.184a34.432 34.432 0 0 0 3.84 43.605334l219.946666 246.528c7.594667 7.552 17.066667 11.349333 26.538667 11.349333z m-75.861333-303.36h151.722666c5.674667 0 9.472 3.754667 9.472 9.429333 0 5.717333-3.797333 9.514667-9.472 9.514667h-151.722666c-5.674667 0-9.472-3.84-9.472-9.514667s3.797333-9.472 9.472-9.472z" fill="#F5A623" p-id="7876"></path></svg>