<?xml version="1.0" standalone="no"?><!DOCTYPE svg PUBLIC "-//W3C//DTD SVG 1.1//EN" "http://www.w3.org/Graphics/SVG/1.1/DTD/svg11.dtd"><svg t="1662823065003" class="icon" viewBox="0 0 1024 1024" version="1.1" xmlns="http://www.w3.org/2000/svg" p-id="18632" xmlns:xlink="http://www.w3.org/1999/xlink" width="200" height="200"><path d="M737.639424 949.655523c185.568957-144.130094 309.900158-449.632122 277.842025-682.36774C1000.592098 159.277883 954.579763 85.927004 891.062578 52.729156L849.375315 28.634415c-74.812052-48.364823-177.824741-36.529322-283.818222 45.836994-185.568957 144.130094-309.900158 449.646734-277.842025 682.36774 14.903963 108.126794 60.974745 181.53612 124.638047 214.660909l40.036137 22.998861c74.855887 49.519149 178.540716 38.063554 285.250172-44.843396z" fill="#CE3E3D" p-id="18633"></path><path d="M427.085369 978.319602a300.78244 520.966582 22.15 1 0 392.842841-965.038456 300.78244 520.966582 22.15 1 0-392.842841 965.038456Z" fill="#F94141" p-id="18634"></path><path d="MNaN NaNaNaN NaN NaN 1 0 NaN NaN NaN NaN NaN 1 0 NaN NaNZ" fill="#F2F2F2" p-id="18635"></path><path d="M576.135985 151.665173c-151.567464 117.7267-253.162815 367.265806-226.978597 557.364399s170.270477 248.764685 321.808717 131.023373 253.133592-367.280418 226.934762-557.364399S727.645002 33.923861 576.135985 151.665173z m86.852116 630.306149c-125.953103 97.898584-245.725445 49.095409-267.496921-108.915827s62.684317-365.43934 188.652032-463.3087 245.68161-49.095409 267.453086 108.915827-62.684317 365.43934-188.63742 463.3087z" fill="#F2F2F2" p-id="18636"></path><path d="M595.218903 290.359703c-90.461214 70.297028-151.129112 219.278216-135.494563 332.767514S561.378138 771.626218 651.853964 701.343802s151.129112-219.263604 135.47995-332.752902S685.723951 220.077287 595.218903 290.359703z m49.840607 361.698738c-68.762796 53.420481-134.150283 26.797911-146.029619-59.455125s34.220669-199.523158 102.983465-252.943639 134.150283-26.812523 146.029619 59.455125-34.220669 199.508546-102.983465 252.943639zM617.078049 496.238964L273.395573 298.001638" fill="#F2F2F2" p-id="18637"></path><path d="M256.343686 307.849943a19.696611 19.696611 0 0 1 26.885581-26.900193l343.697087 198.222714a19.696611 19.696611 0 1 1-19.681999 34.118387L263.56188 315.068137a19.550493 19.550493 0 0 1-7.218194-7.218194z" fill="#A8AEBA" p-id="18638"></path><path d="M324.259002 327.794953l1.505008-112.481089L108.531436 88.93702l27.148592 127.794181 188.578974 111.063752z" fill="#FFA71A" p-id="18639"></path><path d="M135.680028 216.731201L3.356211 253.552758l221.060847 131.213326 98.921405-57.804-187.658435-110.230883z" fill="#FCC30B" p-id="18640"></path></svg>