<?xml version="1.0" standalone="no"?><!DOCTYPE svg PUBLIC "-//W3C//DTD SVG 1.1//EN" "http://www.w3.org/Graphics/SVG/1.1/DTD/svg11.dtd"><svg t="1662822419753" class="icon" viewBox="0 0 1024 1024" version="1.1" xmlns="http://www.w3.org/2000/svg" p-id="7713" xmlns:xlink="http://www.w3.org/1999/xlink" width="200" height="200"><path d="M557.71648 810.06592L542.72 798.72v-61.70624l13.33248-13.17376L542.72 706.56v-55.87456l14.16704-12.45184L542.72 619.52v-81.72544c84.33152-75.05408 210.47808-67.18976 261.14048-60.26752l43.67872-67.08736c11.24352-12.78976 9.2416-37.12512 5.9904-47.42656-5.18144-12.50816-14.06464-25.00608-29.66016-27.65312l-227.87072-12.30336-93.94176-245.93408c-6.88128-16.52736-21.2736-26.98752-37.03808-26.98752-15.76448 0-30.09024 10.45504-37.1456 26.98752L322.43712 325.85728l-235.84256 3.7632c-15.60064 2.65216-30.592 16.72704-35.38944 34.28864-4.89984 17.50016 8.08448 40.26368 19.38432 53.11488l163.77856 226.52928L177.92 876.8c-2.64192 18.14016-14.08 57.6 9.13408 75.48416 21.07392 17.78176 42.5728 22.5536 55.36256 20.74112 10.9568-1.55648 20.05504-10.11712 20.05504-10.11712l231.44448-183.6032 52.36736 37.08416 11.43296-6.3232z" fill="#6CCE25" p-id="7714"></path><path d="M621.08672 561.08032c-16.88064 9.5744-25.08288 20.11136-25.08288 31.5392v31.54432c0 11.43296 8.25344 21.9648 25.08288 31.54432 16.83456 9.63584 39.58784 17.41312 68.59264 22.86592 29.0048 5.504 60.3392 8.20736 94.41792 8.20736 34.08896 0 65.47456-2.75456 94.42304-8.20736 29.0048-5.504 51.712-13.2864 68.59264-22.86592 16.88064-9.57952 25.08288-20.11136 25.08288-31.54432v-31.54432c0-11.42784-8.20736-21.9648-25.08288-31.5392-16.83456-9.63584-39.58784-17.36192-68.59264-22.86592a509.32736 509.32736 0 0 0-94.42304-8.20736c-34.07872 0-65.41312 2.74944-94.46912 8.25344-28.58496 5.93408-51.70688 13.184-68.54144 22.81984m-25.088 211.1744v39.79776c0 11.43296 8.25344 21.9648 25.08288 31.54432 16.83456 9.57952 39.58784 17.36192 68.59264 22.86592 29.0048 5.4528 60.3392 8.20736 94.41792 8.20736 34.08896 0 65.47456-2.74944 94.42304-8.25344 29.0048-5.504 51.712-13.2864 68.59264-22.86592 16.88064-9.57952 25.08288-20.11648 25.08288-31.54432v-41.65632c-19.584 13.71136-45.89056 24.23808-79.54944 31.06816-33.65888 7.40864-69.75488 10.63424-108.55424 10.63424-38.79424 0-74.89024-3.1744-108.54912-10.47552-33.7152-6.8864-59.96544-17.41312-79.54944-31.12448m0.01024 93.2608v42.50112c0 11.42784 8.25344 21.9648 25.08288 31.54432 16.83456 9.63072 39.58784 17.408 68.59264 22.86592 28.94848 5.504 60.3392 8.25344 94.41792 8.25344 34.08896 0 65.47456-2.74944 94.42304-8.20736 29.0048-5.504 51.712-13.2864 68.59264-22.86592 16.88064-9.57952 25.08288-20.11136 25.08288-31.54432v-41.6c-19.584 13.71136-45.89056 24.23808-79.54944 31.12448a541.62944 541.62944 0 0 1-108.55424 10.47552 545.32608 545.32608 0 0 1-108.54912-10.47552c-33.7152-6.8864-59.96544-17.36192-79.54944-31.12448m0.01024-188.35968v41.6c0 11.42784 8.25344 21.9648 25.08288 31.54432 16.83456 9.57952 39.58784 17.36192 68.59264 22.86592 29.0048 5.44768 60.3392 8.20736 94.41792 8.20736 34.08896 0 65.47456-2.75456 94.42304-8.25856 29.0048-5.504 51.712-13.2864 68.59264-22.86592 16.88064-9.57952 25.08288-20.11136 25.08288-31.54432v-41.6c-19.584 13.71136-45.89056 24.23808-79.54944 31.06816a541.68576 541.68576 0 0 1-108.55424 10.53184 541.2352 541.2352 0 0 1-108.54912-10.53184c-33.64864-6.77888-59.9552-17.3056-79.5392-31.01696" fill="#ACED7A" p-id="7715"></path></svg>