<?xml version="1.0" standalone="no"?><!DOCTYPE svg PUBLIC "-//W3C//DTD SVG 1.1//EN" "http://www.w3.org/Graphics/SVG/1.1/DTD/svg11.dtd"><svg t="1662822988708" class="icon" viewBox="0 0 1024 1024" version="1.1" xmlns="http://www.w3.org/2000/svg" p-id="13881" xmlns:xlink="http://www.w3.org/1999/xlink" width="200" height="200"><path d="M833.197558 1023.851723H190.743576C72.730023 1023.851723 7.755102 958.906458 7.755102 840.878077V524.603533a211.872806 211.872806 0 0 1 114.262149-188.45989l41.191312 78.88329a123.232899 123.232899 0 0 0-66.472517 109.5766v316.274544c0 68.50391 25.473965 94.00753 94.00753 94.00753h642.453982c68.533565 0 94.00753-25.50362 94.00753-94.00753V524.603533a124.256009 124.256009 0 0 0-70.327715-111.504199l38.551984-80.366059a214.111787 214.111787 0 0 1 120.815986 191.870258v316.274544c-0.059311 118.028381-65.034231 182.973646-183.047785 182.973646z m-662.441703-400.347524h44.290298V103.052418A103.096901 103.096901 0 0 1 317.965123 0.148277h388.010889a103.082074 103.082074 0 0 1 102.918969 102.904141v520.451781h44.290298v88.966117H170.755855v-88.966117z m133.271243 0h415.886938V103.052418a13.938025 13.938025 0 0 0-13.938024-13.938025H317.965123a13.938025 13.938025 0 0 0-13.938025 13.938025v520.451781z m340.680915-355.716189h-265.415581v-89.114393h265.415581v89.114393z m0 161.918332h-265.415581v-88.966116h265.415581v88.966116z" fill="#CAA07D" p-id="13882"></path></svg>